<?xml version="1.0" encoding="utf-8" standalone="no"?>
<!DOCTYPE svg PUBLIC "-//W3C//DTD SVG 1.1//EN"
  "http://www.w3.org/Graphics/SVG/1.1/DTD/svg11.dtd">
<svg xmlns:xlink="http://www.w3.org/1999/xlink" width="513.72pt" height="344.16pt" viewBox="0 0 513.72 344.16" xmlns="http://www.w3.org/2000/svg" version="1.1">
 <metadata>
  <rdf:RDF xmlns:dc="http://purl.org/dc/elements/1.1/" xmlns:cc="http://creativecommons.org/ns#" xmlns:rdf="http://www.w3.org/1999/02/22-rdf-syntax-ns#">
   <cc:Work>
    <dc:type rdf:resource="http://purl.org/dc/dcmitype/StillImage"/>
    <dc:format>image/svg+xml</dc:format>
    <dc:creator>
     <cc:Agent>
      <dc:title>tools/generate_surface_figures.py</dc:title>
     </cc:Agent>
    </dc:creator>
   </cc:Work>
  </rdf:RDF>
 </metadata>
 <defs>
  <style type="text/css">*{stroke-linejoin: round; stroke-linecap: butt}</style>
 </defs>
 <g id="figure_1">
  <g id="patch_1">
   <path d="M 0 344.16
L 513.72 344.16
L 513.72 0
L 0 0
z
" style="fill: #ffffff"/>
  </g>
  <g id="axes_1">
   <g id="PathCollection_1">
    <defs>
     <path id="m818f9cbcf1" d="M 0 4.1833
C 1.109424 4.1833 2.173559 3.742521 2.95804 2.95804
C 3.742521 2.173559 4.1833 1.109424 4.1833 0
C 4.1833 -1.109424 3.742521 -2.173559 2.95804 -2.95804
C 2.173559 -3.742521 1.109424 -4.1833 0 -4.1833
C -1.109424 -4.1833 -2.173559 -3.742521 -2.95804 -2.95804
C -3.742521 -2.173559 -4.1833 -1.109424 -4.1833 0
C -4.1833 1.109424 -3.742521 2.173559 -2.95804 2.95804
C -2.173559 3.742521 -1.109424 4.1833 0 4.1833
z
" style="stroke: #ffffff; stroke-width: 1.4"/>
    </defs>
    <g clip-path="url(#pc7cd6314c0)">
     <use xlink:href="#m818f9cbcf1" x="100.327256" y="320.58" style="fill: #e9efeb; stroke: #ffffff; stroke-width: 1.4"/>
     <use xlink:href="#m818f9cbcf1" x="204.682419" y="287.58" style="fill: #e9efeb; stroke: #ffffff; stroke-width: 1.4"/>
     <use xlink:href="#m818f9cbcf1" x="100.327256" y="254.58" style="fill: #e9efeb; stroke: #ffffff; stroke-width: 1.4"/>
     <use xlink:href="#m818f9cbcf1" x="204.682419" y="221.58" style="fill: #e9efeb; stroke: #ffffff; stroke-width: 1.4"/>
     <use xlink:href="#m818f9cbcf1" x="100.327256" y="188.58" style="fill: #e9efeb; stroke: #ffffff; stroke-width: 1.4"/>
     <use xlink:href="#m818f9cbcf1" x="204.682419" y="155.58" style="fill: #e9efeb; stroke: #ffffff; stroke-width: 1.4"/>
     <use xlink:href="#m818f9cbcf1" x="100.327256" y="122.58" style="fill: #e9efeb; stroke: #ffffff; stroke-width: 1.4"/>
     <use xlink:href="#m818f9cbcf1" x="204.682419" y="89.58" style="fill: #e9efeb; stroke: #ffffff; stroke-width: 1.4"/>
     <use xlink:href="#m818f9cbcf1" x="100.327256" y="56.58" style="fill: #e9efeb; stroke: #ffffff; stroke-width: 1.4"/>
     <use xlink:href="#m818f9cbcf1" x="204.682419" y="23.58" style="fill: #e9efeb; stroke: #ffffff; stroke-width: 1.4"/>
     <use xlink:href="#m818f9cbcf1" x="309.037581" y="320.58" style="fill: #e9efeb; stroke: #ffffff; stroke-width: 1.4"/>
     <use xlink:href="#m818f9cbcf1" x="413.392744" y="287.58" style="fill: #e9efeb; stroke: #ffffff; stroke-width: 1.4"/>
     <use xlink:href="#m818f9cbcf1" x="309.037581" y="254.58" style="fill: #e9efeb; stroke: #ffffff; stroke-width: 1.4"/>
     <use xlink:href="#m818f9cbcf1" x="413.392744" y="221.58" style="fill: #e9efeb; stroke: #ffffff; stroke-width: 1.4"/>
     <use xlink:href="#m818f9cbcf1" x="309.037581" y="188.58" style="fill: #e9efeb; stroke: #ffffff; stroke-width: 1.4"/>
     <use xlink:href="#m818f9cbcf1" x="413.392744" y="155.58" style="fill: #e9efeb; stroke: #ffffff; stroke-width: 1.4"/>
     <use xlink:href="#m818f9cbcf1" x="309.037581" y="122.58" style="fill: #e9efeb; stroke: #ffffff; stroke-width: 1.4"/>
     <use xlink:href="#m818f9cbcf1" x="413.392744" y="89.58" style="fill: #e9efeb; stroke: #ffffff; stroke-width: 1.4"/>
     <use xlink:href="#m818f9cbcf1" x="309.037581" y="56.58" style="fill: #e9efeb; stroke: #ffffff; stroke-width: 1.4"/>
     <use xlink:href="#m818f9cbcf1" x="413.392744" y="23.58" style="fill: #e9efeb; stroke: #ffffff; stroke-width: 1.4"/>
    </g>
   </g>
   <g id="PathCollection_2">
    <defs>
     <path id="meb2796108a" d="M 0 4.84768
C 1.28562 4.84768 2.518757 4.336898 3.427827 3.427827
C 4.336898 2.518757 4.84768 1.28562 4.84768 0
C 4.84768 -1.28562 4.336898 -2.518757 3.427827 -3.427827
C 2.518757 -4.336898 1.28562 -4.84768 0 -4.84768
C -1.28562 -4.84768 -2.518757 -4.336898 -3.427827 -3.427827
C -4.336898 -2.518757 -4.84768 -1.28562 -4.84768 0
C -4.84768 1.28562 -4.336898 2.518757 -3.427827 3.427827
C -2.518757 4.336898 -1.28562 4.84768 0 4.84768
z
" style="stroke: #ffffff; stroke-width: 1.4"/>
    </defs>
    <g clip-path="url(#pc7cd6314c0)">
     <use xlink:href="#meb2796108a" x="246.424484" y="320.58" style="fill: #d4dfda; stroke: #ffffff; stroke-width: 1.4"/>
     <use xlink:href="#meb2796108a" x="142.069321" y="287.58" style="fill: #d4dfda; stroke: #ffffff; stroke-width: 1.4"/>
     <use xlink:href="#meb2796108a" x="246.424484" y="254.58" style="fill: #d4dfda; stroke: #ffffff; stroke-width: 1.4"/>
     <use xlink:href="#meb2796108a" x="142.069321" y="221.58" style="fill: #d4dfda; stroke: #ffffff; stroke-width: 1.4"/>
     <use xlink:href="#meb2796108a" x="246.424484" y="188.58" style="fill: #d4dfda; stroke: #ffffff; stroke-width: 1.4"/>
     <use xlink:href="#meb2796108a" x="142.069321" y="155.58" style="fill: #d4dfda; stroke: #ffffff; stroke-width: 1.4"/>
     <use xlink:href="#meb2796108a" x="246.424484" y="122.58" style="fill: #d4dfda; stroke: #ffffff; stroke-width: 1.4"/>
     <use xlink:href="#meb2796108a" x="142.069321" y="89.58" style="fill: #d4dfda; stroke: #ffffff; stroke-width: 1.4"/>
     <use xlink:href="#meb2796108a" x="246.424484" y="56.58" style="fill: #d4dfda; stroke: #ffffff; stroke-width: 1.4"/>
     <use xlink:href="#meb2796108a" x="142.069321" y="23.58" style="fill: #d4dfda; stroke: #ffffff; stroke-width: 1.4"/>
     <use xlink:href="#meb2796108a" x="455.134809" y="320.58" style="fill: #d4dfda; stroke: #ffffff; stroke-width: 1.4"/>
     <use xlink:href="#meb2796108a" x="350.779647" y="287.58" style="fill: #d4dfda; stroke: #ffffff; stroke-width: 1.4"/>
     <use xlink:href="#meb2796108a" x="455.134809" y="254.58" style="fill: #d4dfda; stroke: #ffffff; stroke-width: 1.4"/>
     <use xlink:href="#meb2796108a" x="350.779647" y="221.58" style="fill: #d4dfda; stroke: #ffffff; stroke-width: 1.4"/>
     <use xlink:href="#meb2796108a" x="455.134809" y="188.58" style="fill: #d4dfda; stroke: #ffffff; stroke-width: 1.4"/>
     <use xlink:href="#meb2796108a" x="350.779647" y="155.58" style="fill: #d4dfda; stroke: #ffffff; stroke-width: 1.4"/>
     <use xlink:href="#meb2796108a" x="455.134809" y="122.58" style="fill: #d4dfda; stroke: #ffffff; stroke-width: 1.4"/>
     <use xlink:href="#meb2796108a" x="350.779647" y="89.58" style="fill: #d4dfda; stroke: #ffffff; stroke-width: 1.4"/>
     <use xlink:href="#meb2796108a" x="455.134809" y="56.58" style="fill: #d4dfda; stroke: #ffffff; stroke-width: 1.4"/>
     <use xlink:href="#meb2796108a" x="350.779647" y="23.58" style="fill: #d4dfda; stroke: #ffffff; stroke-width: 1.4"/>
    </g>
   </g>
   <g id="PathCollection_3">
    <defs>
     <path id="m436cae02a2" d="M 0 5.59017
C 1.48253 5.59017 2.90454 5.001154 3.952847 3.952847
C 5.001154 2.90454 5.59017 1.48253 5.59017 0
C 5.59017 -1.48253 5.001154 -2.90454 3.952847 -3.952847
C 2.90454 -5.001154 1.48253 -5.59017 0 -5.59017
C -1.48253 -5.59017 -2.90454 -5.001154 -3.952847 -3.952847
C -5.001154 -2.90454 -5.59017 -1.48253 -5.59017 0
C -5.59017 1.48253 -5.001154 2.90454 -3.952847 3.952847
C -2.90454 5.001154 -1.48253 5.59017 0 5.59017
z
" style="stroke: #ffffff; stroke-width: 1.4"/>
    </defs>
    <g clip-path="url(#pc7cd6314c0)">
     <use xlink:href="#m436cae02a2" x="183.811386" y="320.58" style="fill: #91aaa6; stroke: #ffffff; stroke-width: 1.4"/>
     <use xlink:href="#m436cae02a2" x="79.456223" y="287.58" style="fill: #91aaa6; stroke: #ffffff; stroke-width: 1.4"/>
     <use xlink:href="#m436cae02a2" x="183.811386" y="254.58" style="fill: #91aaa6; stroke: #ffffff; stroke-width: 1.4"/>
     <use xlink:href="#m436cae02a2" x="79.456223" y="221.58" style="fill: #91aaa6; stroke: #ffffff; stroke-width: 1.4"/>
     <use xlink:href="#m436cae02a2" x="183.811386" y="188.58" style="fill: #91aaa6; stroke: #ffffff; stroke-width: 1.4"/>
     <use xlink:href="#m436cae02a2" x="79.456223" y="155.58" style="fill: #91aaa6; stroke: #ffffff; stroke-width: 1.4"/>
     <use xlink:href="#m436cae02a2" x="183.811386" y="122.58" style="fill: #91aaa6; stroke: #ffffff; stroke-width: 1.4"/>
     <use xlink:href="#m436cae02a2" x="79.456223" y="89.58" style="fill: #91aaa6; stroke: #ffffff; stroke-width: 1.4"/>
     <use xlink:href="#m436cae02a2" x="183.811386" y="56.58" style="fill: #91aaa6; stroke: #ffffff; stroke-width: 1.4"/>
     <use xlink:href="#m436cae02a2" x="79.456223" y="23.58" style="fill: #91aaa6; stroke: #ffffff; stroke-width: 1.4"/>
     <use xlink:href="#m436cae02a2" x="392.521712" y="320.58" style="fill: #91aaa6; stroke: #ffffff; stroke-width: 1.4"/>
     <use xlink:href="#m436cae02a2" x="288.166549" y="287.58" style="fill: #91aaa6; stroke: #ffffff; stroke-width: 1.4"/>
     <use xlink:href="#m436cae02a2" x="392.521712" y="254.58" style="fill: #91aaa6; stroke: #ffffff; stroke-width: 1.4"/>
     <use xlink:href="#m436cae02a2" x="288.166549" y="221.58" style="fill: #91aaa6; stroke: #ffffff; stroke-width: 1.4"/>
     <use xlink:href="#m436cae02a2" x="392.521712" y="188.58" style="fill: #91aaa6; stroke: #ffffff; stroke-width: 1.4"/>
     <use xlink:href="#m436cae02a2" x="288.166549" y="155.58" style="fill: #91aaa6; stroke: #ffffff; stroke-width: 1.4"/>
     <use xlink:href="#m436cae02a2" x="392.521712" y="122.58" style="fill: #91aaa6; stroke: #ffffff; stroke-width: 1.4"/>
     <use xlink:href="#m436cae02a2" x="288.166549" y="89.58" style="fill: #91aaa6; stroke: #ffffff; stroke-width: 1.4"/>
     <use xlink:href="#m436cae02a2" x="392.521712" y="56.58" style="fill: #91aaa6; stroke: #ffffff; stroke-width: 1.4"/>
     <use xlink:href="#m436cae02a2" x="288.166549" y="23.58" style="fill: #91aaa6; stroke: #ffffff; stroke-width: 1.4"/>
    </g>
   </g>
   <g id="PathCollection_4">
    <defs>
     <path id="maa7a1e7612" d="M 0 6.480741
C 1.718713 6.480741 3.367262 5.797889 4.582576 4.582576
C 5.797889 3.367262 6.480741 1.718713 6.480741 0
C 6.480741 -1.718713 5.797889 -3.367262 4.582576 -4.582576
C 3.367262 -5.797889 1.718713 -6.480741 0 -6.480741
C -1.718713 -6.480741 -3.367262 -5.797889 -4.582576 -4.582576
C -5.797889 -3.367262 -6.480741 -1.718713 -6.480741 0
C -6.480741 1.718713 -5.797889 3.367262 -4.582576 4.582576
C -3.367262 5.797889 -1.718713 6.480741 0 6.480741
z
" style="stroke: #ffffff; stroke-width: 1.4"/>
    </defs>
    <g clip-path="url(#pc7cd6314c0)">
     <use xlink:href="#maa7a1e7612" x="121.198288" y="320.58" style="fill: #176b72; stroke: #ffffff; stroke-width: 1.4"/>
     <use xlink:href="#maa7a1e7612" x="225.553451" y="287.58" style="fill: #176b72; stroke: #ffffff; stroke-width: 1.4"/>
     <use xlink:href="#maa7a1e7612" x="121.198288" y="254.58" style="fill: #176b72; stroke: #ffffff; stroke-width: 1.4"/>
     <use xlink:href="#maa7a1e7612" x="225.553451" y="221.58" style="fill: #176b72; stroke: #ffffff; stroke-width: 1.4"/>
     <use xlink:href="#maa7a1e7612" x="121.198288" y="188.58" style="fill: #176b72; stroke: #ffffff; stroke-width: 1.4"/>
     <use xlink:href="#maa7a1e7612" x="225.553451" y="155.58" style="fill: #176b72; stroke: #ffffff; stroke-width: 1.4"/>
     <use xlink:href="#maa7a1e7612" x="121.198288" y="122.58" style="fill: #176b72; stroke: #ffffff; stroke-width: 1.4"/>
     <use xlink:href="#maa7a1e7612" x="225.553451" y="89.58" style="fill: #176b72; stroke: #ffffff; stroke-width: 1.4"/>
     <use xlink:href="#maa7a1e7612" x="121.198288" y="56.58" style="fill: #176b72; stroke: #ffffff; stroke-width: 1.4"/>
     <use xlink:href="#maa7a1e7612" x="225.553451" y="23.58" style="fill: #176b72; stroke: #ffffff; stroke-width: 1.4"/>
     <use xlink:href="#maa7a1e7612" x="329.908614" y="320.58" style="fill: #176b72; stroke: #ffffff; stroke-width: 1.4"/>
     <use xlink:href="#maa7a1e7612" x="434.263777" y="287.58" style="fill: #176b72; stroke: #ffffff; stroke-width: 1.4"/>
     <use xlink:href="#maa7a1e7612" x="329.908614" y="254.58" style="fill: #176b72; stroke: #ffffff; stroke-width: 1.4"/>
     <use xlink:href="#maa7a1e7612" x="434.263777" y="221.58" style="fill: #176b72; stroke: #ffffff; stroke-width: 1.4"/>
     <use xlink:href="#maa7a1e7612" x="329.908614" y="188.58" style="fill: #176b72; stroke: #ffffff; stroke-width: 1.4"/>
     <use xlink:href="#maa7a1e7612" x="434.263777" y="155.58" style="fill: #176b72; stroke: #ffffff; stroke-width: 1.4"/>
     <use xlink:href="#maa7a1e7612" x="329.908614" y="122.58" style="fill: #176b72; stroke: #ffffff; stroke-width: 1.4"/>
     <use xlink:href="#maa7a1e7612" x="434.263777" y="89.58" style="fill: #176b72; stroke: #ffffff; stroke-width: 1.4"/>
     <use xlink:href="#maa7a1e7612" x="329.908614" y="56.58" style="fill: #176b72; stroke: #ffffff; stroke-width: 1.4"/>
     <use xlink:href="#maa7a1e7612" x="434.263777" y="23.58" style="fill: #176b72; stroke: #ffffff; stroke-width: 1.4"/>
    </g>
   </g>
   <g id="line2d_1">
    <path d="M 58.585191 254.58
L 267.295516 254.58
L 267.295516 188.58
L 58.585191 188.58
L 58.585191 254.58
" clip-path="url(#pc7cd6314c0)" style="fill: none; stroke: #173033; stroke-width: 1.6; stroke-linecap: square"/>
   </g>
   <g id="patch_2">
    <path d="M 75.282017 254.58
Q 162.940353 254.58 249.201148 254.58
" style="fill: none; stroke: #173033; stroke-width: 1.25; stroke-linecap: round"/>
    <path d="M 245.201148 252.58
L 249.201148 254.58
L 245.201148 256.58
z
" style="fill: #173033; stroke: #173033; stroke-width: 1.25; stroke-linecap: round"/>
   </g>
   <g id="patch_3">
    <path d="M 58.585191 249.3
Q 58.585191 221.58 58.585191 195.257542
" style="fill: none; stroke: #173033; stroke-width: 1.25; stroke-linecap: round"/>
    <path d="M 56.585191 199.257542
L 58.585191 195.257542
L 60.585191 199.257542
z
" style="fill: #173033; stroke: #173033; stroke-width: 1.25; stroke-linecap: round"/>
   </g>
   <g id="text_1">
    <!-- $\mathbf{a}_1$ -->
    <g style="fill: #173033" transform="translate(152.966147 252.500313)">
     <text>
      <tspan x="0" y="-0.40625" style="font-weight: 700; font-size: 10px; font-family: 'DejaVu Sans'; fill: #173033">a</tspan>
      <tspan x="6.84375" y="1.234375" style="font-size: 7px; font-family: 'DejaVu Sans'; fill: #173033">1</tspan>
     </text>
    </g>
   </g>
   <g id="text_2">
    <!-- $\mathbf{a}_2$ -->
    <g style="fill: #173033" transform="translate(46.985191 225.659375)">
     <text>
      <tspan x="0" y="-0.40625" style="font-weight: 700; font-size: 10px; font-family: 'DejaVu Sans'; fill: #173033">a</tspan>
      <tspan x="6.84375" y="1.234375" style="font-size: 7px; font-family: 'DejaVu Sans'; fill: #173033">2</tspan>
     </text>
    </g>
   </g>
   <g id="PathCollection_5">
    <defs>
     <path id="me1f2d3b17a" d="M 0 8.291562
C 2.198948 8.291562 4.308129 7.417911 5.86302 5.86302
C 7.417911 4.308129 8.291562 2.198948 8.291562 0
C 8.291562 -2.198948 7.417911 -4.308129 5.86302 -5.86302
C 4.308129 -7.417911 2.198948 -8.291562 0 -8.291562
C -2.198948 -8.291562 -4.308129 -7.417911 -5.86302 -5.86302
C -7.417911 -4.308129 -8.291562 -2.198948 -8.291562 0
C -8.291562 2.198948 -7.417911 4.308129 -5.86302 5.86302
C -4.308129 7.417911 -2.198948 8.291562 0 8.291562
z
" style="stroke: #ffffff; stroke-width: 2.4"/>
    </defs>
    <g clip-path="url(#pc7cd6314c0)">
     <use xlink:href="#me1f2d3b17a" x="142.069321" y="221.58" style="fill: #a96824; stroke: #ffffff; stroke-width: 2.4"/>
    </g>
   </g>
   <g id="PathCollection_6">
    <g clip-path="url(#pc7cd6314c0)">
     <use xlink:href="#me1f2d3b17a" x="121.198288" y="254.58" style="fill: #a96824; stroke: #ffffff; stroke-width: 2.4"/>
    </g>
   </g>
   <g id="PathCollection_7">
    <g clip-path="url(#pc7cd6314c0)">
     <use xlink:href="#me1f2d3b17a" x="79.456223" y="221.58" style="fill: #a96824; stroke: #ffffff; stroke-width: 2.4"/>
    </g>
   </g>
   <g id="PathCollection_8">
    <g clip-path="url(#pc7cd6314c0)">
     <use xlink:href="#me1f2d3b17a" x="121.198288" y="221.58" style="fill: #a96824; stroke: #ffffff; stroke-width: 2.4"/>
    </g>
   </g>
   <g id="PathCollection_9">
    <g clip-path="url(#pc7cd6314c0)">
     <use xlink:href="#me1f2d3b17a" x="79.456223" y="254.58" style="fill: #a96824; stroke: #ffffff; stroke-width: 2.4"/>
    </g>
   </g>
   <g id="PathCollection_10">
    <g clip-path="url(#pc7cd6314c0)">
     <use xlink:href="#me1f2d3b17a" x="100.327256" y="238.08" style="fill: #a96824; stroke: #ffffff; stroke-width: 2.4"/>
    </g>
   </g>
   <g id="PathCollection_11">
    <g clip-path="url(#pc7cd6314c0)">
     <use xlink:href="#me1f2d3b17a" x="152.504837" y="221.58" style="fill: #a96824; stroke: #ffffff; stroke-width: 2.4"/>
    </g>
   </g>
   <g id="text_3">
    <text style="font-weight: 700; font-size: 10px; font-family: 'DejaVu Sans'; text-anchor: middle; fill: #ffffff" x="142.069321" y="224.339375" transform="rotate(-0 142.069321 224.339375)">1</text>
   </g>
   <g id="text_4">
    <text style="font-weight: 700; font-size: 10px; font-family: 'DejaVu Sans'; text-anchor: middle; fill: #ffffff" x="121.198288" y="257.339375" transform="rotate(-0 121.198288 257.339375)">2</text>
   </g>
   <g id="text_5">
    <text style="font-weight: 700; font-size: 10px; font-family: 'DejaVu Sans'; text-anchor: middle; fill: #ffffff" x="79.456223" y="224.339375" transform="rotate(-0 79.456223 224.339375)">3</text>
   </g>
   <g id="text_6">
    <text style="font-weight: 700; font-size: 10px; font-family: 'DejaVu Sans'; text-anchor: middle; fill: #ffffff" x="121.198288" y="224.339375" transform="rotate(-0 121.198288 224.339375)">4</text>
   </g>
   <g id="text_7">
    <text style="font-weight: 700; font-size: 10px; font-family: 'DejaVu Sans'; text-anchor: middle; fill: #ffffff" x="79.456223" y="257.339375" transform="rotate(-0 79.456223 257.339375)">5</text>
   </g>
   <g id="text_8">
    <text style="font-weight: 700; font-size: 10px; font-family: 'DejaVu Sans'; text-anchor: middle; fill: #ffffff" x="100.327256" y="240.839375" transform="rotate(-0 100.327256 240.839375)">6</text>
   </g>
   <g id="text_9">
    <text style="font-weight: 700; font-size: 10px; font-family: 'DejaVu Sans'; text-anchor: middle; fill: #ffffff" x="152.504837" y="224.339375" transform="rotate(-0 152.504837 224.339375)">7</text>
   </g>
  </g>
 </g>
 <defs>
  <clipPath id="pc7cd6314c0">
   <rect x="5.76" y="5.76" width="502.2" height="332.64"/>
  </clipPath>
 </defs>
</svg>
