<?xml version="1.0" encoding="utf-8" standalone="no"?>
<!DOCTYPE svg PUBLIC "-//W3C//DTD SVG 1.1//EN"
  "http://www.w3.org/Graphics/SVG/1.1/DTD/svg11.dtd">
<svg xmlns:xlink="http://www.w3.org/1999/xlink" width="513.72pt" height="344.16pt" viewBox="0 0 513.72 344.16" xmlns="http://www.w3.org/2000/svg" version="1.1">
 <metadata>
  <rdf:RDF xmlns:dc="http://purl.org/dc/elements/1.1/" xmlns:cc="http://creativecommons.org/ns#" xmlns:rdf="http://www.w3.org/1999/02/22-rdf-syntax-ns#">
   <cc:Work>
    <dc:type rdf:resource="http://purl.org/dc/dcmitype/StillImage"/>
    <dc:format>image/svg+xml</dc:format>
    <dc:creator>
     <cc:Agent>
      <dc:title>tools/generate_surface_figures.py</dc:title>
     </cc:Agent>
    </dc:creator>
   </cc:Work>
  </rdf:RDF>
 </metadata>
 <defs>
  <style type="text/css">*{stroke-linejoin: round; stroke-linecap: butt}</style>
 </defs>
 <g id="figure_1">
  <g id="patch_1">
   <path d="M 0 344.16
L 513.72 344.16
L 513.72 0
L 0 0
z
" style="fill: #ffffff"/>
  </g>
  <g id="axes_1">
   <g id="line2d_1">
    <path d="M 131.821203 134.955
L 165.922693 162.79875
" clip-path="url(#pc7cd6314c0)" style="fill: none; stroke: #bfd0cb; stroke-width: 1.15; stroke-linecap: square"/>
   </g>
   <g id="line2d_2">
    <path d="M 165.922693 162.79875
L 200.024183 190.6425
" clip-path="url(#pc7cd6314c0)" style="fill: none; stroke: #bfd0cb; stroke-width: 1.15; stroke-linecap: square"/>
   </g>
   <g id="line2d_3">
    <path d="M 177.289857 79.2675
L 211.391347 107.11125
" clip-path="url(#pc7cd6314c0)" style="fill: none; stroke: #bfd0cb; stroke-width: 1.15; stroke-linecap: square"/>
   </g>
   <g id="line2d_4">
    <path d="M 211.391347 107.11125
L 245.492837 134.955
" clip-path="url(#pc7cd6314c0)" style="fill: none; stroke: #bfd0cb; stroke-width: 1.15; stroke-linecap: square"/>
   </g>
   <g id="line2d_5">
    <path d="M 222.75851 23.58
L 256.86 51.42375
" clip-path="url(#pc7cd6314c0)" style="fill: none; stroke: #bfd0cb; stroke-width: 1.15; stroke-linecap: square"/>
   </g>
   <g id="line2d_6">
    <path d="M 256.86 51.42375
L 290.96149 79.2675
" clip-path="url(#pc7cd6314c0)" style="fill: none; stroke: #bfd0cb; stroke-width: 1.15; stroke-linecap: square"/>
   </g>
   <g id="line2d_7">
    <path d="M 200.024183 190.6425
L 234.125673 218.48625
" clip-path="url(#pc7cd6314c0)" style="fill: none; stroke: #bfd0cb; stroke-width: 1.15; stroke-linecap: square"/>
   </g>
   <g id="line2d_8">
    <path d="M 234.125673 218.48625
L 268.227163 246.33
" clip-path="url(#pc7cd6314c0)" style="fill: none; stroke: #bfd0cb; stroke-width: 1.15; stroke-linecap: square"/>
   </g>
   <g id="line2d_9">
    <path d="M 245.492837 134.955
L 279.594327 162.79875
" clip-path="url(#pc7cd6314c0)" style="fill: none; stroke: #bfd0cb; stroke-width: 1.15; stroke-linecap: square"/>
   </g>
   <g id="line2d_10">
    <path d="M 279.594327 162.79875
L 313.695817 190.6425
" clip-path="url(#pc7cd6314c0)" style="fill: none; stroke: #bfd0cb; stroke-width: 1.15; stroke-linecap: square"/>
   </g>
   <g id="line2d_11">
    <path d="M 290.96149 79.2675
L 325.06298 107.11125
" clip-path="url(#pc7cd6314c0)" style="fill: none; stroke: #bfd0cb; stroke-width: 1.15; stroke-linecap: square"/>
   </g>
   <g id="line2d_12">
    <path d="M 325.06298 107.11125
L 359.16447 134.955
" clip-path="url(#pc7cd6314c0)" style="fill: none; stroke: #bfd0cb; stroke-width: 1.15; stroke-linecap: square"/>
   </g>
   <g id="line2d_13">
    <path d="M 268.227163 246.33
L 302.328653 274.17375
" clip-path="url(#pc7cd6314c0)" style="fill: none; stroke: #bfd0cb; stroke-width: 1.15; stroke-linecap: square"/>
   </g>
   <g id="line2d_14">
    <path d="M 313.695817 190.6425
L 347.797307 218.48625
" clip-path="url(#pc7cd6314c0)" style="fill: none; stroke: #bfd0cb; stroke-width: 1.15; stroke-linecap: square"/>
   </g>
   <g id="line2d_15">
    <path d="M 359.16447 134.955
L 393.26596 162.79875
" clip-path="url(#pc7cd6314c0)" style="fill: none; stroke: #bfd0cb; stroke-width: 1.15; stroke-linecap: square"/>
   </g>
   <g id="PathCollection_1">
    <defs>
     <path id="m818f9cbcf1" d="M 0 4.1833
C 1.109424 4.1833 2.173559 3.742521 2.95804 2.95804
C 3.742521 2.173559 4.1833 1.109424 4.1833 0
C 4.1833 -1.109424 3.742521 -2.173559 2.95804 -2.95804
C 2.173559 -3.742521 1.109424 -4.1833 0 -4.1833
C -1.109424 -4.1833 -2.173559 -3.742521 -2.95804 -2.95804
C -3.742521 -2.173559 -4.1833 -1.109424 -4.1833 0
C -4.1833 1.109424 -3.742521 2.173559 -2.95804 2.95804
C -2.173559 3.742521 -1.109424 4.1833 0 4.1833
z
" style="stroke: #ffffff; stroke-width: 1.4"/>
    </defs>
    <g clip-path="url(#pc7cd6314c0)">
     <use xlink:href="#m818f9cbcf1" x="109.086877" y="162.79875" style="fill: #e9efeb; stroke: #ffffff; stroke-width: 1.4"/>
     <use xlink:href="#m818f9cbcf1" x="143.188367" y="190.6425" style="fill: #e9efeb; stroke: #ffffff; stroke-width: 1.4"/>
     <use xlink:href="#m818f9cbcf1" x="154.55553" y="107.11125" style="fill: #e9efeb; stroke: #ffffff; stroke-width: 1.4"/>
     <use xlink:href="#m818f9cbcf1" x="188.65702" y="134.955" style="fill: #e9efeb; stroke: #ffffff; stroke-width: 1.4"/>
     <use xlink:href="#m818f9cbcf1" x="200.024183" y="51.42375" style="fill: #e9efeb; stroke: #ffffff; stroke-width: 1.4"/>
     <use xlink:href="#m818f9cbcf1" x="234.125673" y="79.2675" style="fill: #e9efeb; stroke: #ffffff; stroke-width: 1.4"/>
     <use xlink:href="#m818f9cbcf1" x="177.289857" y="218.48625" style="fill: #e9efeb; stroke: #ffffff; stroke-width: 1.4"/>
     <use xlink:href="#m818f9cbcf1" x="211.391347" y="246.33" style="fill: #e9efeb; stroke: #ffffff; stroke-width: 1.4"/>
     <use xlink:href="#m818f9cbcf1" x="222.75851" y="162.79875" style="fill: #e9efeb; stroke: #ffffff; stroke-width: 1.4"/>
     <use xlink:href="#m818f9cbcf1" x="256.86" y="190.6425" style="fill: #e9efeb; stroke: #ffffff; stroke-width: 1.4"/>
     <use xlink:href="#m818f9cbcf1" x="268.227163" y="107.11125" style="fill: #e9efeb; stroke: #ffffff; stroke-width: 1.4"/>
     <use xlink:href="#m818f9cbcf1" x="302.328653" y="134.955" style="fill: #e9efeb; stroke: #ffffff; stroke-width: 1.4"/>
     <use xlink:href="#m818f9cbcf1" x="245.492837" y="274.17375" style="fill: #e9efeb; stroke: #ffffff; stroke-width: 1.4"/>
     <use xlink:href="#m818f9cbcf1" x="279.594327" y="302.0175" style="fill: #e9efeb; stroke: #ffffff; stroke-width: 1.4"/>
     <use xlink:href="#m818f9cbcf1" x="290.96149" y="218.48625" style="fill: #e9efeb; stroke: #ffffff; stroke-width: 1.4"/>
     <use xlink:href="#m818f9cbcf1" x="325.06298" y="246.33" style="fill: #e9efeb; stroke: #ffffff; stroke-width: 1.4"/>
     <use xlink:href="#m818f9cbcf1" x="336.430143" y="162.79875" style="fill: #e9efeb; stroke: #ffffff; stroke-width: 1.4"/>
     <use xlink:href="#m818f9cbcf1" x="370.531633" y="190.6425" style="fill: #e9efeb; stroke: #ffffff; stroke-width: 1.4"/>
    </g>
   </g>
   <g id="PathCollection_2">
    <defs>
     <path id="meb2796108a" d="M 0 4.84768
C 1.28562 4.84768 2.518757 4.336898 3.427827 3.427827
C 4.336898 2.518757 4.84768 1.28562 4.84768 0
C 4.84768 -1.28562 4.336898 -2.518757 3.427827 -3.427827
C 2.518757 -4.336898 1.28562 -4.84768 0 -4.84768
C -1.28562 -4.84768 -2.518757 -4.336898 -3.427827 -3.427827
C -4.336898 -2.518757 -4.84768 -1.28562 -4.84768 0
C -4.84768 1.28562 -4.336898 2.518757 -3.427827 3.427827
C -2.518757 4.336898 -1.28562 4.84768 0 4.84768
z
" style="stroke: #ffffff; stroke-width: 1.4"/>
    </defs>
    <g clip-path="url(#pc7cd6314c0)">
     <use xlink:href="#meb2796108a" x="177.289857" y="172.08" style="fill: #d4dfda; stroke: #ffffff; stroke-width: 1.4"/>
     <use xlink:href="#meb2796108a" x="143.188367" y="144.23625" style="fill: #d4dfda; stroke: #ffffff; stroke-width: 1.4"/>
     <use xlink:href="#meb2796108a" x="222.75851" y="116.3925" style="fill: #d4dfda; stroke: #ffffff; stroke-width: 1.4"/>
     <use xlink:href="#meb2796108a" x="188.65702" y="88.54875" style="fill: #d4dfda; stroke: #ffffff; stroke-width: 1.4"/>
     <use xlink:href="#meb2796108a" x="268.227163" y="60.705" style="fill: #d4dfda; stroke: #ffffff; stroke-width: 1.4"/>
     <use xlink:href="#meb2796108a" x="234.125673" y="32.86125" style="fill: #d4dfda; stroke: #ffffff; stroke-width: 1.4"/>
     <use xlink:href="#meb2796108a" x="245.492837" y="227.7675" style="fill: #d4dfda; stroke: #ffffff; stroke-width: 1.4"/>
     <use xlink:href="#meb2796108a" x="211.391347" y="199.92375" style="fill: #d4dfda; stroke: #ffffff; stroke-width: 1.4"/>
     <use xlink:href="#meb2796108a" x="290.96149" y="172.08" style="fill: #d4dfda; stroke: #ffffff; stroke-width: 1.4"/>
     <use xlink:href="#meb2796108a" x="256.86" y="144.23625" style="fill: #d4dfda; stroke: #ffffff; stroke-width: 1.4"/>
     <use xlink:href="#meb2796108a" x="336.430143" y="116.3925" style="fill: #d4dfda; stroke: #ffffff; stroke-width: 1.4"/>
     <use xlink:href="#meb2796108a" x="302.328653" y="88.54875" style="fill: #d4dfda; stroke: #ffffff; stroke-width: 1.4"/>
     <use xlink:href="#meb2796108a" x="313.695817" y="283.455" style="fill: #d4dfda; stroke: #ffffff; stroke-width: 1.4"/>
     <use xlink:href="#meb2796108a" x="279.594327" y="255.61125" style="fill: #d4dfda; stroke: #ffffff; stroke-width: 1.4"/>
     <use xlink:href="#meb2796108a" x="359.16447" y="227.7675" style="fill: #d4dfda; stroke: #ffffff; stroke-width: 1.4"/>
     <use xlink:href="#meb2796108a" x="325.06298" y="199.92375" style="fill: #d4dfda; stroke: #ffffff; stroke-width: 1.4"/>
     <use xlink:href="#meb2796108a" x="404.633123" y="172.08" style="fill: #d4dfda; stroke: #ffffff; stroke-width: 1.4"/>
     <use xlink:href="#meb2796108a" x="370.531633" y="144.23625" style="fill: #d4dfda; stroke: #ffffff; stroke-width: 1.4"/>
    </g>
   </g>
   <g id="PathCollection_3">
    <defs>
     <path id="m436cae02a2" d="M 0 5.59017
C 1.48253 5.59017 2.90454 5.001154 3.952847 3.952847
C 5.001154 2.90454 5.59017 1.48253 5.59017 0
C 5.59017 -1.48253 5.001154 -2.90454 3.952847 -3.952847
C 2.90454 -5.001154 1.48253 -5.59017 0 -5.59017
C -1.48253 -5.59017 -2.90454 -5.001154 -3.952847 -3.952847
C -5.001154 -2.90454 -5.59017 -1.48253 -5.59017 0
C -5.59017 1.48253 -5.001154 2.90454 -3.952847 3.952847
C -2.90454 5.001154 -1.48253 5.59017 0 5.59017
z
" style="stroke: #ffffff; stroke-width: 1.4"/>
    </defs>
    <g clip-path="url(#pc7cd6314c0)">
     <use xlink:href="#m436cae02a2" x="131.821203" y="181.36125" style="fill: #91aaa6; stroke: #ffffff; stroke-width: 1.4"/>
     <use xlink:href="#m436cae02a2" x="165.922693" y="209.205" style="fill: #91aaa6; stroke: #ffffff; stroke-width: 1.4"/>
     <use xlink:href="#m436cae02a2" x="177.289857" y="125.67375" style="fill: #91aaa6; stroke: #ffffff; stroke-width: 1.4"/>
     <use xlink:href="#m436cae02a2" x="211.391347" y="153.5175" style="fill: #91aaa6; stroke: #ffffff; stroke-width: 1.4"/>
     <use xlink:href="#m436cae02a2" x="222.75851" y="69.98625" style="fill: #91aaa6; stroke: #ffffff; stroke-width: 1.4"/>
     <use xlink:href="#m436cae02a2" x="256.86" y="97.83" style="fill: #91aaa6; stroke: #ffffff; stroke-width: 1.4"/>
     <use xlink:href="#m436cae02a2" x="200.024183" y="237.04875" style="fill: #91aaa6; stroke: #ffffff; stroke-width: 1.4"/>
     <use xlink:href="#m436cae02a2" x="234.125673" y="264.8925" style="fill: #91aaa6; stroke: #ffffff; stroke-width: 1.4"/>
     <use xlink:href="#m436cae02a2" x="245.492837" y="181.36125" style="fill: #91aaa6; stroke: #ffffff; stroke-width: 1.4"/>
     <use xlink:href="#m436cae02a2" x="279.594327" y="209.205" style="fill: #91aaa6; stroke: #ffffff; stroke-width: 1.4"/>
     <use xlink:href="#m436cae02a2" x="290.96149" y="125.67375" style="fill: #91aaa6; stroke: #ffffff; stroke-width: 1.4"/>
     <use xlink:href="#m436cae02a2" x="325.06298" y="153.5175" style="fill: #91aaa6; stroke: #ffffff; stroke-width: 1.4"/>
     <use xlink:href="#m436cae02a2" x="268.227163" y="292.73625" style="fill: #91aaa6; stroke: #ffffff; stroke-width: 1.4"/>
     <use xlink:href="#m436cae02a2" x="302.328653" y="320.58" style="fill: #91aaa6; stroke: #ffffff; stroke-width: 1.4"/>
     <use xlink:href="#m436cae02a2" x="313.695817" y="237.04875" style="fill: #91aaa6; stroke: #ffffff; stroke-width: 1.4"/>
     <use xlink:href="#m436cae02a2" x="347.797307" y="264.8925" style="fill: #91aaa6; stroke: #ffffff; stroke-width: 1.4"/>
     <use xlink:href="#m436cae02a2" x="359.16447" y="181.36125" style="fill: #91aaa6; stroke: #ffffff; stroke-width: 1.4"/>
     <use xlink:href="#m436cae02a2" x="393.26596" y="209.205" style="fill: #91aaa6; stroke: #ffffff; stroke-width: 1.4"/>
    </g>
   </g>
   <g id="PathCollection_4">
    <defs>
     <path id="maa7a1e7612" d="M 0 6.480741
C 1.718713 6.480741 3.367262 5.797889 4.582576 4.582576
C 5.797889 3.367262 6.480741 1.718713 6.480741 0
C 6.480741 -1.718713 5.797889 -3.367262 4.582576 -4.582576
C 3.367262 -5.797889 1.718713 -6.480741 0 -6.480741
C -1.718713 -6.480741 -3.367262 -5.797889 -4.582576 -4.582576
C -5.797889 -3.367262 -6.480741 -1.718713 -6.480741 0
C -6.480741 1.718713 -5.797889 3.367262 -4.582576 4.582576
C -3.367262 5.797889 -1.718713 6.480741 0 6.480741
z
" style="stroke: #ffffff; stroke-width: 1.4"/>
    </defs>
    <g clip-path="url(#pc7cd6314c0)">
     <use xlink:href="#maa7a1e7612" x="131.821203" y="134.955" style="fill: #176b72; stroke: #ffffff; stroke-width: 1.4"/>
     <use xlink:href="#maa7a1e7612" x="165.922693" y="162.79875" style="fill: #176b72; stroke: #ffffff; stroke-width: 1.4"/>
     <use xlink:href="#maa7a1e7612" x="177.289857" y="79.2675" style="fill: #176b72; stroke: #ffffff; stroke-width: 1.4"/>
     <use xlink:href="#maa7a1e7612" x="211.391347" y="107.11125" style="fill: #176b72; stroke: #ffffff; stroke-width: 1.4"/>
     <use xlink:href="#maa7a1e7612" x="222.75851" y="23.58" style="fill: #176b72; stroke: #ffffff; stroke-width: 1.4"/>
     <use xlink:href="#maa7a1e7612" x="256.86" y="51.42375" style="fill: #176b72; stroke: #ffffff; stroke-width: 1.4"/>
     <use xlink:href="#maa7a1e7612" x="200.024183" y="190.6425" style="fill: #176b72; stroke: #ffffff; stroke-width: 1.4"/>
     <use xlink:href="#maa7a1e7612" x="234.125673" y="218.48625" style="fill: #176b72; stroke: #ffffff; stroke-width: 1.4"/>
     <use xlink:href="#maa7a1e7612" x="245.492837" y="134.955" style="fill: #176b72; stroke: #ffffff; stroke-width: 1.4"/>
     <use xlink:href="#maa7a1e7612" x="279.594327" y="162.79875" style="fill: #176b72; stroke: #ffffff; stroke-width: 1.4"/>
     <use xlink:href="#maa7a1e7612" x="290.96149" y="79.2675" style="fill: #176b72; stroke: #ffffff; stroke-width: 1.4"/>
     <use xlink:href="#maa7a1e7612" x="325.06298" y="107.11125" style="fill: #176b72; stroke: #ffffff; stroke-width: 1.4"/>
     <use xlink:href="#maa7a1e7612" x="268.227163" y="246.33" style="fill: #176b72; stroke: #ffffff; stroke-width: 1.4"/>
     <use xlink:href="#maa7a1e7612" x="302.328653" y="274.17375" style="fill: #176b72; stroke: #ffffff; stroke-width: 1.4"/>
     <use xlink:href="#maa7a1e7612" x="313.695817" y="190.6425" style="fill: #176b72; stroke: #ffffff; stroke-width: 1.4"/>
     <use xlink:href="#maa7a1e7612" x="347.797307" y="218.48625" style="fill: #176b72; stroke: #ffffff; stroke-width: 1.4"/>
     <use xlink:href="#maa7a1e7612" x="359.16447" y="134.955" style="fill: #176b72; stroke: #ffffff; stroke-width: 1.4"/>
     <use xlink:href="#maa7a1e7612" x="393.26596" y="162.79875" style="fill: #176b72; stroke: #ffffff; stroke-width: 1.4"/>
    </g>
   </g>
   <g id="line2d_16">
    <path d="M 109.086877 162.79875
L 177.289857 218.48625
L 222.75851 162.79875
L 154.55553 107.11125
L 109.086877 162.79875
" clip-path="url(#pc7cd6314c0)" style="fill: none; stroke: #173033; stroke-width: 1.6; stroke-linecap: square"/>
   </g>
   <g id="patch_2">
    <path d="M 114.543115 167.25375
Q 143.188367 190.6425 170.751086 213.147367
" style="fill: none; stroke: #173033; stroke-width: 1.25; stroke-linecap: round"/>
    <path d="M 168.917611 209.068351
L 170.751086 213.147367
L 166.387789 212.166738
z
" style="fill: #173033; stroke: #173033; stroke-width: 1.25; stroke-linecap: round"/>
   </g>
   <g id="patch_3">
    <path d="M 112.724369 158.34375
Q 131.821203 134.955 150.034154 112.648782
" style="fill: none; stroke: #173033; stroke-width: 1.25; stroke-linecap: round"/>
    <path d="M 145.955139 114.482257
L 150.034154 112.648782
L 149.053525 117.012079
z
" style="fill: #173033; stroke: #173033; stroke-width: 1.25; stroke-linecap: round"/>
   </g>
   <g id="text_1">
    <!-- $\mathbf{a}_1$ -->
    <g style="fill: #173033" transform="translate(136.024307 187.449063)">
     <text>
      <tspan x="0" y="-0.40625" style="font-weight: 700; font-size: 10px; font-family: 'DejaVu Sans'; fill: #173033">a</tspan>
      <tspan x="6.84375" y="1.234375" style="font-size: 7px; font-family: 'DejaVu Sans'; fill: #173033">1</tspan>
     </text>
    </g>
   </g>
   <g id="text_2">
    <!-- $\mathbf{a}_2$ -->
    <g style="fill: #173033" transform="translate(119.31183 138.828125)">
     <text>
      <tspan x="0" y="-0.40625" style="font-weight: 700; font-size: 10px; font-family: 'DejaVu Sans'; fill: #173033">a</tspan>
      <tspan x="6.84375" y="1.234375" style="font-size: 7px; font-family: 'DejaVu Sans'; fill: #173033">2</tspan>
     </text>
    </g>
   </g>
   <g id="PathCollection_5">
    <defs>
     <path id="me1f2d3b17a" d="M 0 8.291562
C 2.198948 8.291562 4.308129 7.417911 5.86302 5.86302
C 7.417911 4.308129 8.291562 2.198948 8.291562 0
C 8.291562 -2.198948 7.417911 -4.308129 5.86302 -5.86302
C 4.308129 -7.417911 2.198948 -8.291562 0 -8.291562
C -2.198948 -8.291562 -4.308129 -7.417911 -5.86302 -5.86302
C -7.417911 -4.308129 -8.291562 -2.198948 -8.291562 0
C -8.291562 2.198948 -7.417911 4.308129 -5.86302 5.86302
C -4.308129 7.417911 -2.198948 8.291562 0 8.291562
z
" style="stroke: #ffffff; stroke-width: 2.4"/>
    </defs>
    <g clip-path="url(#pc7cd6314c0)">
     <use xlink:href="#me1f2d3b17a" x="143.188367" y="144.23625" style="fill: #a96824; stroke: #ffffff; stroke-width: 2.4"/>
    </g>
   </g>
   <g id="PathCollection_6">
    <g clip-path="url(#pc7cd6314c0)">
     <use xlink:href="#me1f2d3b17a" x="131.821203" y="134.955" style="fill: #a96824; stroke: #ffffff; stroke-width: 2.4"/>
    </g>
   </g>
   <g id="PathCollection_7">
    <g clip-path="url(#pc7cd6314c0)">
     <use xlink:href="#me1f2d3b17a" x="131.821203" y="181.36125" style="fill: #a96824; stroke: #ffffff; stroke-width: 2.4"/>
    </g>
   </g>
   <g id="PathCollection_8">
    <g clip-path="url(#pc7cd6314c0)">
     <use xlink:href="#me1f2d3b17a" x="114.770458" y="167.439375" style="fill: #a96824; stroke: #ffffff; stroke-width: 2.4"/>
    </g>
   </g>
   <g id="PathCollection_9">
    <g clip-path="url(#pc7cd6314c0)">
     <use xlink:href="#me1f2d3b17a" x="148.871948" y="148.876875" style="fill: #a96824; stroke: #ffffff; stroke-width: 2.4"/>
    </g>
   </g>
   <g id="PathCollection_10">
    <g clip-path="url(#pc7cd6314c0)">
     <use xlink:href="#me1f2d3b17a" x="148.871949" y="172.08" style="fill: #a96824; stroke: #ffffff; stroke-width: 2.4"/>
    </g>
   </g>
   <g id="PathCollection_11">
    <g clip-path="url(#pc7cd6314c0)">
     <use xlink:href="#me1f2d3b17a" x="181.078911" y="190.6425" style="fill: #a96824; stroke: #ffffff; stroke-width: 2.4"/>
    </g>
   </g>
   <g id="text_3">
    <text style="font-weight: 700; font-size: 10px; font-family: 'DejaVu Sans'; text-anchor: middle; fill: #ffffff" x="143.188367" y="146.995625" transform="rotate(-0 143.188367 146.995625)">1</text>
   </g>
   <g id="text_4">
    <text style="font-weight: 700; font-size: 10px; font-family: 'DejaVu Sans'; text-anchor: middle; fill: #ffffff" x="131.821203" y="137.714375" transform="rotate(-0 131.821203 137.714375)">2</text>
   </g>
   <g id="text_5">
    <text style="font-weight: 700; font-size: 10px; font-family: 'DejaVu Sans'; text-anchor: middle; fill: #ffffff" x="131.821203" y="184.120625" transform="rotate(-0 131.821203 184.120625)">3</text>
   </g>
   <g id="text_6">
    <text style="font-weight: 700; font-size: 10px; font-family: 'DejaVu Sans'; text-anchor: middle; fill: #ffffff" x="114.770458" y="170.19875" transform="rotate(-0 114.770458 170.19875)">4</text>
   </g>
   <g id="text_7">
    <text style="font-weight: 700; font-size: 10px; font-family: 'DejaVu Sans'; text-anchor: middle; fill: #ffffff" x="148.871948" y="151.63625" transform="rotate(-0 148.871948 151.63625)">5</text>
   </g>
   <g id="text_8">
    <text style="font-weight: 700; font-size: 10px; font-family: 'DejaVu Sans'; text-anchor: middle; fill: #ffffff" x="148.871949" y="174.839375" transform="rotate(-0 148.871949 174.839375)">6</text>
   </g>
   <g id="text_9">
    <text style="font-weight: 700; font-size: 10px; font-family: 'DejaVu Sans'; text-anchor: middle; fill: #ffffff" x="181.078911" y="193.401875" transform="rotate(-0 181.078911 193.401875)">7</text>
   </g>
  </g>
 </g>
 <defs>
  <clipPath id="pc7cd6314c0">
   <rect x="5.76" y="5.76" width="502.2" height="332.64"/>
  </clipPath>
 </defs>
</svg>
