<?xml version="1.0" encoding="utf-8" standalone="no"?>
<!DOCTYPE svg PUBLIC "-//W3C//DTD SVG 1.1//EN"
  "http://www.w3.org/Graphics/SVG/1.1/DTD/svg11.dtd">
<svg xmlns:xlink="http://www.w3.org/1999/xlink" width="457.92pt" height="310.896pt" viewBox="0 0 457.92 310.896" xmlns="http://www.w3.org/2000/svg" version="1.1">
 <metadata>
  <rdf:RDF xmlns:dc="http://purl.org/dc/elements/1.1/" xmlns:cc="http://creativecommons.org/ns#" xmlns:rdf="http://www.w3.org/1999/02/22-rdf-syntax-ns#">
   <cc:Work>
    <dc:type rdf:resource="http://purl.org/dc/dcmitype/StillImage"/>
    <dc:format>image/svg+xml</dc:format>
    <dc:creator>
     <cc:Agent>
      <dc:title>tools/generate_surface_figures.py</dc:title>
     </cc:Agent>
    </dc:creator>
   </cc:Work>
  </rdf:RDF>
 </metadata>
 <defs>
  <style type="text/css">*{stroke-linejoin: round; stroke-linecap: butt}</style>
 </defs>
 <g id="figure_1">
  <g id="patch_1">
   <path d="M 0 310.896
L 457.92 310.896
L 457.92 0
L 0 0
z
" style="fill: #ffffff"/>
  </g>
  <g id="axes_1">
   <g id="line2d_1">
    <path d="M 228.96 289.098
L 359.5725 231.3855
" clip-path="url(#pd591c54c0f)" style="fill: none; stroke: #8ca29e; stroke-width: 1.25; stroke-linecap: square"/>
   </g>
   <g id="line2d_2">
    <path d="M 228.96 289.098
L 98.3475 231.3855
" clip-path="url(#pd591c54c0f)" style="fill: none; stroke: #8ca29e; stroke-width: 1.25; stroke-linecap: square"/>
   </g>
   <g id="line2d_3">
    <path d="M 228.96 289.098
L 228.96 137.223
" clip-path="url(#pd591c54c0f)" style="fill: none; stroke: #8ca29e; stroke-width: 1.25; stroke-linecap: square"/>
   </g>
   <g id="line2d_4">
    <path d="M 359.5725 231.3855
L 228.96 173.673
" clip-path="url(#pd591c54c0f)" style="fill: none; stroke: #8ca29e; stroke-width: 1.25; stroke-linecap: square"/>
   </g>
   <g id="line2d_5">
    <path d="M 359.5725 231.3855
L 359.5725 79.5105
" clip-path="url(#pd591c54c0f)" style="fill: none; stroke: #8ca29e; stroke-width: 1.25; stroke-linecap: square"/>
   </g>
   <g id="line2d_6">
    <path d="M 98.3475 231.3855
L 228.96 173.673
" clip-path="url(#pd591c54c0f)" style="fill: none; stroke: #8ca29e; stroke-width: 1.25; stroke-linecap: square"/>
   </g>
   <g id="line2d_7">
    <path d="M 98.3475 231.3855
L 98.3475 79.5105
" clip-path="url(#pd591c54c0f)" style="fill: none; stroke: #8ca29e; stroke-width: 1.25; stroke-linecap: square"/>
   </g>
   <g id="line2d_8">
    <path d="M 228.96 173.673
L 228.96 21.798
" clip-path="url(#pd591c54c0f)" style="fill: none; stroke: #8ca29e; stroke-width: 1.25; stroke-linecap: square"/>
   </g>
   <g id="line2d_9">
    <path d="M 228.96 137.223
L 359.5725 79.5105
" clip-path="url(#pd591c54c0f)" style="fill: none; stroke: #8ca29e; stroke-width: 1.25; stroke-linecap: square"/>
   </g>
   <g id="line2d_10">
    <path d="M 228.96 137.223
L 98.3475 79.5105
" clip-path="url(#pd591c54c0f)" style="fill: none; stroke: #8ca29e; stroke-width: 1.25; stroke-linecap: square"/>
   </g>
   <g id="line2d_11">
    <path d="M 359.5725 79.5105
L 228.96 21.798
" clip-path="url(#pd591c54c0f)" style="fill: none; stroke: #8ca29e; stroke-width: 1.25; stroke-linecap: square"/>
   </g>
   <g id="line2d_12">
    <path d="M 98.3475 79.5105
L 228.96 21.798
" clip-path="url(#pd591c54c0f)" style="fill: none; stroke: #8ca29e; stroke-width: 1.25; stroke-linecap: square"/>
   </g>
   <g id="patch_2">
    <path d="M 163.65375 108.36675
L 294.26625 108.36675
L 359.5725 231.3855
L 98.3475 231.3855
z
" clip-path="url(#pd591c54c0f)" style="fill: #d85f45; opacity: 0.25; stroke: #d85f45; stroke-width: 2; stroke-linejoin: miter"/>
   </g>
   <g id="text_1">
    <text style="font-weight: 700; font-size: 9px; font-family: 'DejaVu Sans'; text-anchor: start; fill: #173033" x="228.96" y="102.193312" transform="rotate(-0 228.96 102.193312)">  normal</text>
   </g>
   <g id="PathCollection_1">
    <defs>
     <path id="mda5c548ac4" d="M 0 6.020797
C 1.596734 6.020797 3.128285 5.386408 4.257347 4.257347
C 5.386408 3.128285 6.020797 1.596734 6.020797 0
C 6.020797 -1.596734 5.386408 -3.128285 4.257347 -4.257347
C 3.128285 -5.386408 1.596734 -6.020797 0 -6.020797
C -1.596734 -6.020797 -3.128285 -5.386408 -4.257347 -4.257347
C -5.386408 -3.128285 -6.020797 -1.596734 -6.020797 0
C -6.020797 1.596734 -5.386408 3.128285 -4.257347 4.257347
C -3.128285 5.386408 -1.596734 6.020797 0 6.020797
z
" style="stroke: #176b72; stroke-width: 1.6"/>
    </defs>
    <g clip-path="url(#pd591c54c0f)">
     <use xlink:href="#mda5c548ac4" x="228.96" y="289.098" style="fill: #ffffff; stroke: #176b72; stroke-width: 1.6"/>
    </g>
   </g>
   <g id="PathCollection_2">
    <defs>
     <path id="mc8e61d9d1f" d="M 0 6.020797
C 1.596734 6.020797 3.128285 5.386408 4.257347 4.257347
C 5.386408 3.128285 6.020797 1.596734 6.020797 0
C 6.020797 -1.596734 5.386408 -3.128285 4.257347 -4.257347
C 3.128285 -5.386408 1.596734 -6.020797 0 -6.020797
C -1.596734 -6.020797 -3.128285 -5.386408 -4.257347 -4.257347
C -5.386408 -3.128285 -6.020797 -1.596734 -6.020797 0
C -6.020797 1.596734 -5.386408 3.128285 -4.257347 4.257347
C -3.128285 5.386408 -1.596734 6.020797 0 6.020797
z
" style="stroke: #ffffff; stroke-width: 1.6"/>
    </defs>
    <g clip-path="url(#pd591c54c0f)">
     <use xlink:href="#mc8e61d9d1f" x="359.5725" y="231.3855" style="fill: #176b72; stroke: #ffffff; stroke-width: 1.6"/>
    </g>
   </g>
   <g id="PathCollection_3">
    <g clip-path="url(#pd591c54c0f)">
     <use xlink:href="#mc8e61d9d1f" x="98.3475" y="231.3855" style="fill: #176b72; stroke: #ffffff; stroke-width: 1.6"/>
    </g>
   </g>
   <g id="PathCollection_4">
    <g clip-path="url(#pd591c54c0f)">
     <use xlink:href="#mda5c548ac4" x="228.96" y="173.673" style="fill: #ffffff; stroke: #176b72; stroke-width: 1.6"/>
    </g>
   </g>
   <g id="PathCollection_5">
    <g clip-path="url(#pd591c54c0f)">
     <use xlink:href="#mda5c548ac4" x="228.96" y="137.223" style="fill: #ffffff; stroke: #176b72; stroke-width: 1.6"/>
    </g>
   </g>
   <g id="PathCollection_6">
    <g clip-path="url(#pd591c54c0f)">
     <use xlink:href="#mda5c548ac4" x="359.5725" y="79.5105" style="fill: #ffffff; stroke: #176b72; stroke-width: 1.6"/>
    </g>
   </g>
   <g id="PathCollection_7">
    <g clip-path="url(#pd591c54c0f)">
     <use xlink:href="#mda5c548ac4" x="98.3475" y="79.5105" style="fill: #ffffff; stroke: #176b72; stroke-width: 1.6"/>
    </g>
   </g>
   <g id="PathCollection_8">
    <g clip-path="url(#pd591c54c0f)">
     <use xlink:href="#mda5c548ac4" x="228.96" y="21.798" style="fill: #ffffff; stroke: #176b72; stroke-width: 1.6"/>
    </g>
   </g>
   <g id="PathCollection_9">
    <g clip-path="url(#pd591c54c0f)">
     <use xlink:href="#mc8e61d9d1f" x="228.96" y="231.3855" style="fill: #176b72; stroke: #ffffff; stroke-width: 1.6"/>
    </g>
   </g>
   <g id="PathCollection_10">
    <g clip-path="url(#pd591c54c0f)">
     <use xlink:href="#mda5c548ac4" x="228.96" y="79.5105" style="fill: #ffffff; stroke: #176b72; stroke-width: 1.6"/>
    </g>
   </g>
   <g id="PathCollection_11">
    <g clip-path="url(#pd591c54c0f)">
     <use xlink:href="#mda5c548ac4" x="294.26625" y="184.30425" style="fill: #ffffff; stroke: #176b72; stroke-width: 1.6"/>
    </g>
   </g>
   <g id="PathCollection_12">
    <g clip-path="url(#pd591c54c0f)">
     <use xlink:href="#mda5c548ac4" x="163.65375" y="126.59175" style="fill: #ffffff; stroke: #176b72; stroke-width: 1.6"/>
    </g>
   </g>
   <g id="PathCollection_13">
    <g clip-path="url(#pd591c54c0f)">
     <use xlink:href="#mda5c548ac4" x="163.65375" y="184.30425" style="fill: #ffffff; stroke: #176b72; stroke-width: 1.6"/>
    </g>
   </g>
   <g id="PathCollection_14">
    <g clip-path="url(#pd591c54c0f)">
     <use xlink:href="#mda5c548ac4" x="294.26625" y="126.59175" style="fill: #ffffff; stroke: #176b72; stroke-width: 1.6"/>
    </g>
   </g>
   <g id="patch_3">
    <path d="M 228.96 167.876147
Q 228.96 134.793621 228.96 103.723555
" style="fill: none; stroke: #173033; stroke-width: 1.8; stroke-linecap: round"/>
    <path d="M 226.96 107.723555
L 228.96 103.723555
L 230.96 107.723555
z
" style="fill: #173033; stroke: #173033; stroke-width: 1.8; stroke-linecap: round"/>
   </g>
  </g>
 </g>
 <defs>
  <clipPath id="pd591c54c0f">
   <rect x="5.76" y="5.76" width="446.4" height="299.376"/>
  </clipPath>
 </defs>
</svg>
