<?xml version="1.0" encoding="utf-8" standalone="no"?>
<!DOCTYPE svg PUBLIC "-//W3C//DTD SVG 1.1//EN"
  "http://www.w3.org/Graphics/SVG/1.1/DTD/svg11.dtd">
<svg xmlns:xlink="http://www.w3.org/1999/xlink" width="457.92pt" height="288.72pt" viewBox="0 0 457.92 288.72" xmlns="http://www.w3.org/2000/svg" version="1.1">
 <metadata>
  <rdf:RDF xmlns:dc="http://purl.org/dc/elements/1.1/" xmlns:cc="http://creativecommons.org/ns#" xmlns:rdf="http://www.w3.org/1999/02/22-rdf-syntax-ns#">
   <cc:Work>
    <dc:type rdf:resource="http://purl.org/dc/dcmitype/StillImage"/>
    <dc:format>image/svg+xml</dc:format>
    <dc:creator>
     <cc:Agent>
      <dc:title>tools/generate_surface_figures.py</dc:title>
     </cc:Agent>
    </dc:creator>
   </cc:Work>
  </rdf:RDF>
 </metadata>
 <defs>
  <style type="text/css">*{stroke-linejoin: round; stroke-linecap: butt}</style>
 </defs>
 <g id="figure_1">
  <g id="patch_1">
   <path d="M 0 288.72
L 457.92 288.72
L 457.92 0
L 0 0
z
" style="fill: #ffffff"/>
  </g>
  <g id="axes_1">
   <g id="line2d_1">
    <path d="M 5.76 115.159784
L 452.16 115.159784
" clip-path="url(#p948fd671a4)" style="fill: none; stroke-dasharray: 6,6; stroke-dashoffset: 0; stroke: #a96824; stroke-width: 1.5"/>
   </g>
   <g id="PathCollection_1">
    <defs>
     <path id="m22248de17a" d="M 0 4.1833
C 1.109424 4.1833 2.173559 3.742521 2.95804 2.95804
C 3.742521 2.173559 4.1833 1.109424 4.1833 0
C 4.1833 -1.109424 3.742521 -2.173559 2.95804 -2.95804
C 2.173559 -3.742521 1.109424 -4.1833 0 -4.1833
C -1.109424 -4.1833 -2.173559 -3.742521 -2.95804 -2.95804
C -3.742521 -2.173559 -4.1833 -1.109424 -4.1833 0
C -4.1833 1.109424 -3.742521 2.173559 -2.95804 2.95804
C -2.173559 3.742521 -1.109424 4.1833 0 4.1833
z
" style="stroke: #ffffff"/>
    </defs>
    <g clip-path="url(#p948fd671a4)">
     <use xlink:href="#m22248de17a" x="112.785634" y="173.560216" style="fill: #eef2ef; stroke: #ffffff"/>
    </g>
   </g>
   <g id="PathCollection_2">
    <g clip-path="url(#p948fd671a4)">
     <use xlink:href="#m22248de17a" x="40.176656" y="173.560216" style="fill: #eef2ef; stroke: #ffffff"/>
    </g>
   </g>
   <g id="PathCollection_3">
    <g clip-path="url(#p948fd671a4)">
     <use xlink:href="#m22248de17a" x="32.915758" y="173.560216" style="fill: #eef2ef; stroke: #ffffff"/>
    </g>
   </g>
   <g id="PathCollection_4">
    <g clip-path="url(#p948fd671a4)">
     <use xlink:href="#m22248de17a" x="105.524736" y="173.560216" style="fill: #eef2ef; stroke: #ffffff"/>
    </g>
   </g>
   <g id="PathCollection_5">
    <defs>
     <path id="m23e3a15b11" d="M 0 4.387482
C 1.163574 4.387482 2.279647 3.925189 3.102418 3.102418
C 3.925189 2.279647 4.387482 1.163574 4.387482 0
C 4.387482 -1.163574 3.925189 -2.279647 3.102418 -3.102418
C 2.279647 -3.925189 1.163574 -4.387482 0 -4.387482
C -1.163574 -4.387482 -2.279647 -3.925189 -3.102418 -3.102418
C -3.925189 -2.279647 -4.387482 -1.163574 -4.387482 0
C -4.387482 1.163574 -3.925189 2.279647 -3.102418 3.102418
C -2.279647 3.925189 -1.163574 4.387482 0 4.387482
z
" style="stroke: #ffffff"/>
    </defs>
    <g clip-path="url(#p948fd671a4)">
     <use xlink:href="#m23e3a15b11" x="69.220247" y="163.024998" style="fill: #eef2ef; stroke: #ffffff"/>
    </g>
   </g>
   <g id="PathCollection_6">
    <g clip-path="url(#p948fd671a4)">
     <use xlink:href="#m23e3a15b11" x="141.829226" y="163.024998" style="fill: #eef2ef; stroke: #ffffff"/>
    </g>
   </g>
   <g id="PathCollection_7">
    <g clip-path="url(#p948fd671a4)">
     <use xlink:href="#m23e3a15b11" x="134.568328" y="163.024998" style="fill: #eef2ef; stroke: #ffffff"/>
    </g>
   </g>
   <g id="PathCollection_8">
    <g clip-path="url(#p948fd671a4)">
     <use xlink:href="#m23e3a15b11" x="61.959349" y="163.024998" style="fill: #eef2ef; stroke: #ffffff"/>
    </g>
   </g>
   <g id="PathCollection_9">
    <g clip-path="url(#p948fd671a4)">
     <use xlink:href="#m22248de17a" x="258.003591" y="173.560216" style="fill: #eef2ef; stroke: #ffffff"/>
    </g>
   </g>
   <g id="PathCollection_10">
    <g clip-path="url(#p948fd671a4)">
     <use xlink:href="#m22248de17a" x="185.394613" y="173.560216" style="fill: #eef2ef; stroke: #ffffff"/>
    </g>
   </g>
   <g id="PathCollection_11">
    <g clip-path="url(#p948fd671a4)">
     <use xlink:href="#m22248de17a" x="178.133715" y="173.560216" style="fill: #eef2ef; stroke: #ffffff"/>
    </g>
   </g>
   <g id="PathCollection_12">
    <g clip-path="url(#p948fd671a4)">
     <use xlink:href="#m22248de17a" x="250.742694" y="173.560216" style="fill: #eef2ef; stroke: #ffffff"/>
    </g>
   </g>
   <g id="PathCollection_13">
    <g clip-path="url(#p948fd671a4)">
     <use xlink:href="#m23e3a15b11" x="214.438204" y="163.024998" style="fill: #eef2ef; stroke: #ffffff"/>
    </g>
   </g>
   <g id="PathCollection_14">
    <g clip-path="url(#p948fd671a4)">
     <use xlink:href="#m23e3a15b11" x="287.047183" y="163.024998" style="fill: #eef2ef; stroke: #ffffff"/>
    </g>
   </g>
   <g id="PathCollection_15">
    <g clip-path="url(#p948fd671a4)">
     <use xlink:href="#m23e3a15b11" x="279.786285" y="163.024998" style="fill: #eef2ef; stroke: #ffffff"/>
    </g>
   </g>
   <g id="PathCollection_16">
    <g clip-path="url(#p948fd671a4)">
     <use xlink:href="#m23e3a15b11" x="207.177306" y="163.024998" style="fill: #eef2ef; stroke: #ffffff"/>
    </g>
   </g>
   <g id="PathCollection_17">
    <g clip-path="url(#p948fd671a4)">
     <use xlink:href="#m22248de17a" x="403.221548" y="173.560216" style="fill: #eef2ef; stroke: #ffffff"/>
    </g>
   </g>
   <g id="PathCollection_18">
    <g clip-path="url(#p948fd671a4)">
     <use xlink:href="#m22248de17a" x="330.61257" y="173.560216" style="fill: #eef2ef; stroke: #ffffff"/>
    </g>
   </g>
   <g id="PathCollection_19">
    <g clip-path="url(#p948fd671a4)">
     <use xlink:href="#m22248de17a" x="323.351672" y="173.560216" style="fill: #eef2ef; stroke: #ffffff"/>
    </g>
   </g>
   <g id="PathCollection_20">
    <g clip-path="url(#p948fd671a4)">
     <use xlink:href="#m22248de17a" x="395.960651" y="173.560216" style="fill: #eef2ef; stroke: #ffffff"/>
    </g>
   </g>
   <g id="PathCollection_21">
    <g clip-path="url(#p948fd671a4)">
     <use xlink:href="#m23e3a15b11" x="359.656161" y="163.024998" style="fill: #eef2ef; stroke: #ffffff"/>
    </g>
   </g>
   <g id="PathCollection_22">
    <g clip-path="url(#p948fd671a4)">
     <use xlink:href="#m23e3a15b11" x="432.26514" y="163.024998" style="fill: #eef2ef; stroke: #ffffff"/>
    </g>
   </g>
   <g id="PathCollection_23">
    <g clip-path="url(#p948fd671a4)">
     <use xlink:href="#m23e3a15b11" x="425.004242" y="163.024998" style="fill: #eef2ef; stroke: #ffffff"/>
    </g>
   </g>
   <g id="PathCollection_24">
    <g clip-path="url(#p948fd671a4)">
     <use xlink:href="#m23e3a15b11" x="352.395264" y="163.024998" style="fill: #eef2ef; stroke: #ffffff"/>
    </g>
   </g>
   <g id="text_1">
    <text style="font-size: 8px; font-family: 'DejaVu Sans'; text-anchor: start; fill: #a96824" x="18.393962" y="111.333504" transform="rotate(-0 18.393962 111.333504)">macroscopic surface plane</text>
   </g>
   <g id="PathCollection_25">
    <defs>
     <path id="m15e4abf12c" d="M 0 4.582576
C 1.215313 4.582576 2.381014 4.099727 3.24037 3.24037
C 4.099727 2.381014 4.582576 1.215313 4.582576 0
C 4.582576 -1.215313 4.099727 -2.381014 3.24037 -3.24037
C 2.381014 -4.099727 1.215313 -4.582576 0 -4.582576
C -1.215313 -4.582576 -2.381014 -4.099727 -3.24037 -3.24037
C -4.099727 -2.381014 -4.582576 -1.215313 -4.582576 0
C -4.582576 1.215313 -4.099727 2.381014 -3.24037 3.24037
C -2.381014 4.099727 -1.215313 4.582576 0 4.582576
z
" style="stroke: #ffffff"/>
    </defs>
    <g clip-path="url(#p948fd671a4)">
     <use xlink:href="#m15e4abf12c" x="25.65486" y="152.48978" style="fill: #e9efeb; stroke: #ffffff"/>
    </g>
   </g>
   <g id="PathCollection_26">
    <g clip-path="url(#p948fd671a4)">
     <use xlink:href="#m15e4abf12c" x="98.263839" y="152.48978" style="fill: #e9efeb; stroke: #ffffff"/>
    </g>
   </g>
   <g id="PathCollection_27">
    <g clip-path="url(#p948fd671a4)">
     <use xlink:href="#m15e4abf12c" x="91.002941" y="152.48978" style="fill: #e9efeb; stroke: #ffffff"/>
    </g>
   </g>
   <g id="PathCollection_28">
    <g clip-path="url(#p948fd671a4)">
     <use xlink:href="#m15e4abf12c" x="18.393962" y="152.48978" style="fill: #e9efeb; stroke: #ffffff"/>
    </g>
   </g>
   <g id="PathCollection_29">
    <defs>
     <path id="mc2a5256831" d="M 0 4.769696
C 1.264938 4.769696 2.478238 4.267131 3.372684 3.372684
C 4.267131 2.478238 4.769696 1.264938 4.769696 0
C 4.769696 -1.264938 4.267131 -2.478238 3.372684 -3.372684
C 2.478238 -4.267131 1.264938 -4.769696 0 -4.769696
C -1.264938 -4.769696 -2.478238 -4.267131 -3.372684 -3.372684
C -4.267131 -2.478238 -4.769696 -1.264938 -4.769696 0
C -4.769696 1.264938 -4.267131 2.478238 -3.372684 3.372684
C -2.478238 4.267131 -1.264938 4.769696 0 4.769696
z
" style="stroke: #ffffff"/>
    </defs>
    <g clip-path="url(#p948fd671a4)">
     <use xlink:href="#mc2a5256831" x="112.785634" y="141.954562" style="fill: #d4dfda; stroke: #ffffff"/>
    </g>
   </g>
   <g id="PathCollection_30">
    <g clip-path="url(#p948fd671a4)">
     <use xlink:href="#mc2a5256831" x="40.176656" y="141.954562" style="fill: #d4dfda; stroke: #ffffff"/>
    </g>
   </g>
   <g id="PathCollection_31">
    <g clip-path="url(#p948fd671a4)">
     <use xlink:href="#mc2a5256831" x="47.437554" y="141.954562" style="fill: #d4dfda; stroke: #ffffff"/>
    </g>
   </g>
   <g id="PathCollection_32">
    <g clip-path="url(#p948fd671a4)">
     <use xlink:href="#mc2a5256831" x="120.046532" y="141.954562" style="fill: #d4dfda; stroke: #ffffff"/>
    </g>
   </g>
   <g id="PathCollection_33">
    <defs>
     <path id="m2b01c09186" d="M 0 4.949747
C 1.312688 4.949747 2.571789 4.428211 3.5 3.5
C 4.428211 2.571789 4.949747 1.312688 4.949747 0
C 4.949747 -1.312688 4.428211 -2.571789 3.5 -3.5
C 2.571789 -4.428211 1.312688 -4.949747 0 -4.949747
C -1.312688 -4.949747 -2.571789 -4.428211 -3.5 -3.5
C -4.428211 -2.571789 -4.949747 -1.312688 -4.949747 0
C -4.949747 1.312688 -4.428211 2.571789 -3.5 3.5
C -2.571789 4.428211 -1.312688 4.949747 0 4.949747
z
" style="stroke: #ffffff"/>
    </defs>
    <g clip-path="url(#p948fd671a4)">
     <use xlink:href="#m2b01c09186" x="69.220247" y="131.419345" style="fill: #91aaa6; stroke: #ffffff"/>
    </g>
   </g>
   <g id="PathCollection_34">
    <g clip-path="url(#p948fd671a4)">
     <use xlink:href="#m2b01c09186" x="141.829226" y="131.419345" style="fill: #91aaa6; stroke: #ffffff"/>
    </g>
   </g>
   <g id="PathCollection_35">
    <g clip-path="url(#p948fd671a4)">
     <use xlink:href="#m2b01c09186" x="149.090124" y="131.419345" style="fill: #91aaa6; stroke: #ffffff"/>
    </g>
   </g>
   <g id="PathCollection_36">
    <g clip-path="url(#p948fd671a4)">
     <use xlink:href="#m2b01c09186" x="76.481145" y="131.419345" style="fill: #91aaa6; stroke: #ffffff"/>
    </g>
   </g>
   <g id="PathCollection_37">
    <defs>
     <path id="mde119c5b81" d="M 0 5.700877
C 1.51189 5.700877 2.962061 5.100197 4.031129 4.031129
C 5.100197 2.962061 5.700877 1.51189 5.700877 0
C 5.700877 -1.51189 5.100197 -2.962061 4.031129 -4.031129
C 2.962061 -5.100197 1.51189 -5.700877 0 -5.700877
C -1.51189 -5.700877 -2.962061 -5.100197 -4.031129 -4.031129
C -5.100197 -2.962061 -5.700877 -1.51189 -5.700877 0
C -5.700877 1.51189 -5.100197 2.962061 -4.031129 4.031129
C -2.962061 5.100197 -1.51189 5.700877 0 5.700877
z
" style="stroke: #ffffff"/>
    </defs>
    <g clip-path="url(#p948fd671a4)">
     <use xlink:href="#mde119c5b81" x="25.65486" y="120.884127" style="fill: #176b72; stroke: #ffffff"/>
    </g>
   </g>
   <g id="PathCollection_38">
    <g clip-path="url(#p948fd671a4)">
     <use xlink:href="#mde119c5b81" x="98.263839" y="120.884127" style="fill: #176b72; stroke: #ffffff"/>
    </g>
   </g>
   <g id="PathCollection_39">
    <g clip-path="url(#p948fd671a4)">
     <use xlink:href="#mde119c5b81" x="105.524736" y="120.884127" style="fill: #176b72; stroke: #ffffff"/>
    </g>
   </g>
   <g id="PathCollection_40">
    <g clip-path="url(#p948fd671a4)">
     <use xlink:href="#mde119c5b81" x="32.915758" y="120.884127" style="fill: #176b72; stroke: #ffffff"/>
    </g>
   </g>
   <g id="PathCollection_41">
    <g clip-path="url(#p948fd671a4)">
     <use xlink:href="#m15e4abf12c" x="170.872817" y="152.48978" style="fill: #e9efeb; stroke: #ffffff"/>
    </g>
   </g>
   <g id="PathCollection_42">
    <g clip-path="url(#p948fd671a4)">
     <use xlink:href="#m15e4abf12c" x="243.481796" y="152.48978" style="fill: #e9efeb; stroke: #ffffff"/>
    </g>
   </g>
   <g id="PathCollection_43">
    <g clip-path="url(#p948fd671a4)">
     <use xlink:href="#m15e4abf12c" x="236.220898" y="152.48978" style="fill: #e9efeb; stroke: #ffffff"/>
    </g>
   </g>
   <g id="PathCollection_44">
    <g clip-path="url(#p948fd671a4)">
     <use xlink:href="#m15e4abf12c" x="163.611919" y="152.48978" style="fill: #e9efeb; stroke: #ffffff"/>
    </g>
   </g>
   <g id="PathCollection_45">
    <g clip-path="url(#p948fd671a4)">
     <use xlink:href="#mc2a5256831" x="258.003591" y="141.954562" style="fill: #d4dfda; stroke: #ffffff"/>
    </g>
   </g>
   <g id="PathCollection_46">
    <g clip-path="url(#p948fd671a4)">
     <use xlink:href="#mc2a5256831" x="185.394613" y="141.954562" style="fill: #d4dfda; stroke: #ffffff"/>
    </g>
   </g>
   <g id="PathCollection_47">
    <g clip-path="url(#p948fd671a4)">
     <use xlink:href="#mc2a5256831" x="192.655511" y="141.954562" style="fill: #d4dfda; stroke: #ffffff"/>
    </g>
   </g>
   <g id="PathCollection_48">
    <g clip-path="url(#p948fd671a4)">
     <use xlink:href="#mc2a5256831" x="265.264489" y="141.954562" style="fill: #d4dfda; stroke: #ffffff"/>
    </g>
   </g>
   <g id="PathCollection_49">
    <g clip-path="url(#p948fd671a4)">
     <use xlink:href="#m2b01c09186" x="214.438204" y="131.419345" style="fill: #91aaa6; stroke: #ffffff"/>
    </g>
   </g>
   <g id="PathCollection_50">
    <g clip-path="url(#p948fd671a4)">
     <use xlink:href="#m2b01c09186" x="287.047183" y="131.419345" style="fill: #91aaa6; stroke: #ffffff"/>
    </g>
   </g>
   <g id="PathCollection_51">
    <g clip-path="url(#p948fd671a4)">
     <use xlink:href="#m2b01c09186" x="294.308081" y="131.419345" style="fill: #91aaa6; stroke: #ffffff"/>
    </g>
   </g>
   <g id="PathCollection_52">
    <g clip-path="url(#p948fd671a4)">
     <use xlink:href="#m2b01c09186" x="221.699102" y="131.419345" style="fill: #91aaa6; stroke: #ffffff"/>
    </g>
   </g>
   <g id="PathCollection_53">
    <g clip-path="url(#p948fd671a4)">
     <use xlink:href="#mde119c5b81" x="170.872817" y="120.884127" style="fill: #176b72; stroke: #ffffff"/>
    </g>
   </g>
   <g id="PathCollection_54">
    <g clip-path="url(#p948fd671a4)">
     <use xlink:href="#mde119c5b81" x="243.481796" y="120.884127" style="fill: #176b72; stroke: #ffffff"/>
    </g>
   </g>
   <g id="PathCollection_55">
    <g clip-path="url(#p948fd671a4)">
     <use xlink:href="#mde119c5b81" x="250.742694" y="120.884127" style="fill: #176b72; stroke: #ffffff"/>
    </g>
   </g>
   <g id="PathCollection_56">
    <g clip-path="url(#p948fd671a4)">
     <use xlink:href="#mde119c5b81" x="178.133715" y="120.884127" style="fill: #176b72; stroke: #ffffff"/>
    </g>
   </g>
   <g id="PathCollection_57">
    <g clip-path="url(#p948fd671a4)">
     <use xlink:href="#m15e4abf12c" x="316.090774" y="152.48978" style="fill: #e9efeb; stroke: #ffffff"/>
    </g>
   </g>
   <g id="PathCollection_58">
    <g clip-path="url(#p948fd671a4)">
     <use xlink:href="#m15e4abf12c" x="388.699753" y="152.48978" style="fill: #e9efeb; stroke: #ffffff"/>
    </g>
   </g>
   <g id="PathCollection_59">
    <g clip-path="url(#p948fd671a4)">
     <use xlink:href="#m15e4abf12c" x="381.438855" y="152.48978" style="fill: #e9efeb; stroke: #ffffff"/>
    </g>
   </g>
   <g id="PathCollection_60">
    <g clip-path="url(#p948fd671a4)">
     <use xlink:href="#m15e4abf12c" x="308.829876" y="152.48978" style="fill: #e9efeb; stroke: #ffffff"/>
    </g>
   </g>
   <g id="PathCollection_61">
    <g clip-path="url(#p948fd671a4)">
     <use xlink:href="#mc2a5256831" x="403.221548" y="141.954562" style="fill: #d4dfda; stroke: #ffffff"/>
    </g>
   </g>
   <g id="PathCollection_62">
    <g clip-path="url(#p948fd671a4)">
     <use xlink:href="#mc2a5256831" x="330.61257" y="141.954562" style="fill: #d4dfda; stroke: #ffffff"/>
    </g>
   </g>
   <g id="PathCollection_63">
    <g clip-path="url(#p948fd671a4)">
     <use xlink:href="#mc2a5256831" x="337.873468" y="141.954562" style="fill: #d4dfda; stroke: #ffffff"/>
    </g>
   </g>
   <g id="PathCollection_64">
    <g clip-path="url(#p948fd671a4)">
     <use xlink:href="#mc2a5256831" x="410.482446" y="141.954562" style="fill: #d4dfda; stroke: #ffffff"/>
    </g>
   </g>
   <g id="PathCollection_65">
    <g clip-path="url(#p948fd671a4)">
     <use xlink:href="#m2b01c09186" x="359.656161" y="131.419345" style="fill: #91aaa6; stroke: #ffffff"/>
    </g>
   </g>
   <g id="PathCollection_66">
    <g clip-path="url(#p948fd671a4)">
     <use xlink:href="#m2b01c09186" x="432.26514" y="131.419345" style="fill: #91aaa6; stroke: #ffffff"/>
    </g>
   </g>
   <g id="PathCollection_67">
    <g clip-path="url(#p948fd671a4)">
     <use xlink:href="#m2b01c09186" x="439.526038" y="131.419345" style="fill: #91aaa6; stroke: #ffffff"/>
    </g>
   </g>
   <g id="PathCollection_68">
    <g clip-path="url(#p948fd671a4)">
     <use xlink:href="#m2b01c09186" x="366.917059" y="131.419345" style="fill: #91aaa6; stroke: #ffffff"/>
    </g>
   </g>
   <g id="PathCollection_69">
    <g clip-path="url(#p948fd671a4)">
     <use xlink:href="#mde119c5b81" x="316.090774" y="120.884127" style="fill: #176b72; stroke: #ffffff"/>
    </g>
   </g>
   <g id="PathCollection_70">
    <g clip-path="url(#p948fd671a4)">
     <use xlink:href="#mde119c5b81" x="388.699753" y="120.884127" style="fill: #176b72; stroke: #ffffff"/>
    </g>
   </g>
   <g id="PathCollection_71">
    <g clip-path="url(#p948fd671a4)">
     <use xlink:href="#mde119c5b81" x="395.960651" y="120.884127" style="fill: #176b72; stroke: #ffffff"/>
    </g>
   </g>
   <g id="PathCollection_72">
    <g clip-path="url(#p948fd671a4)">
     <use xlink:href="#mde119c5b81" x="323.351672" y="120.884127" style="fill: #176b72; stroke: #ffffff"/>
    </g>
   </g>
  </g>
 </g>
 <defs>
  <clipPath id="p948fd671a4">
   <rect x="5.76" y="5.76" width="446.4" height="277.2"/>
  </clipPath>
 </defs>
</svg>
