<?xml version="1.0" encoding="utf-8" standalone="no"?>
<!DOCTYPE svg PUBLIC "-//W3C//DTD SVG 1.1//EN"
  "http://www.w3.org/Graphics/SVG/1.1/DTD/svg11.dtd">
<svg xmlns:xlink="http://www.w3.org/1999/xlink" width="457.92pt" height="288.72pt" viewBox="0 0 457.92 288.72" xmlns="http://www.w3.org/2000/svg" version="1.1">
 <metadata>
  <rdf:RDF xmlns:dc="http://purl.org/dc/elements/1.1/" xmlns:cc="http://creativecommons.org/ns#" xmlns:rdf="http://www.w3.org/1999/02/22-rdf-syntax-ns#">
   <cc:Work>
    <dc:type rdf:resource="http://purl.org/dc/dcmitype/StillImage"/>
    <dc:format>image/svg+xml</dc:format>
    <dc:creator>
     <cc:Agent>
      <dc:title>tools/generate_surface_figures.py</dc:title>
     </cc:Agent>
    </dc:creator>
   </cc:Work>
  </rdf:RDF>
 </metadata>
 <defs>
  <style type="text/css">*{stroke-linejoin: round; stroke-linecap: butt}</style>
 </defs>
 <g id="figure_1">
  <g id="patch_1">
   <path d="M 0 288.72
L 457.92 288.72
L 457.92 0
L 0 0
z
" style="fill: #ffffff"/>
  </g>
  <g id="axes_1">
   <g id="PathCollection_1">
    <defs>
     <path id="m3f70b8e8a4" d="M 0 4.301163
C 1.140682 4.301163 2.234798 3.847965 3.041381 3.041381
C 3.847965 2.234798 4.301163 1.140682 4.301163 0
C 4.301163 -1.140682 3.847965 -2.234798 3.041381 -3.041381
C 2.234798 -3.847965 1.140682 -4.301163 0 -4.301163
C -1.140682 -4.301163 -2.234798 -3.847965 -3.041381 -3.041381
C -3.847965 -2.234798 -4.301163 -1.140682 -4.301163 0
C -4.301163 1.140682 -3.847965 2.234798 -3.041381 3.041381
C -2.234798 3.847965 -1.140682 4.301163 0 4.301163
z
" style="stroke: #ffffff; stroke-opacity: 0.48; stroke-width: 1.2"/>
    </defs>
    <g clip-path="url(#p948fd671a4)">
     <use xlink:href="#m3f70b8e8a4" x="173.617318" y="232.752857" style="fill: #d4dfda; fill-opacity: 0.48; stroke: #ffffff; stroke-opacity: 0.48; stroke-width: 1.2"/>
     <use xlink:href="#m3f70b8e8a4" x="94.556343" y="268.11" style="fill: #d4dfda; fill-opacity: 0.48; stroke: #ffffff; stroke-opacity: 0.48; stroke-width: 1.2"/>
     <use xlink:href="#m3f70b8e8a4" x="173.617318" y="162.038571" style="fill: #d4dfda; fill-opacity: 0.48; stroke: #ffffff; stroke-opacity: 0.48; stroke-width: 1.2"/>
     <use xlink:href="#m3f70b8e8a4" x="94.556343" y="197.395714" style="fill: #d4dfda; fill-opacity: 0.48; stroke: #ffffff; stroke-opacity: 0.48; stroke-width: 1.2"/>
     <use xlink:href="#m3f70b8e8a4" x="173.617318" y="91.324286" style="fill: #d4dfda; fill-opacity: 0.48; stroke: #ffffff; stroke-opacity: 0.48; stroke-width: 1.2"/>
     <use xlink:href="#m3f70b8e8a4" x="94.556343" y="126.681429" style="fill: #d4dfda; fill-opacity: 0.48; stroke: #ffffff; stroke-opacity: 0.48; stroke-width: 1.2"/>
     <use xlink:href="#m3f70b8e8a4" x="173.617318" y="20.61" style="fill: #d4dfda; fill-opacity: 0.48; stroke: #ffffff; stroke-opacity: 0.48; stroke-width: 1.2"/>
     <use xlink:href="#m3f70b8e8a4" x="94.556343" y="55.967143" style="fill: #d4dfda; fill-opacity: 0.48; stroke: #ffffff; stroke-opacity: 0.48; stroke-width: 1.2"/>
     <use xlink:href="#m3f70b8e8a4" x="331.739267" y="232.752857" style="fill: #d4dfda; fill-opacity: 0.48; stroke: #ffffff; stroke-opacity: 0.48; stroke-width: 1.2"/>
     <use xlink:href="#m3f70b8e8a4" x="252.678292" y="268.11" style="fill: #d4dfda; fill-opacity: 0.48; stroke: #ffffff; stroke-opacity: 0.48; stroke-width: 1.2"/>
     <use xlink:href="#m3f70b8e8a4" x="331.739267" y="162.038571" style="fill: #d4dfda; fill-opacity: 0.48; stroke: #ffffff; stroke-opacity: 0.48; stroke-width: 1.2"/>
     <use xlink:href="#m3f70b8e8a4" x="252.678292" y="197.395714" style="fill: #d4dfda; fill-opacity: 0.48; stroke: #ffffff; stroke-opacity: 0.48; stroke-width: 1.2"/>
     <use xlink:href="#m3f70b8e8a4" x="331.739267" y="91.324286" style="fill: #d4dfda; fill-opacity: 0.48; stroke: #ffffff; stroke-opacity: 0.48; stroke-width: 1.2"/>
     <use xlink:href="#m3f70b8e8a4" x="252.678292" y="126.681429" style="fill: #d4dfda; fill-opacity: 0.48; stroke: #ffffff; stroke-opacity: 0.48; stroke-width: 1.2"/>
     <use xlink:href="#m3f70b8e8a4" x="331.739267" y="20.61" style="fill: #d4dfda; fill-opacity: 0.48; stroke: #ffffff; stroke-opacity: 0.48; stroke-width: 1.2"/>
     <use xlink:href="#m3f70b8e8a4" x="252.678292" y="55.967143" style="fill: #d4dfda; fill-opacity: 0.48; stroke: #ffffff; stroke-opacity: 0.48; stroke-width: 1.2"/>
    </g>
   </g>
   <g id="PathCollection_2">
    <defs>
     <path id="mc75a629b30" d="M 0 4.949747
C 1.312688 4.949747 2.571789 4.428211 3.5 3.5
C 4.428211 2.571789 4.949747 1.312688 4.949747 0
C 4.949747 -1.312688 4.428211 -2.571789 3.5 -3.5
C 2.571789 -4.428211 1.312688 -4.949747 0 -4.949747
C -1.312688 -4.949747 -2.571789 -4.428211 -3.5 -3.5
C -4.428211 -2.571789 -4.949747 -1.312688 -4.949747 0
C -4.949747 1.312688 -4.428211 2.571789 -3.5 3.5
C -2.571789 4.428211 -1.312688 4.949747 0 4.949747
z
" style="stroke: #ffffff; stroke-opacity: 0.72; stroke-width: 1.2"/>
    </defs>
    <g clip-path="url(#p948fd671a4)">
     <use xlink:href="#mc75a629b30" x="141.992928" y="268.11" style="fill: #91aaa6; fill-opacity: 0.72; stroke: #ffffff; stroke-opacity: 0.72; stroke-width: 1.2"/>
     <use xlink:href="#mc75a629b30" x="221.053903" y="232.752857" style="fill: #91aaa6; fill-opacity: 0.72; stroke: #ffffff; stroke-opacity: 0.72; stroke-width: 1.2"/>
     <use xlink:href="#mc75a629b30" x="141.992928" y="197.395714" style="fill: #91aaa6; fill-opacity: 0.72; stroke: #ffffff; stroke-opacity: 0.72; stroke-width: 1.2"/>
     <use xlink:href="#mc75a629b30" x="221.053903" y="162.038571" style="fill: #91aaa6; fill-opacity: 0.72; stroke: #ffffff; stroke-opacity: 0.72; stroke-width: 1.2"/>
     <use xlink:href="#mc75a629b30" x="141.992928" y="126.681429" style="fill: #91aaa6; fill-opacity: 0.72; stroke: #ffffff; stroke-opacity: 0.72; stroke-width: 1.2"/>
     <use xlink:href="#mc75a629b30" x="221.053903" y="91.324286" style="fill: #91aaa6; fill-opacity: 0.72; stroke: #ffffff; stroke-opacity: 0.72; stroke-width: 1.2"/>
     <use xlink:href="#mc75a629b30" x="141.992928" y="55.967143" style="fill: #91aaa6; fill-opacity: 0.72; stroke: #ffffff; stroke-opacity: 0.72; stroke-width: 1.2"/>
     <use xlink:href="#mc75a629b30" x="221.053903" y="20.61" style="fill: #91aaa6; fill-opacity: 0.72; stroke: #ffffff; stroke-opacity: 0.72; stroke-width: 1.2"/>
     <use xlink:href="#mc75a629b30" x="300.114877" y="268.11" style="fill: #91aaa6; fill-opacity: 0.72; stroke: #ffffff; stroke-opacity: 0.72; stroke-width: 1.2"/>
     <use xlink:href="#mc75a629b30" x="379.175852" y="232.752857" style="fill: #91aaa6; fill-opacity: 0.72; stroke: #ffffff; stroke-opacity: 0.72; stroke-width: 1.2"/>
     <use xlink:href="#mc75a629b30" x="300.114877" y="197.395714" style="fill: #91aaa6; fill-opacity: 0.72; stroke: #ffffff; stroke-opacity: 0.72; stroke-width: 1.2"/>
     <use xlink:href="#mc75a629b30" x="379.175852" y="162.038571" style="fill: #91aaa6; fill-opacity: 0.72; stroke: #ffffff; stroke-opacity: 0.72; stroke-width: 1.2"/>
     <use xlink:href="#mc75a629b30" x="300.114877" y="126.681429" style="fill: #91aaa6; fill-opacity: 0.72; stroke: #ffffff; stroke-opacity: 0.72; stroke-width: 1.2"/>
     <use xlink:href="#mc75a629b30" x="379.175852" y="91.324286" style="fill: #91aaa6; fill-opacity: 0.72; stroke: #ffffff; stroke-opacity: 0.72; stroke-width: 1.2"/>
     <use xlink:href="#mc75a629b30" x="300.114877" y="55.967143" style="fill: #91aaa6; fill-opacity: 0.72; stroke: #ffffff; stroke-opacity: 0.72; stroke-width: 1.2"/>
     <use xlink:href="#mc75a629b30" x="379.175852" y="20.61" style="fill: #91aaa6; fill-opacity: 0.72; stroke: #ffffff; stroke-opacity: 0.72; stroke-width: 1.2"/>
    </g>
   </g>
   <g id="PathCollection_3">
    <defs>
     <path id="ma916b23e30" d="M 0 5.700877
C 1.51189 5.700877 2.962061 5.100197 4.031129 4.031129
C 5.100197 2.962061 5.700877 1.51189 5.700877 0
C 5.700877 -1.51189 5.100197 -2.962061 4.031129 -4.031129
C 2.962061 -5.100197 1.51189 -5.700877 0 -5.700877
C -1.51189 -5.700877 -2.962061 -5.100197 -4.031129 -4.031129
C -5.100197 -2.962061 -5.700877 -1.51189 -5.700877 0
C -5.700877 1.51189 -5.100197 2.962061 -4.031129 4.031129
C -2.962061 5.100197 -1.51189 5.700877 0 5.700877
z
" style="stroke: #ffffff; stroke-width: 1.2"/>
    </defs>
    <g clip-path="url(#p948fd671a4)">
     <use xlink:href="#ma916b23e30" x="110.368538" y="232.752857" style="fill: #176b72; stroke: #ffffff; stroke-width: 1.2"/>
     <use xlink:href="#ma916b23e30" x="189.429513" y="268.11" style="fill: #176b72; stroke: #ffffff; stroke-width: 1.2"/>
     <use xlink:href="#ma916b23e30" x="110.368538" y="162.038571" style="fill: #176b72; stroke: #ffffff; stroke-width: 1.2"/>
     <use xlink:href="#ma916b23e30" x="189.429513" y="197.395714" style="fill: #176b72; stroke: #ffffff; stroke-width: 1.2"/>
     <use xlink:href="#ma916b23e30" x="110.368538" y="91.324286" style="fill: #176b72; stroke: #ffffff; stroke-width: 1.2"/>
     <use xlink:href="#ma916b23e30" x="189.429513" y="126.681429" style="fill: #176b72; stroke: #ffffff; stroke-width: 1.2"/>
     <use xlink:href="#ma916b23e30" x="110.368538" y="20.61" style="fill: #176b72; stroke: #ffffff; stroke-width: 1.2"/>
     <use xlink:href="#ma916b23e30" x="189.429513" y="55.967143" style="fill: #176b72; stroke: #ffffff; stroke-width: 1.2"/>
     <use xlink:href="#ma916b23e30" x="268.490487" y="232.752857" style="fill: #176b72; stroke: #ffffff; stroke-width: 1.2"/>
     <use xlink:href="#ma916b23e30" x="347.551462" y="268.11" style="fill: #176b72; stroke: #ffffff; stroke-width: 1.2"/>
     <use xlink:href="#ma916b23e30" x="268.490487" y="162.038571" style="fill: #176b72; stroke: #ffffff; stroke-width: 1.2"/>
     <use xlink:href="#ma916b23e30" x="347.551462" y="197.395714" style="fill: #176b72; stroke: #ffffff; stroke-width: 1.2"/>
     <use xlink:href="#ma916b23e30" x="268.490487" y="91.324286" style="fill: #176b72; stroke: #ffffff; stroke-width: 1.2"/>
     <use xlink:href="#ma916b23e30" x="347.551462" y="126.681429" style="fill: #176b72; stroke: #ffffff; stroke-width: 1.2"/>
     <use xlink:href="#ma916b23e30" x="268.490487" y="20.61" style="fill: #176b72; stroke: #ffffff; stroke-width: 1.2"/>
     <use xlink:href="#ma916b23e30" x="347.551462" y="55.967143" style="fill: #176b72; stroke: #ffffff; stroke-width: 1.2"/>
    </g>
   </g>
   <g id="line2d_1">
    <path d="M 78.744148 197.395714
L 236.866097 197.395714
L 236.866097 126.681429
L 78.744148 126.681429
L 78.744148 197.395714
" clip-path="url(#p948fd671a4)" style="fill: none; stroke: #173033; stroke-width: 1.6; stroke-linecap: square"/>
   </g>
  </g>
 </g>
 <defs>
  <clipPath id="p948fd671a4">
   <rect x="5.76" y="5.76" width="446.4" height="277.2"/>
  </clipPath>
 </defs>
</svg>
