<?xml version="1.0" encoding="utf-8" standalone="no"?>
<!DOCTYPE svg PUBLIC "-//W3C//DTD SVG 1.1//EN"
  "http://www.w3.org/Graphics/SVG/1.1/DTD/svg11.dtd">
<svg xmlns:xlink="http://www.w3.org/1999/xlink" width="457.92pt" height="288.72pt" viewBox="0 0 457.92 288.72" xmlns="http://www.w3.org/2000/svg" version="1.1">
 <metadata>
  <rdf:RDF xmlns:dc="http://purl.org/dc/elements/1.1/" xmlns:cc="http://creativecommons.org/ns#" xmlns:rdf="http://www.w3.org/1999/02/22-rdf-syntax-ns#">
   <cc:Work>
    <dc:type rdf:resource="http://purl.org/dc/dcmitype/StillImage"/>
    <dc:format>image/svg+xml</dc:format>
    <dc:creator>
     <cc:Agent>
      <dc:title>tools/generate_surface_figures.py</dc:title>
     </cc:Agent>
    </dc:creator>
   </cc:Work>
  </rdf:RDF>
 </metadata>
 <defs>
  <style type="text/css">*{stroke-linejoin: round; stroke-linecap: butt}</style>
 </defs>
 <g id="figure_1">
  <g id="patch_1">
   <path d="M 0 288.72
L 457.92 288.72
L 457.92 0
L 0 0
z
" style="fill: #ffffff"/>
  </g>
  <g id="axes_1">
   <g id="PathCollection_1">
    <defs>
     <path id="m3f70b8e8a4" d="M 0 4.301163
C 1.140682 4.301163 2.234798 3.847965 3.041381 3.041381
C 3.847965 2.234798 4.301163 1.140682 4.301163 0
C 4.301163 -1.140682 3.847965 -2.234798 3.041381 -3.041381
C 2.234798 -3.847965 1.140682 -4.301163 0 -4.301163
C -1.140682 -4.301163 -2.234798 -3.847965 -3.041381 -3.041381
C -3.847965 -2.234798 -4.301163 -1.140682 -4.301163 0
C -4.301163 1.140682 -3.847965 2.234798 -3.041381 3.041381
C -2.234798 3.847965 -1.140682 4.301163 0 4.301163
z
" style="stroke: #ffffff; stroke-opacity: 0.48; stroke-width: 1.2"/>
    </defs>
    <g clip-path="url(#p948fd671a4)">
     <use xlink:href="#m3f70b8e8a4" x="110.588344" y="183.095201" style="fill: #d4dfda; fill-opacity: 0.48; stroke: #ffffff; stroke-opacity: 0.48; stroke-width: 1.2"/>
     <use xlink:href="#m3f70b8e8a4" x="128.496238" y="140.587802" style="fill: #d4dfda; fill-opacity: 0.48; stroke: #ffffff; stroke-opacity: 0.48; stroke-width: 1.2"/>
     <use xlink:href="#m3f70b8e8a4" x="146.404132" y="98.080402" style="fill: #d4dfda; fill-opacity: 0.48; stroke: #ffffff; stroke-opacity: 0.48; stroke-width: 1.2"/>
     <use xlink:href="#m3f70b8e8a4" x="164.312026" y="55.573003" style="fill: #d4dfda; fill-opacity: 0.48; stroke: #ffffff; stroke-opacity: 0.48; stroke-width: 1.2"/>
     <use xlink:href="#m3f70b8e8a4" x="211.486808" y="225.602601" style="fill: #d4dfda; fill-opacity: 0.48; stroke: #ffffff; stroke-opacity: 0.48; stroke-width: 1.2"/>
     <use xlink:href="#m3f70b8e8a4" x="229.394702" y="183.095201" style="fill: #d4dfda; fill-opacity: 0.48; stroke: #ffffff; stroke-opacity: 0.48; stroke-width: 1.2"/>
     <use xlink:href="#m3f70b8e8a4" x="247.302596" y="140.587802" style="fill: #d4dfda; fill-opacity: 0.48; stroke: #ffffff; stroke-opacity: 0.48; stroke-width: 1.2"/>
     <use xlink:href="#m3f70b8e8a4" x="265.21049" y="98.080402" style="fill: #d4dfda; fill-opacity: 0.48; stroke: #ffffff; stroke-opacity: 0.48; stroke-width: 1.2"/>
     <use xlink:href="#m3f70b8e8a4" x="312.385272" y="268.11" style="fill: #d4dfda; fill-opacity: 0.48; stroke: #ffffff; stroke-opacity: 0.48; stroke-width: 1.2"/>
     <use xlink:href="#m3f70b8e8a4" x="330.293166" y="225.602601" style="fill: #d4dfda; fill-opacity: 0.48; stroke: #ffffff; stroke-opacity: 0.48; stroke-width: 1.2"/>
     <use xlink:href="#m3f70b8e8a4" x="348.20106" y="183.095201" style="fill: #d4dfda; fill-opacity: 0.48; stroke: #ffffff; stroke-opacity: 0.48; stroke-width: 1.2"/>
     <use xlink:href="#m3f70b8e8a4" x="366.108954" y="140.587802" style="fill: #d4dfda; fill-opacity: 0.48; stroke: #ffffff; stroke-opacity: 0.48; stroke-width: 1.2"/>
    </g>
   </g>
   <g id="PathCollection_2">
    <defs>
     <path id="mc75a629b30" d="M 0 4.949747
C 1.312688 4.949747 2.571789 4.428211 3.5 3.5
C 4.428211 2.571789 4.949747 1.312688 4.949747 0
C 4.949747 -1.312688 4.428211 -2.571789 3.5 -3.5
C 2.571789 -4.428211 1.312688 -4.949747 0 -4.949747
C -1.312688 -4.949747 -2.571789 -4.428211 -3.5 -3.5
C -4.428211 -2.571789 -4.949747 -1.312688 -4.949747 0
C -4.949747 1.312688 -4.428211 2.571789 -3.5 3.5
C -2.571789 4.428211 -1.312688 4.949747 0 4.949747
z
" style="stroke: #ffffff; stroke-opacity: 0.72; stroke-width: 1.2"/>
    </defs>
    <g clip-path="url(#p948fd671a4)">
     <use xlink:href="#mc75a629b30" x="87.000953" y="148.132198" style="fill: #91aaa6; fill-opacity: 0.72; stroke: #ffffff; stroke-opacity: 0.72; stroke-width: 1.2"/>
     <use xlink:href="#mc75a629b30" x="104.908847" y="105.624799" style="fill: #91aaa6; fill-opacity: 0.72; stroke: #ffffff; stroke-opacity: 0.72; stroke-width: 1.2"/>
     <use xlink:href="#mc75a629b30" x="122.816741" y="63.117399" style="fill: #91aaa6; fill-opacity: 0.72; stroke: #ffffff; stroke-opacity: 0.72; stroke-width: 1.2"/>
     <use xlink:href="#mc75a629b30" x="140.724635" y="20.61" style="fill: #91aaa6; fill-opacity: 0.72; stroke: #ffffff; stroke-opacity: 0.72; stroke-width: 1.2"/>
     <use xlink:href="#mc75a629b30" x="187.899417" y="190.639598" style="fill: #91aaa6; fill-opacity: 0.72; stroke: #ffffff; stroke-opacity: 0.72; stroke-width: 1.2"/>
     <use xlink:href="#mc75a629b30" x="205.807311" y="148.132198" style="fill: #91aaa6; fill-opacity: 0.72; stroke: #ffffff; stroke-opacity: 0.72; stroke-width: 1.2"/>
     <use xlink:href="#mc75a629b30" x="223.715205" y="105.624799" style="fill: #91aaa6; fill-opacity: 0.72; stroke: #ffffff; stroke-opacity: 0.72; stroke-width: 1.2"/>
     <use xlink:href="#mc75a629b30" x="241.623099" y="63.117399" style="fill: #91aaa6; fill-opacity: 0.72; stroke: #ffffff; stroke-opacity: 0.72; stroke-width: 1.2"/>
     <use xlink:href="#mc75a629b30" x="288.797881" y="233.146997" style="fill: #91aaa6; fill-opacity: 0.72; stroke: #ffffff; stroke-opacity: 0.72; stroke-width: 1.2"/>
     <use xlink:href="#mc75a629b30" x="306.705775" y="190.639598" style="fill: #91aaa6; fill-opacity: 0.72; stroke: #ffffff; stroke-opacity: 0.72; stroke-width: 1.2"/>
     <use xlink:href="#mc75a629b30" x="324.613669" y="148.132198" style="fill: #91aaa6; fill-opacity: 0.72; stroke: #ffffff; stroke-opacity: 0.72; stroke-width: 1.2"/>
     <use xlink:href="#mc75a629b30" x="342.521563" y="105.624799" style="fill: #91aaa6; fill-opacity: 0.72; stroke: #ffffff; stroke-opacity: 0.72; stroke-width: 1.2"/>
    </g>
   </g>
   <g id="PathCollection_3">
    <defs>
     <path id="ma916b23e30" d="M 0 5.700877
C 1.51189 5.700877 2.962061 5.100197 4.031129 4.031129
C 5.100197 2.962061 5.700877 1.51189 5.700877 0
C 5.700877 -1.51189 5.100197 -2.962061 4.031129 -4.031129
C 2.962061 -5.100197 1.51189 -5.700877 0 -5.700877
C -1.51189 -5.700877 -2.962061 -5.100197 -4.031129 -4.031129
C -5.100197 -2.962061 -5.700877 -1.51189 -5.700877 0
C -5.700877 1.51189 -5.100197 2.962061 -4.031129 4.031129
C -2.962061 5.100197 -1.51189 5.700877 0 5.700877
z
" style="stroke: #ffffff; stroke-width: 1.2"/>
    </defs>
    <g clip-path="url(#p948fd671a4)">
     <use xlink:href="#ma916b23e30" x="146.404132" y="173.158096" style="fill: #176b72; stroke: #ffffff; stroke-width: 1.2"/>
     <use xlink:href="#ma916b23e30" x="164.312026" y="130.650697" style="fill: #176b72; stroke: #ffffff; stroke-width: 1.2"/>
     <use xlink:href="#ma916b23e30" x="182.21992" y="88.143297" style="fill: #176b72; stroke: #ffffff; stroke-width: 1.2"/>
     <use xlink:href="#ma916b23e30" x="200.127814" y="45.635898" style="fill: #176b72; stroke: #ffffff; stroke-width: 1.2"/>
     <use xlink:href="#ma916b23e30" x="247.302596" y="215.665495" style="fill: #176b72; stroke: #ffffff; stroke-width: 1.2"/>
     <use xlink:href="#ma916b23e30" x="265.21049" y="173.158096" style="fill: #176b72; stroke: #ffffff; stroke-width: 1.2"/>
     <use xlink:href="#ma916b23e30" x="283.118384" y="130.650697" style="fill: #176b72; stroke: #ffffff; stroke-width: 1.2"/>
     <use xlink:href="#ma916b23e30" x="301.026278" y="88.143297" style="fill: #176b72; stroke: #ffffff; stroke-width: 1.2"/>
     <use xlink:href="#ma916b23e30" x="348.20106" y="258.172895" style="fill: #176b72; stroke: #ffffff; stroke-width: 1.2"/>
     <use xlink:href="#ma916b23e30" x="366.108954" y="215.665495" style="fill: #176b72; stroke: #ffffff; stroke-width: 1.2"/>
     <use xlink:href="#ma916b23e30" x="384.016848" y="173.158096" style="fill: #176b72; stroke: #ffffff; stroke-width: 1.2"/>
     <use xlink:href="#ma916b23e30" x="401.924742" y="130.650697" style="fill: #176b72; stroke: #ffffff; stroke-width: 1.2"/>
    </g>
   </g>
   <g id="line2d_1">
    <path d="M 55.995258 110.043946
L 156.893722 152.551346
L 174.801616 110.043946
L 73.903152 67.536547
L 55.995258 110.043946
" clip-path="url(#p948fd671a4)" style="fill: none; stroke: #173033; stroke-width: 1.6; stroke-linecap: square"/>
   </g>
  </g>
 </g>
 <defs>
  <clipPath id="p948fd671a4">
   <rect x="5.76" y="5.76" width="446.4" height="277.2"/>
  </clipPath>
 </defs>
</svg>
