<?xml version="1.0" encoding="utf-8" standalone="no"?>
<!DOCTYPE svg PUBLIC "-//W3C//DTD SVG 1.1//EN"
  "http://www.w3.org/Graphics/SVG/1.1/DTD/svg11.dtd">
<svg xmlns:xlink="http://www.w3.org/1999/xlink" width="513.72pt" height="344.16pt" viewBox="0 0 513.72 344.16" xmlns="http://www.w3.org/2000/svg" version="1.1">
 <metadata>
  <rdf:RDF xmlns:dc="http://purl.org/dc/elements/1.1/" xmlns:cc="http://creativecommons.org/ns#" xmlns:rdf="http://www.w3.org/1999/02/22-rdf-syntax-ns#">
   <cc:Work>
    <dc:type rdf:resource="http://purl.org/dc/dcmitype/StillImage"/>
    <dc:format>image/svg+xml</dc:format>
    <dc:creator>
     <cc:Agent>
      <dc:title>tools/generate_surface_figures.py</dc:title>
     </cc:Agent>
    </dc:creator>
   </cc:Work>
  </rdf:RDF>
 </metadata>
 <defs>
  <style type="text/css">*{stroke-linejoin: round; stroke-linecap: butt}</style>
 </defs>
 <g id="figure_1">
  <g id="patch_1">
   <path d="M 0 344.16
L 513.72 344.16
L 513.72 0
L 0 0
z
" style="fill: #ffffff"/>
  </g>
  <g id="axes_1">
   <g id="line2d_1">
    <path d="M 108.362582 293.217881
L 126.838836 225.238311
" clip-path="url(#pc7cd6314c0)" style="fill: none; stroke: #bfd0cb; stroke-width: 1.15; stroke-linecap: square"/>
   </g>
   <g id="line2d_2">
    <path d="M 126.838836 225.238311
L 145.315091 157.258742
" clip-path="url(#pc7cd6314c0)" style="fill: none; stroke: #bfd0cb; stroke-width: 1.15; stroke-linecap: square"/>
   </g>
   <g id="line2d_3">
    <path d="M 145.315091 157.258742
L 163.791345 89.279172
" clip-path="url(#pc7cd6314c0)" style="fill: none; stroke: #bfd0cb; stroke-width: 1.15; stroke-linecap: square"/>
   </g>
   <g id="line2d_4">
    <path d="M 242.659117 293.217881
L 261.135372 225.238311
" clip-path="url(#pc7cd6314c0)" style="fill: none; stroke: #bfd0cb; stroke-width: 1.15; stroke-linecap: square"/>
   </g>
   <g id="line2d_5">
    <path d="M 261.135372 225.238311
L 279.611626 157.258742
" clip-path="url(#pc7cd6314c0)" style="fill: none; stroke: #bfd0cb; stroke-width: 1.15; stroke-linecap: square"/>
   </g>
   <g id="line2d_6">
    <path d="M 279.611626 157.258742
L 298.08788 89.279172
" clip-path="url(#pc7cd6314c0)" style="fill: none; stroke: #bfd0cb; stroke-width: 1.15; stroke-linecap: square"/>
   </g>
   <g id="line2d_7">
    <path d="M 376.955653 293.217881
L 395.431907 225.238311
" clip-path="url(#pc7cd6314c0)" style="fill: none; stroke: #bfd0cb; stroke-width: 1.15; stroke-linecap: square"/>
   </g>
   <g id="line2d_8">
    <path d="M 395.431907 225.238311
L 413.908161 157.258742
" clip-path="url(#pc7cd6314c0)" style="fill: none; stroke: #bfd0cb; stroke-width: 1.15; stroke-linecap: square"/>
   </g>
   <g id="line2d_9">
    <path d="M 413.908161 157.258742
L 432.384415 89.279172
" clip-path="url(#pc7cd6314c0)" style="fill: none; stroke: #bfd0cb; stroke-width: 1.15; stroke-linecap: square"/>
   </g>
   <g id="PathCollection_1">
    <defs>
     <path id="m818f9cbcf1" d="M 0 4.1833
C 1.109424 4.1833 2.173559 3.742521 2.95804 2.95804
C 3.742521 2.173559 4.1833 1.109424 4.1833 0
C 4.1833 -1.109424 3.742521 -2.173559 2.95804 -2.95804
C 2.173559 -3.742521 1.109424 -4.1833 0 -4.1833
C -1.109424 -4.1833 -2.173559 -3.742521 -2.95804 -2.95804
C -3.742521 -2.173559 -4.1833 -1.109424 -4.1833 0
C -4.1833 1.109424 -3.742521 2.173559 -2.95804 2.95804
C -2.173559 3.742521 -1.109424 4.1833 0 4.1833
z
" style="stroke: #ffffff; stroke-width: 1.4"/>
    </defs>
    <g clip-path="url(#pc7cd6314c0)">
     <use xlink:href="#m818f9cbcf1" x="120.082087" y="296.40314" style="fill: #e9efeb; stroke: #ffffff; stroke-width: 1.4"/>
     <use xlink:href="#m818f9cbcf1" x="138.558341" y="228.42357" style="fill: #e9efeb; stroke: #ffffff; stroke-width: 1.4"/>
     <use xlink:href="#m818f9cbcf1" x="157.034596" y="160.444001" style="fill: #e9efeb; stroke: #ffffff; stroke-width: 1.4"/>
     <use xlink:href="#m818f9cbcf1" x="175.51085" y="92.464431" style="fill: #e9efeb; stroke: #ffffff; stroke-width: 1.4"/>
     <use xlink:href="#m818f9cbcf1" x="254.378622" y="296.40314" style="fill: #e9efeb; stroke: #ffffff; stroke-width: 1.4"/>
     <use xlink:href="#m818f9cbcf1" x="272.854876" y="228.42357" style="fill: #e9efeb; stroke: #ffffff; stroke-width: 1.4"/>
     <use xlink:href="#m818f9cbcf1" x="291.331131" y="160.444001" style="fill: #e9efeb; stroke: #ffffff; stroke-width: 1.4"/>
     <use xlink:href="#m818f9cbcf1" x="309.807385" y="92.464431" style="fill: #e9efeb; stroke: #ffffff; stroke-width: 1.4"/>
     <use xlink:href="#m818f9cbcf1" x="388.675157" y="296.40314" style="fill: #e9efeb; stroke: #ffffff; stroke-width: 1.4"/>
     <use xlink:href="#m818f9cbcf1" x="407.151412" y="228.42357" style="fill: #e9efeb; stroke: #ffffff; stroke-width: 1.4"/>
     <use xlink:href="#m818f9cbcf1" x="425.627666" y="160.444001" style="fill: #e9efeb; stroke: #ffffff; stroke-width: 1.4"/>
     <use xlink:href="#m818f9cbcf1" x="444.10392" y="92.464431" style="fill: #e9efeb; stroke: #ffffff; stroke-width: 1.4"/>
    </g>
   </g>
   <g id="PathCollection_2">
    <defs>
     <path id="meb2796108a" d="M 0 4.84768
C 1.28562 4.84768 2.518757 4.336898 3.427827 3.427827
C 4.336898 2.518757 4.84768 1.28562 4.84768 0
C 4.84768 -1.28562 4.336898 -2.518757 3.427827 -3.427827
C 2.518757 -4.336898 1.28562 -4.84768 0 -4.84768
C -1.28562 -4.84768 -2.518757 -4.336898 -3.427827 -3.427827
C -4.336898 -2.518757 -4.84768 -1.28562 -4.84768 0
C -4.84768 1.28562 -4.336898 2.518757 -3.427827 3.427827
C -2.518757 4.336898 -1.28562 4.84768 0 4.84768
z
" style="stroke: #ffffff; stroke-width: 1.4"/>
    </defs>
    <g clip-path="url(#pc7cd6314c0)">
     <use xlink:href="#meb2796108a" x="89.886328" y="251.695569" style="fill: #d4dfda; stroke: #ffffff; stroke-width: 1.4"/>
     <use xlink:href="#meb2796108a" x="108.362582" y="183.715999" style="fill: #d4dfda; stroke: #ffffff; stroke-width: 1.4"/>
     <use xlink:href="#meb2796108a" x="126.838836" y="115.73643" style="fill: #d4dfda; stroke: #ffffff; stroke-width: 1.4"/>
     <use xlink:href="#meb2796108a" x="145.315091" y="47.75686" style="fill: #d4dfda; stroke: #ffffff; stroke-width: 1.4"/>
     <use xlink:href="#meb2796108a" x="224.182863" y="251.695569" style="fill: #d4dfda; stroke: #ffffff; stroke-width: 1.4"/>
     <use xlink:href="#meb2796108a" x="242.659117" y="183.715999" style="fill: #d4dfda; stroke: #ffffff; stroke-width: 1.4"/>
     <use xlink:href="#meb2796108a" x="261.135372" y="115.73643" style="fill: #d4dfda; stroke: #ffffff; stroke-width: 1.4"/>
     <use xlink:href="#meb2796108a" x="279.611626" y="47.75686" style="fill: #d4dfda; stroke: #ffffff; stroke-width: 1.4"/>
     <use xlink:href="#meb2796108a" x="358.479398" y="251.695569" style="fill: #d4dfda; stroke: #ffffff; stroke-width: 1.4"/>
     <use xlink:href="#meb2796108a" x="376.955653" y="183.715999" style="fill: #d4dfda; stroke: #ffffff; stroke-width: 1.4"/>
     <use xlink:href="#meb2796108a" x="395.431907" y="115.73643" style="fill: #d4dfda; stroke: #ffffff; stroke-width: 1.4"/>
     <use xlink:href="#meb2796108a" x="413.908161" y="47.75686" style="fill: #d4dfda; stroke: #ffffff; stroke-width: 1.4"/>
    </g>
   </g>
   <g id="PathCollection_3">
    <defs>
     <path id="m436cae02a2" d="M 0 5.59017
C 1.48253 5.59017 2.90454 5.001154 3.952847 3.952847
C 5.001154 2.90454 5.59017 1.48253 5.59017 0
C 5.59017 -1.48253 5.001154 -2.90454 3.952847 -3.952847
C 2.90454 -5.001154 1.48253 -5.59017 0 -5.59017
C -1.48253 -5.59017 -2.90454 -5.001154 -3.952847 -3.952847
C -5.001154 -2.90454 -5.59017 -1.48253 -5.59017 0
C -5.59017 1.48253 -5.001154 2.90454 -3.952847 3.952847
C -2.90454 5.001154 -1.48253 5.59017 0 5.59017
z
" style="stroke: #ffffff; stroke-width: 1.4"/>
    </defs>
    <g clip-path="url(#pc7cd6314c0)">
     <use xlink:href="#m436cae02a2" x="157.034596" y="269.945882" style="fill: #91aaa6; stroke: #ffffff; stroke-width: 1.4"/>
     <use xlink:href="#m436cae02a2" x="175.51085" y="201.966313" style="fill: #91aaa6; stroke: #ffffff; stroke-width: 1.4"/>
     <use xlink:href="#m436cae02a2" x="193.987104" y="133.986743" style="fill: #91aaa6; stroke: #ffffff; stroke-width: 1.4"/>
     <use xlink:href="#m436cae02a2" x="212.463358" y="66.007174" style="fill: #91aaa6; stroke: #ffffff; stroke-width: 1.4"/>
     <use xlink:href="#m436cae02a2" x="291.331131" y="269.945882" style="fill: #91aaa6; stroke: #ffffff; stroke-width: 1.4"/>
     <use xlink:href="#m436cae02a2" x="309.807385" y="201.966313" style="fill: #91aaa6; stroke: #ffffff; stroke-width: 1.4"/>
     <use xlink:href="#m436cae02a2" x="328.283639" y="133.986743" style="fill: #91aaa6; stroke: #ffffff; stroke-width: 1.4"/>
     <use xlink:href="#m436cae02a2" x="346.759893" y="66.007174" style="fill: #91aaa6; stroke: #ffffff; stroke-width: 1.4"/>
     <use xlink:href="#m436cae02a2" x="425.627666" y="269.945882" style="fill: #91aaa6; stroke: #ffffff; stroke-width: 1.4"/>
     <use xlink:href="#m436cae02a2" x="444.10392" y="201.966313" style="fill: #91aaa6; stroke: #ffffff; stroke-width: 1.4"/>
     <use xlink:href="#m436cae02a2" x="462.580174" y="133.986743" style="fill: #91aaa6; stroke: #ffffff; stroke-width: 1.4"/>
     <use xlink:href="#m436cae02a2" x="481.056429" y="66.007174" style="fill: #91aaa6; stroke: #ffffff; stroke-width: 1.4"/>
    </g>
   </g>
   <g id="PathCollection_4">
    <defs>
     <path id="maa7a1e7612" d="M 0 6.480741
C 1.718713 6.480741 3.367262 5.797889 4.582576 4.582576
C 5.797889 3.367262 6.480741 1.718713 6.480741 0
C 6.480741 -1.718713 5.797889 -3.367262 4.582576 -4.582576
C 3.367262 -5.797889 1.718713 -6.480741 0 -6.480741
C -1.718713 -6.480741 -3.367262 -5.797889 -4.582576 -4.582576
C -5.797889 -3.367262 -6.480741 -1.718713 -6.480741 0
C -6.480741 1.718713 -5.797889 3.367262 -4.582576 4.582576
C -3.367262 5.797889 -1.718713 6.480741 0 6.480741
z
" style="stroke: #ffffff; stroke-width: 1.4"/>
    </defs>
    <g clip-path="url(#pc7cd6314c0)">
     <use xlink:href="#maa7a1e7612" x="108.362582" y="293.217881" style="fill: #176b72; stroke: #ffffff; stroke-width: 1.4"/>
     <use xlink:href="#maa7a1e7612" x="126.838836" y="225.238311" style="fill: #176b72; stroke: #ffffff; stroke-width: 1.4"/>
     <use xlink:href="#maa7a1e7612" x="145.315091" y="157.258742" style="fill: #176b72; stroke: #ffffff; stroke-width: 1.4"/>
     <use xlink:href="#maa7a1e7612" x="163.791345" y="89.279172" style="fill: #176b72; stroke: #ffffff; stroke-width: 1.4"/>
     <use xlink:href="#maa7a1e7612" x="242.659117" y="293.217881" style="fill: #176b72; stroke: #ffffff; stroke-width: 1.4"/>
     <use xlink:href="#maa7a1e7612" x="261.135372" y="225.238311" style="fill: #176b72; stroke: #ffffff; stroke-width: 1.4"/>
     <use xlink:href="#maa7a1e7612" x="279.611626" y="157.258742" style="fill: #176b72; stroke: #ffffff; stroke-width: 1.4"/>
     <use xlink:href="#maa7a1e7612" x="298.08788" y="89.279172" style="fill: #176b72; stroke: #ffffff; stroke-width: 1.4"/>
     <use xlink:href="#maa7a1e7612" x="376.955653" y="293.217881" style="fill: #176b72; stroke: #ffffff; stroke-width: 1.4"/>
     <use xlink:href="#maa7a1e7612" x="395.431907" y="225.238311" style="fill: #176b72; stroke: #ffffff; stroke-width: 1.4"/>
     <use xlink:href="#maa7a1e7612" x="413.908161" y="157.258742" style="fill: #176b72; stroke: #ffffff; stroke-width: 1.4"/>
     <use xlink:href="#maa7a1e7612" x="432.384415" y="89.279172" style="fill: #176b72; stroke: #ffffff; stroke-width: 1.4"/>
    </g>
   </g>
   <g id="line2d_10">
    <path d="M 32.663571 236.142923
L 166.960107 236.142923
L 185.436361 168.163353
L 51.139826 168.163353
L 32.663571 236.142923
" clip-path="url(#pc7cd6314c0)" style="fill: none; stroke: #173033; stroke-width: 1.6; stroke-linecap: square"/>
   </g>
   <g id="patch_2">
    <path d="M 43.407294 236.142923
Q 99.811839 236.142923 154.818841 236.142923
" style="fill: none; stroke: #173033; stroke-width: 1.25; stroke-linecap: round"/>
    <path d="M 150.818841 234.142923
L 154.818841 236.142923
L 150.818841 238.142923
z
" style="fill: #173033; stroke: #173033; stroke-width: 1.25; stroke-linecap: round"/>
   </g>
   <g id="patch_3">
    <path d="M 34.141672 230.704557
Q 41.901699 202.153138 49.295183 174.950337
" style="fill: none; stroke: #173033; stroke-width: 1.25; stroke-linecap: round"/>
    <path d="M 46.316091 178.285755
L 49.295183 174.950337
L 50.176062 179.334861
z
" style="fill: #173033; stroke: #173033; stroke-width: 1.25; stroke-linecap: round"/>
   </g>
   <g id="text_1">
    <!-- $\mathbf{a}_1$ -->
    <g style="fill: #173033" transform="translate(91.325908 234.063235)">
     <text>
      <tspan x="0" y="-0.40625" style="font-weight: 700; font-size: 10px; font-family: 'DejaVu Sans'; fill: #173033">a</tspan>
      <tspan x="6.84375" y="1.234375" style="font-size: 7px; font-family: 'DejaVu Sans'; fill: #173033">1</tspan>
     </text>
    </g>
   </g>
   <g id="text_2">
    <!-- $\mathbf{a}_2$ -->
    <g style="fill: #173033" transform="translate(29.932173 206.272104)">
     <text>
      <tspan x="0" y="-0.40625" style="font-weight: 700; font-size: 10px; font-family: 'DejaVu Sans'; fill: #173033">a</tspan>
      <tspan x="6.84375" y="1.234375" style="font-size: 7px; font-family: 'DejaVu Sans'; fill: #173033">2</tspan>
     </text>
    </g>
   </g>
   <g id="PathCollection_5">
    <defs>
     <path id="mbbbd9a269c" d="M 0 8.291562
C 2.198948 8.291562 4.308129 7.417911 5.86302 5.86302
C 7.417911 4.308129 8.291562 2.198948 8.291562 0
C 8.291562 -2.198948 7.417911 -4.308129 5.86302 -5.86302
C 4.308129 -7.417911 2.198948 -8.291562 0 -8.291562
C -2.198948 -8.291562 -4.308129 -7.417911 -5.86302 -5.86302
C -7.417911 -4.308129 -8.291562 -2.198948 -8.291562 0
C -8.291562 2.198948 -7.417911 4.308129 -5.86302 5.86302
C -4.308129 7.417911 -2.198948 8.291562 0 8.291562
z
" style="stroke: #ffffff; stroke-width: 2.4"/>
    </defs>
    <g clip-path="url(#pc7cd6314c0)">
     <use xlink:href="#mbbbd9a269c" x="126.838837" y="225.238311" style="fill: #d85f45; stroke: #ffffff; stroke-width: 2.4"/>
    </g>
   </g>
   <g id="PathCollection_6">
    <g clip-path="url(#pc7cd6314c0)">
     <use xlink:href="#mbbbd9a269c" x="175.51085" y="201.966313" style="fill: #d85f45; stroke: #ffffff; stroke-width: 2.4"/>
    </g>
   </g>
   <g id="PathCollection_7">
    <g clip-path="url(#pc7cd6314c0)">
     <use xlink:href="#mbbbd9a269c" x="136.076964" y="191.248526" style="fill: #d85f45; stroke: #ffffff; stroke-width: 2.4"/>
    </g>
   </g>
   <g id="PathCollection_8">
    <g clip-path="url(#pc7cd6314c0)">
     <use xlink:href="#mbbbd9a269c" x="160.41297" y="179.612527" style="fill: #d85f45; stroke: #ffffff; stroke-width: 2.4"/>
    </g>
   </g>
   <g id="PathCollection_9">
    <g clip-path="url(#pc7cd6314c0)">
     <use xlink:href="#mbbbd9a269c" x="140.810591" y="229.035712" style="fill: #d85f45; stroke: #ffffff; stroke-width: 2.4"/>
    </g>
   </g>
   <g id="text_3">
    <text style="font-weight: 700; font-size: 10px; font-family: 'DejaVu Sans'; text-anchor: middle; fill: #ffffff" x="126.838837" y="227.997686" transform="rotate(-0 126.838837 227.997686)">1</text>
   </g>
   <g id="text_4">
    <text style="font-weight: 700; font-size: 10px; font-family: 'DejaVu Sans'; text-anchor: middle; fill: #ffffff" x="175.51085" y="204.725688" transform="rotate(-0 175.51085 204.725688)">2</text>
   </g>
   <g id="text_5">
    <text style="font-weight: 700; font-size: 10px; font-family: 'DejaVu Sans'; text-anchor: middle; fill: #ffffff" x="136.076964" y="194.007901" transform="rotate(-0 136.076964 194.007901)">3</text>
   </g>
   <g id="text_6">
    <text style="font-weight: 700; font-size: 10px; font-family: 'DejaVu Sans'; text-anchor: middle; fill: #ffffff" x="160.41297" y="182.371902" transform="rotate(-0 160.41297 182.371902)">4</text>
   </g>
   <g id="text_7">
    <text style="font-weight: 700; font-size: 10px; font-family: 'DejaVu Sans'; text-anchor: middle; fill: #ffffff" x="140.810591" y="231.795087" transform="rotate(-0 140.810591 231.795087)">5</text>
   </g>
  </g>
 </g>
 <defs>
  <clipPath id="pc7cd6314c0">
   <rect x="5.76" y="5.76" width="502.2" height="332.64"/>
  </clipPath>
 </defs>
</svg>
