<?xml version="1.0" encoding="utf-8" standalone="no"?>
<!DOCTYPE svg PUBLIC "-//W3C//DTD SVG 1.1//EN"
  "http://www.w3.org/Graphics/SVG/1.1/DTD/svg11.dtd">
<svg xmlns:xlink="http://www.w3.org/1999/xlink" width="513.72pt" height="344.16pt" viewBox="0 0 513.72 344.16" xmlns="http://www.w3.org/2000/svg" version="1.1">
 <metadata>
  <rdf:RDF xmlns:dc="http://purl.org/dc/elements/1.1/" xmlns:cc="http://creativecommons.org/ns#" xmlns:rdf="http://www.w3.org/1999/02/22-rdf-syntax-ns#">
   <cc:Work>
    <dc:type rdf:resource="http://purl.org/dc/dcmitype/StillImage"/>
    <dc:format>image/svg+xml</dc:format>
    <dc:creator>
     <cc:Agent>
      <dc:title>tools/generate_surface_figures.py</dc:title>
     </cc:Agent>
    </dc:creator>
   </cc:Work>
  </rdf:RDF>
 </metadata>
 <defs>
  <style type="text/css">*{stroke-linejoin: round; stroke-linecap: butt}</style>
 </defs>
 <g id="figure_1">
  <g id="patch_1">
   <path d="M 0 344.16
L 513.72 344.16
L 513.72 0
L 0 0
z
" style="fill: #ffffff"/>
  </g>
  <g id="axes_1">
   <g id="line2d_1">
    <path d="M 127.439545 158.58
L 160.575909 212.58
" clip-path="url(#pc7cd6314c0)" style="fill: none; stroke: #bfd0cb; stroke-width: 1.15; stroke-linecap: square"/>
   </g>
   <g id="line2d_2">
    <path d="M 215.439545 104.58
L 248.575909 158.58
" clip-path="url(#pc7cd6314c0)" style="fill: none; stroke: #bfd0cb; stroke-width: 1.15; stroke-linecap: square"/>
   </g>
   <g id="line2d_3">
    <path d="M 303.439545 50.58
L 336.575909 104.58
" clip-path="url(#pc7cd6314c0)" style="fill: none; stroke: #bfd0cb; stroke-width: 1.15; stroke-linecap: square"/>
   </g>
   <g id="line2d_4">
    <path d="M 160.575909 212.58
L 193.712273 266.58
" clip-path="url(#pc7cd6314c0)" style="fill: none; stroke: #bfd0cb; stroke-width: 1.15; stroke-linecap: square"/>
   </g>
   <g id="line2d_5">
    <path d="M 248.575909 158.58
L 281.712273 212.58
" clip-path="url(#pc7cd6314c0)" style="fill: none; stroke: #bfd0cb; stroke-width: 1.15; stroke-linecap: square"/>
   </g>
   <g id="line2d_6">
    <path d="M 336.575909 104.58
L 369.712273 158.58
" clip-path="url(#pc7cd6314c0)" style="fill: none; stroke: #bfd0cb; stroke-width: 1.15; stroke-linecap: square"/>
   </g>
   <g id="line2d_7">
    <path d="M 193.712273 266.58
L 226.848636 320.58
" clip-path="url(#pc7cd6314c0)" style="fill: none; stroke: #bfd0cb; stroke-width: 1.15; stroke-linecap: square"/>
   </g>
   <g id="line2d_8">
    <path d="M 281.712273 212.58
L 314.848636 266.58
" clip-path="url(#pc7cd6314c0)" style="fill: none; stroke: #bfd0cb; stroke-width: 1.15; stroke-linecap: square"/>
   </g>
   <g id="line2d_9">
    <path d="M 369.712273 158.58
L 402.848636 212.58
" clip-path="url(#pc7cd6314c0)" style="fill: none; stroke: #bfd0cb; stroke-width: 1.15; stroke-linecap: square"/>
   </g>
   <g id="PathCollection_1">
    <defs>
     <path id="m818f9cbcf1" d="M 0 4.1833
C 1.109424 4.1833 2.173559 3.742521 2.95804 2.95804
C 3.742521 2.173559 4.1833 1.109424 4.1833 0
C 4.1833 -1.109424 3.742521 -2.173559 2.95804 -2.95804
C 2.173559 -3.742521 1.109424 -4.1833 0 -4.1833
C -1.109424 -4.1833 -2.173559 -3.742521 -2.95804 -2.95804
C -3.742521 -2.173559 -4.1833 -1.109424 -4.1833 0
C -4.1833 1.109424 -3.742521 2.173559 -2.95804 2.95804
C -2.173559 3.742521 -1.109424 4.1833 0 4.1833
z
" style="stroke: #ffffff; stroke-width: 1.4"/>
    </defs>
    <g clip-path="url(#pc7cd6314c0)">
     <use xlink:href="#m818f9cbcf1" x="110.871364" y="131.58" style="fill: #e9efeb; stroke: #ffffff; stroke-width: 1.4"/>
     <use xlink:href="#m818f9cbcf1" x="198.871364" y="77.58" style="fill: #e9efeb; stroke: #ffffff; stroke-width: 1.4"/>
     <use xlink:href="#m818f9cbcf1" x="286.871364" y="23.58" style="fill: #e9efeb; stroke: #ffffff; stroke-width: 1.4"/>
     <use xlink:href="#m818f9cbcf1" x="144.007727" y="185.58" style="fill: #e9efeb; stroke: #ffffff; stroke-width: 1.4"/>
     <use xlink:href="#m818f9cbcf1" x="232.007727" y="131.58" style="fill: #e9efeb; stroke: #ffffff; stroke-width: 1.4"/>
     <use xlink:href="#m818f9cbcf1" x="320.007727" y="77.58" style="fill: #e9efeb; stroke: #ffffff; stroke-width: 1.4"/>
     <use xlink:href="#m818f9cbcf1" x="177.144091" y="239.58" style="fill: #e9efeb; stroke: #ffffff; stroke-width: 1.4"/>
     <use xlink:href="#m818f9cbcf1" x="265.144091" y="185.58" style="fill: #e9efeb; stroke: #ffffff; stroke-width: 1.4"/>
     <use xlink:href="#m818f9cbcf1" x="353.144091" y="131.58" style="fill: #e9efeb; stroke: #ffffff; stroke-width: 1.4"/>
     <use xlink:href="#m818f9cbcf1" x="210.280455" y="293.58" style="fill: #e9efeb; stroke: #ffffff; stroke-width: 1.4"/>
     <use xlink:href="#m818f9cbcf1" x="298.280455" y="239.58" style="fill: #e9efeb; stroke: #ffffff; stroke-width: 1.4"/>
     <use xlink:href="#m818f9cbcf1" x="386.280455" y="185.58" style="fill: #e9efeb; stroke: #ffffff; stroke-width: 1.4"/>
    </g>
   </g>
   <g id="PathCollection_2">
    <defs>
     <path id="meb2796108a" d="M 0 4.84768
C 1.28562 4.84768 2.518757 4.336898 3.427827 3.427827
C 4.336898 2.518757 4.84768 1.28562 4.84768 0
C 4.84768 -1.28562 4.336898 -2.518757 3.427827 -3.427827
C 2.518757 -4.336898 1.28562 -4.84768 0 -4.84768
C -1.28562 -4.84768 -2.518757 -4.336898 -3.427827 -3.427827
C -4.336898 -2.518757 -4.84768 -1.28562 -4.84768 0
C -4.84768 1.28562 -4.336898 2.518757 -3.427827 3.427827
C -2.518757 4.336898 -1.28562 4.84768 0 4.84768
z
" style="stroke: #ffffff; stroke-width: 1.4"/>
    </defs>
    <g clip-path="url(#pc7cd6314c0)">
     <use xlink:href="#meb2796108a" x="127.439545" y="158.58" style="fill: #d4dfda; stroke: #ffffff; stroke-width: 1.4"/>
     <use xlink:href="#meb2796108a" x="215.439545" y="104.58" style="fill: #d4dfda; stroke: #ffffff; stroke-width: 1.4"/>
     <use xlink:href="#meb2796108a" x="303.439545" y="50.58" style="fill: #d4dfda; stroke: #ffffff; stroke-width: 1.4"/>
     <use xlink:href="#meb2796108a" x="160.575909" y="212.58" style="fill: #d4dfda; stroke: #ffffff; stroke-width: 1.4"/>
     <use xlink:href="#meb2796108a" x="248.575909" y="158.58" style="fill: #d4dfda; stroke: #ffffff; stroke-width: 1.4"/>
     <use xlink:href="#meb2796108a" x="336.575909" y="104.58" style="fill: #d4dfda; stroke: #ffffff; stroke-width: 1.4"/>
     <use xlink:href="#meb2796108a" x="193.712273" y="266.58" style="fill: #d4dfda; stroke: #ffffff; stroke-width: 1.4"/>
     <use xlink:href="#meb2796108a" x="281.712273" y="212.58" style="fill: #d4dfda; stroke: #ffffff; stroke-width: 1.4"/>
     <use xlink:href="#meb2796108a" x="369.712273" y="158.58" style="fill: #d4dfda; stroke: #ffffff; stroke-width: 1.4"/>
     <use xlink:href="#meb2796108a" x="226.848636" y="320.58" style="fill: #d4dfda; stroke: #ffffff; stroke-width: 1.4"/>
     <use xlink:href="#meb2796108a" x="314.848636" y="266.58" style="fill: #d4dfda; stroke: #ffffff; stroke-width: 1.4"/>
     <use xlink:href="#meb2796108a" x="402.848636" y="212.58" style="fill: #d4dfda; stroke: #ffffff; stroke-width: 1.4"/>
    </g>
   </g>
   <g id="PathCollection_3">
    <defs>
     <path id="m436cae02a2" d="M 0 5.59017
C 1.48253 5.59017 2.90454 5.001154 3.952847 3.952847
C 5.001154 2.90454 5.59017 1.48253 5.59017 0
C 5.59017 -1.48253 5.001154 -2.90454 3.952847 -3.952847
C 2.90454 -5.001154 1.48253 -5.59017 0 -5.59017
C -1.48253 -5.59017 -2.90454 -5.001154 -3.952847 -3.952847
C -5.001154 -2.90454 -5.59017 -1.48253 -5.59017 0
C -5.59017 1.48253 -5.001154 2.90454 -3.952847 3.952847
C -2.90454 5.001154 -1.48253 5.59017 0 5.59017
z
" style="stroke: #ffffff; stroke-width: 1.4"/>
    </defs>
    <g clip-path="url(#pc7cd6314c0)">
     <use xlink:href="#m436cae02a2" x="110.871364" y="131.58" style="fill: #91aaa6; stroke: #ffffff; stroke-width: 1.4"/>
     <use xlink:href="#m436cae02a2" x="198.871364" y="77.58" style="fill: #91aaa6; stroke: #ffffff; stroke-width: 1.4"/>
     <use xlink:href="#m436cae02a2" x="286.871364" y="23.58" style="fill: #91aaa6; stroke: #ffffff; stroke-width: 1.4"/>
     <use xlink:href="#m436cae02a2" x="144.007727" y="185.58" style="fill: #91aaa6; stroke: #ffffff; stroke-width: 1.4"/>
     <use xlink:href="#m436cae02a2" x="232.007727" y="131.58" style="fill: #91aaa6; stroke: #ffffff; stroke-width: 1.4"/>
     <use xlink:href="#m436cae02a2" x="320.007727" y="77.58" style="fill: #91aaa6; stroke: #ffffff; stroke-width: 1.4"/>
     <use xlink:href="#m436cae02a2" x="177.144091" y="239.58" style="fill: #91aaa6; stroke: #ffffff; stroke-width: 1.4"/>
     <use xlink:href="#m436cae02a2" x="265.144091" y="185.58" style="fill: #91aaa6; stroke: #ffffff; stroke-width: 1.4"/>
     <use xlink:href="#m436cae02a2" x="353.144091" y="131.58" style="fill: #91aaa6; stroke: #ffffff; stroke-width: 1.4"/>
     <use xlink:href="#m436cae02a2" x="210.280455" y="293.58" style="fill: #91aaa6; stroke: #ffffff; stroke-width: 1.4"/>
     <use xlink:href="#m436cae02a2" x="298.280455" y="239.58" style="fill: #91aaa6; stroke: #ffffff; stroke-width: 1.4"/>
     <use xlink:href="#m436cae02a2" x="386.280455" y="185.58" style="fill: #91aaa6; stroke: #ffffff; stroke-width: 1.4"/>
    </g>
   </g>
   <g id="PathCollection_4">
    <defs>
     <path id="maa7a1e7612" d="M 0 6.480741
C 1.718713 6.480741 3.367262 5.797889 4.582576 4.582576
C 5.797889 3.367262 6.480741 1.718713 6.480741 0
C 6.480741 -1.718713 5.797889 -3.367262 4.582576 -4.582576
C 3.367262 -5.797889 1.718713 -6.480741 0 -6.480741
C -1.718713 -6.480741 -3.367262 -5.797889 -4.582576 -4.582576
C -5.797889 -3.367262 -6.480741 -1.718713 -6.480741 0
C -6.480741 1.718713 -5.797889 3.367262 -4.582576 4.582576
C -3.367262 5.797889 -1.718713 6.480741 0 6.480741
z
" style="stroke: #ffffff; stroke-width: 1.4"/>
    </defs>
    <g clip-path="url(#pc7cd6314c0)">
     <use xlink:href="#maa7a1e7612" x="127.439545" y="158.58" style="fill: #176b72; stroke: #ffffff; stroke-width: 1.4"/>
     <use xlink:href="#maa7a1e7612" x="215.439545" y="104.58" style="fill: #176b72; stroke: #ffffff; stroke-width: 1.4"/>
     <use xlink:href="#maa7a1e7612" x="303.439545" y="50.58" style="fill: #176b72; stroke: #ffffff; stroke-width: 1.4"/>
     <use xlink:href="#maa7a1e7612" x="160.575909" y="212.58" style="fill: #176b72; stroke: #ffffff; stroke-width: 1.4"/>
     <use xlink:href="#maa7a1e7612" x="248.575909" y="158.58" style="fill: #176b72; stroke: #ffffff; stroke-width: 1.4"/>
     <use xlink:href="#maa7a1e7612" x="336.575909" y="104.58" style="fill: #176b72; stroke: #ffffff; stroke-width: 1.4"/>
     <use xlink:href="#maa7a1e7612" x="193.712273" y="266.58" style="fill: #176b72; stroke: #ffffff; stroke-width: 1.4"/>
     <use xlink:href="#maa7a1e7612" x="281.712273" y="212.58" style="fill: #176b72; stroke: #ffffff; stroke-width: 1.4"/>
     <use xlink:href="#maa7a1e7612" x="369.712273" y="158.58" style="fill: #176b72; stroke: #ffffff; stroke-width: 1.4"/>
     <use xlink:href="#maa7a1e7612" x="226.848636" y="320.58" style="fill: #176b72; stroke: #ffffff; stroke-width: 1.4"/>
     <use xlink:href="#maa7a1e7612" x="314.848636" y="266.58" style="fill: #176b72; stroke: #ffffff; stroke-width: 1.4"/>
     <use xlink:href="#maa7a1e7612" x="402.848636" y="212.58" style="fill: #176b72; stroke: #ffffff; stroke-width: 1.4"/>
    </g>
   </g>
   <g id="line2d_10">
    <path d="M 144.007727 185.58
L 177.144091 239.58
L 265.144091 185.58
L 232.007727 131.58
L 144.007727 185.58
" clip-path="url(#pc7cd6314c0)" style="fill: none; stroke: #173033; stroke-width: 1.6; stroke-linecap: square"/>
   </g>
   <g id="patch_2">
    <path d="M 146.658636 189.9
Q 160.575909 212.58 173.762244 234.068843
" style="fill: none; stroke: #173033; stroke-width: 1.25; stroke-linecap: round"/>
    <path d="M 173.374825 229.613519
L 173.762244 234.068843
L 169.965534 231.705584
z
" style="fill: #173033; stroke: #173033; stroke-width: 1.25; stroke-linecap: round"/>
   </g>
   <g id="patch_3">
    <path d="M 151.047727 181.26
Q 188.007727 158.58 223.77657 136.630937
" style="fill: none; stroke: #173033; stroke-width: 1.25; stroke-linecap: round"/>
    <path d="M 219.321247 137.018357
L 223.77657 136.630937
L 221.413312 140.427648
z
" style="fill: #173033; stroke: #173033; stroke-width: 1.25; stroke-linecap: round"/>
   </g>
   <g id="text_1">
    <!-- $\mathbf{a}_1$ -->
    <g style="fill: #173033" transform="translate(154.113182 209.097656)">
     <text>
      <tspan x="0" y="-0.40625" style="font-weight: 700; font-size: 10px; font-family: 'DejaVu Sans'; fill: #173033">a</tspan>
      <tspan x="6.84375" y="1.093745" style="font-size: 7px; font-family: 'DejaVu Sans'; fill: #173033">1</tspan>
     </text>
    </g>
   </g>
   <g id="text_2">
    <!-- $\mathbf{a}_2$ -->
    <g style="fill: #173033" transform="translate(174.647727 162.257656)">
     <text>
      <tspan x="0" y="-0.40625" style="font-weight: 700; font-size: 10px; font-family: 'DejaVu Sans'; fill: #173033">a</tspan>
      <tspan x="6.84375" y="1.093745" style="font-size: 7px; font-family: 'DejaVu Sans'; fill: #173033">2</tspan>
     </text>
    </g>
   </g>
   <g id="PathCollection_5">
    <defs>
     <path id="me1f2d3b17a" d="M 0 8.291562
C 2.198948 8.291562 4.308129 7.417911 5.86302 5.86302
C 7.417911 4.308129 8.291562 2.198948 8.291562 0
C 8.291562 -2.198948 7.417911 -4.308129 5.86302 -5.86302
C 4.308129 -7.417911 2.198948 -8.291562 0 -8.291562
C -2.198948 -8.291562 -4.308129 -7.417911 -5.86302 -5.86302
C -7.417911 -4.308129 -8.291562 -2.198948 -8.291562 0
C -8.291562 2.198948 -7.417911 4.308129 -5.86302 5.86302
C -4.308129 7.417911 -2.198948 8.291562 0 8.291562
z
" style="stroke: #ffffff; stroke-width: 2.4"/>
    </defs>
    <g clip-path="url(#pc7cd6314c0)">
     <use xlink:href="#me1f2d3b17a" x="160.575909" y="212.58" style="fill: #a96824; stroke: #ffffff; stroke-width: 2.4"/>
    </g>
   </g>
   <g id="PathCollection_6">
    <g clip-path="url(#pc7cd6314c0)">
     <use xlink:href="#me1f2d3b17a" x="144.007727" y="185.58" style="fill: #a96824; stroke: #ffffff; stroke-width: 2.4"/>
    </g>
   </g>
   <g id="PathCollection_7">
    <g clip-path="url(#pc7cd6314c0)">
     <use xlink:href="#me1f2d3b17a" x="204.575909" y="185.58" style="fill: #a96824; stroke: #ffffff; stroke-width: 2.4"/>
    </g>
   </g>
   <g id="PathCollection_8">
    <g clip-path="url(#pc7cd6314c0)">
     <use xlink:href="#me1f2d3b17a" x="188.007727" y="158.58" style="fill: #a96824; stroke: #ffffff; stroke-width: 2.4"/>
    </g>
   </g>
   <g id="text_3">
    <text style="font-weight: 700; font-size: 10px; font-family: 'DejaVu Sans'; text-anchor: middle; fill: #ffffff" x="160.575909" y="215.177656" transform="rotate(-0 160.575909 215.177656)">1</text>
   </g>
   <g id="text_4">
    <text style="font-weight: 700; font-size: 10px; font-family: 'DejaVu Sans'; text-anchor: middle; fill: #ffffff" x="144.007727" y="188.177656" transform="rotate(-0 144.007727 188.177656)">2</text>
   </g>
   <g id="text_5">
    <text style="font-weight: 700; font-size: 10px; font-family: 'DejaVu Sans'; text-anchor: middle; fill: #ffffff" x="204.575909" y="188.177656" transform="rotate(-0 204.575909 188.177656)">3</text>
   </g>
   <g id="text_6">
    <text style="font-weight: 700; font-size: 10px; font-family: 'DejaVu Sans'; text-anchor: middle; fill: #ffffff" x="188.007727" y="161.177656" transform="rotate(-0 188.007727 161.177656)">4</text>
   </g>
  </g>
 </g>
 <defs>
  <clipPath id="pc7cd6314c0">
   <rect x="5.76" y="5.76" width="502.2" height="332.64"/>
  </clipPath>
 </defs>
</svg>
