<?xml version="1.0" encoding="utf-8" standalone="no"?>
<!DOCTYPE svg PUBLIC "-//W3C//DTD SVG 1.1//EN"
  "http://www.w3.org/Graphics/SVG/1.1/DTD/svg11.dtd">
<svg xmlns:xlink="http://www.w3.org/1999/xlink" width="457.92pt" height="288.72pt" viewBox="0 0 457.92 288.72" xmlns="http://www.w3.org/2000/svg" version="1.1">
 <metadata>
  <rdf:RDF xmlns:dc="http://purl.org/dc/elements/1.1/" xmlns:cc="http://creativecommons.org/ns#" xmlns:rdf="http://www.w3.org/1999/02/22-rdf-syntax-ns#">
   <cc:Work>
    <dc:type rdf:resource="http://purl.org/dc/dcmitype/StillImage"/>
    <dc:format>image/svg+xml</dc:format>
    <dc:creator>
     <cc:Agent>
      <dc:title>tools/generate_surface_figures.py</dc:title>
     </cc:Agent>
    </dc:creator>
   </cc:Work>
  </rdf:RDF>
 </metadata>
 <defs>
  <style type="text/css">*{stroke-linejoin: round; stroke-linecap: butt}</style>
 </defs>
 <g id="figure_1">
  <g id="patch_1">
   <path d="M 0 288.72
L 457.92 288.72
L 457.92 0
L 0 0
z
" style="fill: #ffffff"/>
  </g>
  <g id="axes_1">
   <g id="PathCollection_1">
    <defs>
     <path id="m3f70b8e8a4" d="M 0 4.301163
C 1.140682 4.301163 2.234798 3.847965 3.041381 3.041381
C 3.847965 2.234798 4.301163 1.140682 4.301163 0
C 4.301163 -1.140682 3.847965 -2.234798 3.041381 -3.041381
C 2.234798 -3.847965 1.140682 -4.301163 0 -4.301163
C -1.140682 -4.301163 -2.234798 -3.847965 -3.041381 -3.041381
C -3.847965 -2.234798 -4.301163 -1.140682 -4.301163 0
C -4.301163 1.140682 -3.847965 2.234798 -3.041381 3.041381
C -2.234798 3.847965 -1.140682 4.301163 0 4.301163
z
" style="stroke: #ffffff; stroke-opacity: 0.48; stroke-width: 1.2"/>
    </defs>
    <g clip-path="url(#p948fd671a4)">
     <use xlink:href="#m3f70b8e8a4" x="163.612887" y="250.909296" style="fill: #d4dfda; fill-opacity: 0.48; stroke: #ffffff; stroke-opacity: 0.48; stroke-width: 1.2"/>
     <use xlink:href="#m3f70b8e8a4" x="151.660047" y="206.792512" style="fill: #d4dfda; fill-opacity: 0.48; stroke: #ffffff; stroke-opacity: 0.48; stroke-width: 1.2"/>
     <use xlink:href="#m3f70b8e8a4" x="139.707207" y="162.675729" style="fill: #d4dfda; fill-opacity: 0.48; stroke: #ffffff; stroke-opacity: 0.48; stroke-width: 1.2"/>
     <use xlink:href="#m3f70b8e8a4" x="127.754366" y="118.558945" style="fill: #d4dfda; fill-opacity: 0.48; stroke: #ffffff; stroke-opacity: 0.48; stroke-width: 1.2"/>
     <use xlink:href="#m3f70b8e8a4" x="239.05187" y="206.792512" style="fill: #d4dfda; fill-opacity: 0.48; stroke: #ffffff; stroke-opacity: 0.48; stroke-width: 1.2"/>
     <use xlink:href="#m3f70b8e8a4" x="227.09903" y="162.675729" style="fill: #d4dfda; fill-opacity: 0.48; stroke: #ffffff; stroke-opacity: 0.48; stroke-width: 1.2"/>
     <use xlink:href="#m3f70b8e8a4" x="215.146189" y="118.558945" style="fill: #d4dfda; fill-opacity: 0.48; stroke: #ffffff; stroke-opacity: 0.48; stroke-width: 1.2"/>
     <use xlink:href="#m3f70b8e8a4" x="203.193349" y="74.442161" style="fill: #d4dfda; fill-opacity: 0.48; stroke: #ffffff; stroke-opacity: 0.48; stroke-width: 1.2"/>
     <use xlink:href="#m3f70b8e8a4" x="314.490853" y="162.675729" style="fill: #d4dfda; fill-opacity: 0.48; stroke: #ffffff; stroke-opacity: 0.48; stroke-width: 1.2"/>
     <use xlink:href="#m3f70b8e8a4" x="302.538012" y="118.558945" style="fill: #d4dfda; fill-opacity: 0.48; stroke: #ffffff; stroke-opacity: 0.48; stroke-width: 1.2"/>
     <use xlink:href="#m3f70b8e8a4" x="290.585172" y="74.442161" style="fill: #d4dfda; fill-opacity: 0.48; stroke: #ffffff; stroke-opacity: 0.48; stroke-width: 1.2"/>
     <use xlink:href="#m3f70b8e8a4" x="278.632332" y="30.325377" style="fill: #d4dfda; fill-opacity: 0.48; stroke: #ffffff; stroke-opacity: 0.48; stroke-width: 1.2"/>
    </g>
   </g>
   <g id="PathCollection_2">
    <defs>
     <path id="mc75a629b30" d="M 0 4.949747
C 1.312688 4.949747 2.571789 4.428211 3.5 3.5
C 4.428211 2.571789 4.949747 1.312688 4.949747 0
C 4.949747 -1.312688 4.428211 -2.571789 3.5 -3.5
C 2.571789 -4.428211 1.312688 -4.949747 0 -4.949747
C -1.312688 -4.949747 -2.571789 -4.428211 -3.5 -3.5
C -4.428211 -2.571789 -4.949747 -1.312688 -4.949747 0
C -4.949747 1.312688 -4.428211 2.571789 -3.5 3.5
C -2.571789 4.428211 -1.312688 4.949747 0 4.949747
z
" style="stroke: #ffffff; stroke-opacity: 0.72; stroke-width: 1.2"/>
    </defs>
    <g clip-path="url(#p948fd671a4)">
     <use xlink:href="#mc75a629b30" x="187.518568" y="268.11" style="fill: #91aaa6; fill-opacity: 0.72; stroke: #ffffff; stroke-opacity: 0.72; stroke-width: 1.2"/>
     <use xlink:href="#mc75a629b30" x="175.565728" y="223.993216" style="fill: #91aaa6; fill-opacity: 0.72; stroke: #ffffff; stroke-opacity: 0.72; stroke-width: 1.2"/>
     <use xlink:href="#mc75a629b30" x="163.612887" y="179.876432" style="fill: #91aaa6; fill-opacity: 0.72; stroke: #ffffff; stroke-opacity: 0.72; stroke-width: 1.2"/>
     <use xlink:href="#mc75a629b30" x="151.660047" y="135.759648" style="fill: #91aaa6; fill-opacity: 0.72; stroke: #ffffff; stroke-opacity: 0.72; stroke-width: 1.2"/>
     <use xlink:href="#mc75a629b30" x="262.957551" y="223.993216" style="fill: #91aaa6; fill-opacity: 0.72; stroke: #ffffff; stroke-opacity: 0.72; stroke-width: 1.2"/>
     <use xlink:href="#mc75a629b30" x="251.00471" y="179.876432" style="fill: #91aaa6; fill-opacity: 0.72; stroke: #ffffff; stroke-opacity: 0.72; stroke-width: 1.2"/>
     <use xlink:href="#mc75a629b30" x="239.05187" y="135.759648" style="fill: #91aaa6; fill-opacity: 0.72; stroke: #ffffff; stroke-opacity: 0.72; stroke-width: 1.2"/>
     <use xlink:href="#mc75a629b30" x="227.09903" y="91.642864" style="fill: #91aaa6; fill-opacity: 0.72; stroke: #ffffff; stroke-opacity: 0.72; stroke-width: 1.2"/>
     <use xlink:href="#mc75a629b30" x="338.396533" y="179.876432" style="fill: #91aaa6; fill-opacity: 0.72; stroke: #ffffff; stroke-opacity: 0.72; stroke-width: 1.2"/>
     <use xlink:href="#mc75a629b30" x="326.443693" y="135.759648" style="fill: #91aaa6; fill-opacity: 0.72; stroke: #ffffff; stroke-opacity: 0.72; stroke-width: 1.2"/>
     <use xlink:href="#mc75a629b30" x="314.490853" y="91.642864" style="fill: #91aaa6; fill-opacity: 0.72; stroke: #ffffff; stroke-opacity: 0.72; stroke-width: 1.2"/>
     <use xlink:href="#mc75a629b30" x="302.538012" y="47.52608" style="fill: #91aaa6; fill-opacity: 0.72; stroke: #ffffff; stroke-opacity: 0.72; stroke-width: 1.2"/>
    </g>
   </g>
   <g id="PathCollection_3">
    <defs>
     <path id="ma916b23e30" d="M 0 5.700877
C 1.51189 5.700877 2.962061 5.100197 4.031129 4.031129
C 5.100197 2.962061 5.700877 1.51189 5.700877 0
C 5.700877 -1.51189 5.100197 -2.962061 4.031129 -4.031129
C 2.962061 -5.100197 1.51189 -5.700877 0 -5.700877
C -1.51189 -5.700877 -2.962061 -5.100197 -4.031129 -4.031129
C -5.100197 -2.962061 -5.700877 -1.51189 -5.700877 0
C -5.700877 1.51189 -5.100197 2.962061 -4.031129 4.031129
C -2.962061 5.100197 -1.51189 5.700877 0 5.700877
z
" style="stroke: #ffffff; stroke-width: 1.2"/>
    </defs>
    <g clip-path="url(#p948fd671a4)">
     <use xlink:href="#ma916b23e30" x="199.471408" y="241.19392" style="fill: #176b72; stroke: #ffffff; stroke-width: 1.2"/>
     <use xlink:href="#ma916b23e30" x="187.518568" y="197.077136" style="fill: #176b72; stroke: #ffffff; stroke-width: 1.2"/>
     <use xlink:href="#ma916b23e30" x="175.565728" y="152.960352" style="fill: #176b72; stroke: #ffffff; stroke-width: 1.2"/>
     <use xlink:href="#ma916b23e30" x="163.612887" y="108.843568" style="fill: #176b72; stroke: #ffffff; stroke-width: 1.2"/>
     <use xlink:href="#ma916b23e30" x="274.910391" y="197.077136" style="fill: #176b72; stroke: #ffffff; stroke-width: 1.2"/>
     <use xlink:href="#ma916b23e30" x="262.957551" y="152.960352" style="fill: #176b72; stroke: #ffffff; stroke-width: 1.2"/>
     <use xlink:href="#ma916b23e30" x="251.00471" y="108.843568" style="fill: #176b72; stroke: #ffffff; stroke-width: 1.2"/>
     <use xlink:href="#ma916b23e30" x="239.05187" y="64.726784" style="fill: #176b72; stroke: #ffffff; stroke-width: 1.2"/>
     <use xlink:href="#ma916b23e30" x="350.349374" y="152.960352" style="fill: #176b72; stroke: #ffffff; stroke-width: 1.2"/>
     <use xlink:href="#ma916b23e30" x="338.396533" y="108.843568" style="fill: #176b72; stroke: #ffffff; stroke-width: 1.2"/>
     <use xlink:href="#ma916b23e30" x="326.443693" y="64.726784" style="fill: #176b72; stroke: #ffffff; stroke-width: 1.2"/>
     <use xlink:href="#ma916b23e30" x="314.490853" y="20.61" style="fill: #176b72; stroke: #ffffff; stroke-width: 1.2"/>
    </g>
   </g>
   <g id="line2d_1">
    <path d="M 119.523467 262.854723
L 194.962449 218.737939
L 183.009609 174.621155
L 107.570626 218.737939
L 119.523467 262.854723
" clip-path="url(#p948fd671a4)" style="fill: none; stroke: #173033; stroke-width: 1.6; stroke-linecap: square"/>
   </g>
  </g>
 </g>
 <defs>
  <clipPath id="p948fd671a4">
   <rect x="5.76" y="5.76" width="446.4" height="277.2"/>
  </clipPath>
 </defs>
</svg>
