<?xml version="1.0" encoding="utf-8" standalone="no"?>
<!DOCTYPE svg PUBLIC "-//W3C//DTD SVG 1.1//EN"
  "http://www.w3.org/Graphics/SVG/1.1/DTD/svg11.dtd">
<svg xmlns:xlink="http://www.w3.org/1999/xlink" width="457.92pt" height="288.72pt" viewBox="0 0 457.92 288.72" xmlns="http://www.w3.org/2000/svg" version="1.1">
 <metadata>
  <rdf:RDF xmlns:dc="http://purl.org/dc/elements/1.1/" xmlns:cc="http://creativecommons.org/ns#" xmlns:rdf="http://www.w3.org/1999/02/22-rdf-syntax-ns#">
   <cc:Work>
    <dc:type rdf:resource="http://purl.org/dc/dcmitype/StillImage"/>
    <dc:format>image/svg+xml</dc:format>
    <dc:creator>
     <cc:Agent>
      <dc:title>tools/generate_surface_figures.py</dc:title>
     </cc:Agent>
    </dc:creator>
   </cc:Work>
  </rdf:RDF>
 </metadata>
 <defs>
  <style type="text/css">*{stroke-linejoin: round; stroke-linecap: butt}</style>
 </defs>
 <g id="figure_1">
  <g id="patch_1">
   <path d="M 0 288.72
L 457.92 288.72
L 457.92 0
L 0 0
z
" style="fill: #ffffff"/>
  </g>
  <g id="axes_1">
   <g id="line2d_1">
    <path d="M 5.76 109.530611
L 452.16 109.530611
" clip-path="url(#p3cfdd654dc)" style="fill: none; stroke-dasharray: 6,6; stroke-dashoffset: 0; stroke: #d85f45; stroke-width: 1.5"/>
   </g>
   <g id="PathCollection_1">
    <defs>
     <path id="m8b2a0f466a" d="M 0 3.464102
C 0.91869 3.464102 1.799877 3.099102 2.44949 2.44949
C 3.099102 1.799877 3.464102 0.91869 3.464102 0
C 3.464102 -0.91869 3.099102 -1.799877 2.44949 -2.44949
C 1.799877 -3.099102 0.91869 -3.464102 0 -3.464102
C -0.91869 -3.464102 -1.799877 -3.099102 -2.44949 -2.44949
C -3.099102 -1.799877 -3.464102 -0.91869 -3.464102 0
C -3.464102 0.91869 -3.099102 1.799877 -2.44949 2.44949
C -1.799877 3.099102 -0.91869 3.464102 0 3.464102
z
" style="stroke: #ffffff"/>
    </defs>
    <g clip-path="url(#p3cfdd654dc)">
     <use xlink:href="#m8b2a0f466a" x="18.393962" y="179.189389" style="fill: #eef2ef; stroke: #ffffff"/>
    </g>
   </g>
   <g id="PathCollection_2">
    <g clip-path="url(#p3cfdd654dc)">
     <use xlink:href="#m8b2a0f466a" x="23.407439" y="179.189389" style="fill: #eef2ef; stroke: #ffffff"/>
    </g>
   </g>
   <g id="PathCollection_3">
    <g clip-path="url(#p3cfdd654dc)">
     <use xlink:href="#m8b2a0f466a" x="88.582642" y="179.189389" style="fill: #eef2ef; stroke: #ffffff"/>
    </g>
   </g>
   <g id="PathCollection_4">
    <g clip-path="url(#p3cfdd654dc)">
     <use xlink:href="#m8b2a0f466a" x="93.596119" y="179.189389" style="fill: #eef2ef; stroke: #ffffff"/>
    </g>
   </g>
   <g id="PathCollection_5">
    <defs>
     <path id="m0f1d1328e9" d="M 0 3.5
C 0.928211 3.5 1.81853 3.131218 2.474874 2.474874
C 3.131218 1.81853 3.5 0.928211 3.5 0
C 3.5 -0.928211 3.131218 -1.81853 2.474874 -2.474874
C 1.81853 -3.131218 0.928211 -3.5 0 -3.5
C -0.928211 -3.5 -1.81853 -3.131218 -2.474874 -2.474874
C -3.131218 -1.81853 -3.5 -0.928211 -3.5 0
C -3.5 0.928211 -3.131218 1.81853 -2.474874 2.474874
C -1.81853 3.131218 -0.928211 3.5 0 3.5
z
" style="stroke: #ffffff"/>
    </defs>
    <g clip-path="url(#p3cfdd654dc)">
     <use xlink:href="#m0f1d1328e9" x="138.717412" y="171.969157" style="fill: #eef2ef; stroke: #ffffff"/>
    </g>
   </g>
   <g id="PathCollection_6">
    <g clip-path="url(#p3cfdd654dc)">
     <use xlink:href="#m0f1d1328e9" x="133.703935" y="171.969157" style="fill: #eef2ef; stroke: #ffffff"/>
    </g>
   </g>
   <g id="PathCollection_7">
    <g clip-path="url(#p3cfdd654dc)">
     <use xlink:href="#m0f1d1328e9" x="68.528733" y="171.969157" style="fill: #eef2ef; stroke: #ffffff"/>
    </g>
   </g>
   <g id="PathCollection_8">
    <g clip-path="url(#p3cfdd654dc)">
     <use xlink:href="#m0f1d1328e9" x="63.515256" y="171.969157" style="fill: #eef2ef; stroke: #ffffff"/>
    </g>
   </g>
   <g id="PathCollection_9">
    <defs>
     <path id="m9e9536ca1d" d="M 0 3.741657
C 0.992299 3.741657 1.94409 3.347413 2.645751 2.645751
C 3.347413 1.94409 3.741657 0.992299 3.741657 0
C 3.741657 -0.992299 3.347413 -1.94409 2.645751 -2.645751
C 1.94409 -3.347413 0.992299 -3.741657 0 -3.741657
C -0.992299 -3.741657 -1.94409 -3.347413 -2.645751 -2.645751
C -3.347413 -1.94409 -3.741657 -0.992299 -3.741657 0
C -3.741657 0.992299 -3.347413 1.94409 -2.645751 2.645751
C -1.94409 3.347413 -0.992299 3.741657 0 3.741657
z
" style="stroke: #ffffff"/>
    </defs>
    <g clip-path="url(#p3cfdd654dc)">
     <use xlink:href="#m9e9536ca1d" x="108.63655" y="164.748924" style="fill: #eef2ef; stroke: #ffffff"/>
    </g>
   </g>
   <g id="PathCollection_10">
    <g clip-path="url(#p3cfdd654dc)">
     <use xlink:href="#m9e9536ca1d" x="113.650027" y="164.748924" style="fill: #eef2ef; stroke: #ffffff"/>
    </g>
   </g>
   <g id="PathCollection_11">
    <g clip-path="url(#p3cfdd654dc)">
     <use xlink:href="#m9e9536ca1d" x="38.447871" y="164.748924" style="fill: #eef2ef; stroke: #ffffff"/>
    </g>
   </g>
   <g id="PathCollection_12">
    <g clip-path="url(#p3cfdd654dc)">
     <use xlink:href="#m9e9536ca1d" x="43.461348" y="164.748924" style="fill: #eef2ef; stroke: #ffffff"/>
    </g>
   </g>
   <g id="PathCollection_13">
    <defs>
     <path id="m1adc591644" d="M 0 3.968627
C 1.052492 3.968627 2.062019 3.550467 2.806243 2.806243
C 3.550467 2.062019 3.968627 1.052492 3.968627 0
C 3.968627 -1.052492 3.550467 -2.062019 2.806243 -2.806243
C 2.062019 -3.550467 1.052492 -3.968627 0 -3.968627
C -1.052492 -3.968627 -2.062019 -3.550467 -2.806243 -2.806243
C -3.550467 -2.062019 -3.968627 -1.052492 -3.968627 0
C -3.968627 1.052492 -3.550467 2.062019 -2.806243 2.806243
C -2.062019 3.550467 -1.052492 3.968627 0 3.968627
z
" style="stroke: #ffffff"/>
    </defs>
    <g clip-path="url(#p3cfdd654dc)">
     <use xlink:href="#m1adc591644" x="88.582642" y="157.528692" style="fill: #eef2ef; stroke: #ffffff"/>
    </g>
   </g>
   <g id="PathCollection_14">
    <g clip-path="url(#p3cfdd654dc)">
     <use xlink:href="#m1adc591644" x="83.569164" y="157.528692" style="fill: #eef2ef; stroke: #ffffff"/>
    </g>
   </g>
   <g id="PathCollection_15">
    <g clip-path="url(#p3cfdd654dc)">
     <use xlink:href="#m1adc591644" x="158.771321" y="157.528692" style="fill: #eef2ef; stroke: #ffffff"/>
    </g>
   </g>
   <g id="PathCollection_16">
    <g clip-path="url(#p3cfdd654dc)">
     <use xlink:href="#m1adc591644" x="153.757844" y="157.528692" style="fill: #eef2ef; stroke: #ffffff"/>
    </g>
   </g>
   <g id="PathCollection_17">
    <defs>
     <path id="m11b0ace33b" d="M 0 4.1833
C 1.109424 4.1833 2.173559 3.742521 2.95804 2.95804
C 3.742521 2.173559 4.1833 1.109424 4.1833 0
C 4.1833 -1.109424 3.742521 -2.173559 2.95804 -2.95804
C 2.173559 -3.742521 1.109424 -4.1833 0 -4.1833
C -1.109424 -4.1833 -2.173559 -3.742521 -2.95804 -2.95804
C -3.742521 -2.173559 -4.1833 -1.109424 -4.1833 0
C -4.1833 1.109424 -3.742521 2.173559 -2.95804 2.95804
C -2.173559 3.742521 -1.109424 4.1833 0 4.1833
z
" style="stroke: #ffffff"/>
    </defs>
    <g clip-path="url(#p3cfdd654dc)">
     <use xlink:href="#m11b0ace33b" x="58.501779" y="150.30846" style="fill: #eef2ef; stroke: #ffffff"/>
    </g>
   </g>
   <g id="PathCollection_18">
    <g clip-path="url(#p3cfdd654dc)">
     <use xlink:href="#m11b0ace33b" x="63.515256" y="150.30846" style="fill: #eef2ef; stroke: #ffffff"/>
    </g>
   </g>
   <g id="PathCollection_19">
    <g clip-path="url(#p3cfdd654dc)">
     <use xlink:href="#m11b0ace33b" x="128.690458" y="150.30846" style="fill: #eef2ef; stroke: #ffffff"/>
    </g>
   </g>
   <g id="PathCollection_20">
    <g clip-path="url(#p3cfdd654dc)">
     <use xlink:href="#m11b0ace33b" x="133.703935" y="150.30846" style="fill: #eef2ef; stroke: #ffffff"/>
    </g>
   </g>
   <g id="PathCollection_21">
    <defs>
     <path id="m9e57a95250" d="M 0 4.387482
C 1.163574 4.387482 2.279647 3.925189 3.102418 3.102418
C 3.925189 2.279647 4.387482 1.163574 4.387482 0
C 4.387482 -1.163574 3.925189 -2.279647 3.102418 -3.102418
C 2.279647 -3.925189 1.163574 -4.387482 0 -4.387482
C -1.163574 -4.387482 -2.279647 -3.925189 -3.102418 -3.102418
C -3.925189 -2.279647 -4.387482 -1.163574 -4.387482 0
C -4.387482 1.163574 -3.925189 2.279647 -3.102418 3.102418
C -2.279647 3.925189 -1.163574 4.387482 0 4.387482
z
" style="stroke: #ffffff"/>
    </defs>
    <g clip-path="url(#p3cfdd654dc)">
     <use xlink:href="#m9e57a95250" x="38.447871" y="143.088228" style="fill: #eef2ef; stroke: #ffffff"/>
    </g>
   </g>
   <g id="PathCollection_22">
    <g clip-path="url(#p3cfdd654dc)">
     <use xlink:href="#m9e57a95250" x="33.434394" y="143.088228" style="fill: #eef2ef; stroke: #ffffff"/>
    </g>
   </g>
   <g id="PathCollection_23">
    <g clip-path="url(#p3cfdd654dc)">
     <use xlink:href="#m9e57a95250" x="108.63655" y="143.088228" style="fill: #eef2ef; stroke: #ffffff"/>
    </g>
   </g>
   <g id="PathCollection_24">
    <g clip-path="url(#p3cfdd654dc)">
     <use xlink:href="#m9e57a95250" x="103.623073" y="143.088228" style="fill: #eef2ef; stroke: #ffffff"/>
    </g>
   </g>
   <g id="PathCollection_25">
    <g clip-path="url(#p3cfdd654dc)">
     <use xlink:href="#m8b2a0f466a" x="158.771321" y="179.189389" style="fill: #eef2ef; stroke: #ffffff"/>
    </g>
   </g>
   <g id="PathCollection_26">
    <g clip-path="url(#p3cfdd654dc)">
     <use xlink:href="#m8b2a0f466a" x="163.784798" y="179.189389" style="fill: #eef2ef; stroke: #ffffff"/>
    </g>
   </g>
   <g id="PathCollection_27">
    <g clip-path="url(#p3cfdd654dc)">
     <use xlink:href="#m8b2a0f466a" x="228.96" y="179.189389" style="fill: #eef2ef; stroke: #ffffff"/>
    </g>
   </g>
   <g id="PathCollection_28">
    <g clip-path="url(#p3cfdd654dc)">
     <use xlink:href="#m8b2a0f466a" x="233.973477" y="179.189389" style="fill: #eef2ef; stroke: #ffffff"/>
    </g>
   </g>
   <g id="PathCollection_29">
    <g clip-path="url(#p3cfdd654dc)">
     <use xlink:href="#m0f1d1328e9" x="279.094771" y="171.969157" style="fill: #eef2ef; stroke: #ffffff"/>
    </g>
   </g>
   <g id="PathCollection_30">
    <g clip-path="url(#p3cfdd654dc)">
     <use xlink:href="#m0f1d1328e9" x="274.081294" y="171.969157" style="fill: #eef2ef; stroke: #ffffff"/>
    </g>
   </g>
   <g id="PathCollection_31">
    <g clip-path="url(#p3cfdd654dc)">
     <use xlink:href="#m0f1d1328e9" x="208.906092" y="171.969157" style="fill: #eef2ef; stroke: #ffffff"/>
    </g>
   </g>
   <g id="PathCollection_32">
    <g clip-path="url(#p3cfdd654dc)">
     <use xlink:href="#m0f1d1328e9" x="203.892615" y="171.969157" style="fill: #eef2ef; stroke: #ffffff"/>
    </g>
   </g>
   <g id="PathCollection_33">
    <g clip-path="url(#p3cfdd654dc)">
     <use xlink:href="#m9e9536ca1d" x="249.013908" y="164.748924" style="fill: #eef2ef; stroke: #ffffff"/>
    </g>
   </g>
   <g id="PathCollection_34">
    <g clip-path="url(#p3cfdd654dc)">
     <use xlink:href="#m9e9536ca1d" x="254.027385" y="164.748924" style="fill: #eef2ef; stroke: #ffffff"/>
    </g>
   </g>
   <g id="PathCollection_35">
    <g clip-path="url(#p3cfdd654dc)">
     <use xlink:href="#m9e9536ca1d" x="178.825229" y="164.748924" style="fill: #eef2ef; stroke: #ffffff"/>
    </g>
   </g>
   <g id="PathCollection_36">
    <g clip-path="url(#p3cfdd654dc)">
     <use xlink:href="#m9e9536ca1d" x="183.838706" y="164.748924" style="fill: #eef2ef; stroke: #ffffff"/>
    </g>
   </g>
   <g id="PathCollection_37">
    <g clip-path="url(#p3cfdd654dc)">
     <use xlink:href="#m1adc591644" x="228.96" y="157.528692" style="fill: #eef2ef; stroke: #ffffff"/>
    </g>
   </g>
   <g id="PathCollection_38">
    <g clip-path="url(#p3cfdd654dc)">
     <use xlink:href="#m1adc591644" x="223.946523" y="157.528692" style="fill: #eef2ef; stroke: #ffffff"/>
    </g>
   </g>
   <g id="PathCollection_39">
    <g clip-path="url(#p3cfdd654dc)">
     <use xlink:href="#m1adc591644" x="299.148679" y="157.528692" style="fill: #eef2ef; stroke: #ffffff"/>
    </g>
   </g>
   <g id="PathCollection_40">
    <g clip-path="url(#p3cfdd654dc)">
     <use xlink:href="#m1adc591644" x="294.135202" y="157.528692" style="fill: #eef2ef; stroke: #ffffff"/>
    </g>
   </g>
   <g id="PathCollection_41">
    <g clip-path="url(#p3cfdd654dc)">
     <use xlink:href="#m11b0ace33b" x="198.879137" y="150.30846" style="fill: #eef2ef; stroke: #ffffff"/>
    </g>
   </g>
   <g id="PathCollection_42">
    <g clip-path="url(#p3cfdd654dc)">
     <use xlink:href="#m11b0ace33b" x="203.892615" y="150.30846" style="fill: #eef2ef; stroke: #ffffff"/>
    </g>
   </g>
   <g id="PathCollection_43">
    <g clip-path="url(#p3cfdd654dc)">
     <use xlink:href="#m11b0ace33b" x="269.067817" y="150.30846" style="fill: #eef2ef; stroke: #ffffff"/>
    </g>
   </g>
   <g id="PathCollection_44">
    <g clip-path="url(#p3cfdd654dc)">
     <use xlink:href="#m11b0ace33b" x="274.081294" y="150.30846" style="fill: #eef2ef; stroke: #ffffff"/>
    </g>
   </g>
   <g id="PathCollection_45">
    <g clip-path="url(#p3cfdd654dc)">
     <use xlink:href="#m9e57a95250" x="178.825229" y="143.088228" style="fill: #eef2ef; stroke: #ffffff"/>
    </g>
   </g>
   <g id="PathCollection_46">
    <g clip-path="url(#p3cfdd654dc)">
     <use xlink:href="#m9e57a95250" x="173.811752" y="143.088228" style="fill: #eef2ef; stroke: #ffffff"/>
    </g>
   </g>
   <g id="PathCollection_47">
    <g clip-path="url(#p3cfdd654dc)">
     <use xlink:href="#m9e57a95250" x="249.013908" y="143.088228" style="fill: #eef2ef; stroke: #ffffff"/>
    </g>
   </g>
   <g id="PathCollection_48">
    <g clip-path="url(#p3cfdd654dc)">
     <use xlink:href="#m9e57a95250" x="244.000431" y="143.088228" style="fill: #eef2ef; stroke: #ffffff"/>
    </g>
   </g>
   <g id="PathCollection_49">
    <g clip-path="url(#p3cfdd654dc)">
     <use xlink:href="#m8b2a0f466a" x="299.148679" y="179.189389" style="fill: #eef2ef; stroke: #ffffff"/>
    </g>
   </g>
   <g id="PathCollection_50">
    <g clip-path="url(#p3cfdd654dc)">
     <use xlink:href="#m8b2a0f466a" x="304.162156" y="179.189389" style="fill: #eef2ef; stroke: #ffffff"/>
    </g>
   </g>
   <g id="PathCollection_51">
    <g clip-path="url(#p3cfdd654dc)">
     <use xlink:href="#m8b2a0f466a" x="369.337358" y="179.189389" style="fill: #eef2ef; stroke: #ffffff"/>
    </g>
   </g>
   <g id="PathCollection_52">
    <g clip-path="url(#p3cfdd654dc)">
     <use xlink:href="#m8b2a0f466a" x="374.350836" y="179.189389" style="fill: #eef2ef; stroke: #ffffff"/>
    </g>
   </g>
   <g id="PathCollection_53">
    <g clip-path="url(#p3cfdd654dc)">
     <use xlink:href="#m0f1d1328e9" x="419.472129" y="171.969157" style="fill: #eef2ef; stroke: #ffffff"/>
    </g>
   </g>
   <g id="PathCollection_54">
    <g clip-path="url(#p3cfdd654dc)">
     <use xlink:href="#m0f1d1328e9" x="414.458652" y="171.969157" style="fill: #eef2ef; stroke: #ffffff"/>
    </g>
   </g>
   <g id="PathCollection_55">
    <g clip-path="url(#p3cfdd654dc)">
     <use xlink:href="#m0f1d1328e9" x="349.28345" y="171.969157" style="fill: #eef2ef; stroke: #ffffff"/>
    </g>
   </g>
   <g id="PathCollection_56">
    <g clip-path="url(#p3cfdd654dc)">
     <use xlink:href="#m0f1d1328e9" x="344.269973" y="171.969157" style="fill: #eef2ef; stroke: #ffffff"/>
    </g>
   </g>
   <g id="PathCollection_57">
    <g clip-path="url(#p3cfdd654dc)">
     <use xlink:href="#m9e9536ca1d" x="389.391267" y="164.748924" style="fill: #eef2ef; stroke: #ffffff"/>
    </g>
   </g>
   <g id="PathCollection_58">
    <g clip-path="url(#p3cfdd654dc)">
     <use xlink:href="#m9e9536ca1d" x="394.404744" y="164.748924" style="fill: #eef2ef; stroke: #ffffff"/>
    </g>
   </g>
   <g id="PathCollection_59">
    <g clip-path="url(#p3cfdd654dc)">
     <use xlink:href="#m9e9536ca1d" x="319.202588" y="164.748924" style="fill: #eef2ef; stroke: #ffffff"/>
    </g>
   </g>
   <g id="PathCollection_60">
    <g clip-path="url(#p3cfdd654dc)">
     <use xlink:href="#m9e9536ca1d" x="324.216065" y="164.748924" style="fill: #eef2ef; stroke: #ffffff"/>
    </g>
   </g>
   <g id="PathCollection_61">
    <g clip-path="url(#p3cfdd654dc)">
     <use xlink:href="#m1adc591644" x="369.337358" y="157.528692" style="fill: #eef2ef; stroke: #ffffff"/>
    </g>
   </g>
   <g id="PathCollection_62">
    <g clip-path="url(#p3cfdd654dc)">
     <use xlink:href="#m1adc591644" x="364.323881" y="157.528692" style="fill: #eef2ef; stroke: #ffffff"/>
    </g>
   </g>
   <g id="PathCollection_63">
    <g clip-path="url(#p3cfdd654dc)">
     <use xlink:href="#m1adc591644" x="439.526038" y="157.528692" style="fill: #eef2ef; stroke: #ffffff"/>
    </g>
   </g>
   <g id="PathCollection_64">
    <g clip-path="url(#p3cfdd654dc)">
     <use xlink:href="#m1adc591644" x="434.512561" y="157.528692" style="fill: #eef2ef; stroke: #ffffff"/>
    </g>
   </g>
   <g id="PathCollection_65">
    <g clip-path="url(#p3cfdd654dc)">
     <use xlink:href="#m11b0ace33b" x="339.256496" y="150.30846" style="fill: #eef2ef; stroke: #ffffff"/>
    </g>
   </g>
   <g id="PathCollection_66">
    <g clip-path="url(#p3cfdd654dc)">
     <use xlink:href="#m11b0ace33b" x="344.269973" y="150.30846" style="fill: #eef2ef; stroke: #ffffff"/>
    </g>
   </g>
   <g id="PathCollection_67">
    <g clip-path="url(#p3cfdd654dc)">
     <use xlink:href="#m11b0ace33b" x="409.445175" y="150.30846" style="fill: #eef2ef; stroke: #ffffff"/>
    </g>
   </g>
   <g id="PathCollection_68">
    <g clip-path="url(#p3cfdd654dc)">
     <use xlink:href="#m11b0ace33b" x="414.458652" y="150.30846" style="fill: #eef2ef; stroke: #ffffff"/>
    </g>
   </g>
   <g id="PathCollection_69">
    <g clip-path="url(#p3cfdd654dc)">
     <use xlink:href="#m9e57a95250" x="319.202588" y="143.088228" style="fill: #eef2ef; stroke: #ffffff"/>
    </g>
   </g>
   <g id="PathCollection_70">
    <g clip-path="url(#p3cfdd654dc)">
     <use xlink:href="#m9e57a95250" x="314.189111" y="143.088228" style="fill: #eef2ef; stroke: #ffffff"/>
    </g>
   </g>
   <g id="PathCollection_71">
    <g clip-path="url(#p3cfdd654dc)">
     <use xlink:href="#m9e57a95250" x="389.391267" y="143.088228" style="fill: #eef2ef; stroke: #ffffff"/>
    </g>
   </g>
   <g id="PathCollection_72">
    <g clip-path="url(#p3cfdd654dc)">
     <use xlink:href="#m9e57a95250" x="384.37779" y="143.088228" style="fill: #eef2ef; stroke: #ffffff"/>
    </g>
   </g>
   <g id="text_1">
    <text style="font-size: 8px; font-family: 'DejaVu Sans'; text-anchor: start; fill: #d85f45" x="18.393962" y="105.841988" transform="rotate(-0 18.393962 105.841988)">macroscopic surface plane</text>
   </g>
   <g id="PathCollection_73">
    <defs>
     <path id="m1bed0caaba" d="M 0 4.582576
C 1.215313 4.582576 2.381014 4.099727 3.24037 3.24037
C 4.099727 2.381014 4.582576 1.215313 4.582576 0
C 4.582576 -1.215313 4.099727 -2.381014 3.24037 -3.24037
C 2.381014 -4.099727 1.215313 -4.582576 0 -4.582576
C -1.215313 -4.582576 -2.381014 -4.099727 -3.24037 -3.24037
C -4.099727 -2.381014 -4.582576 -1.215313 -4.582576 0
C -4.582576 1.215313 -4.099727 2.381014 -3.24037 3.24037
C -2.381014 4.099727 -1.215313 4.582576 0 4.582576
z
" style="stroke: #ffffff"/>
    </defs>
    <g clip-path="url(#p3cfdd654dc)">
     <use xlink:href="#m1bed0caaba" x="148.744367" y="135.867995" style="fill: #e9efeb; stroke: #ffffff"/>
    </g>
   </g>
   <g id="PathCollection_74">
    <g clip-path="url(#p3cfdd654dc)">
     <use xlink:href="#m1bed0caaba" x="143.730889" y="135.867995" style="fill: #e9efeb; stroke: #ffffff"/>
    </g>
   </g>
   <g id="PathCollection_75">
    <g clip-path="url(#p3cfdd654dc)">
     <use xlink:href="#m1bed0caaba" x="78.555687" y="135.867995" style="fill: #e9efeb; stroke: #ffffff"/>
    </g>
   </g>
   <g id="PathCollection_76">
    <g clip-path="url(#p3cfdd654dc)">
     <use xlink:href="#m1bed0caaba" x="73.54221" y="135.867995" style="fill: #e9efeb; stroke: #ffffff"/>
    </g>
   </g>
   <g id="PathCollection_77">
    <defs>
     <path id="m4cc6692195" d="M 0 4.769696
C 1.264938 4.769696 2.478238 4.267131 3.372684 3.372684
C 4.267131 2.478238 4.769696 1.264938 4.769696 0
C 4.769696 -1.264938 4.267131 -2.478238 3.372684 -3.372684
C 2.478238 -4.267131 1.264938 -4.769696 0 -4.769696
C -1.264938 -4.769696 -2.478238 -4.267131 -3.372684 -3.372684
C -4.267131 -2.478238 -4.769696 -1.264938 -4.769696 0
C -4.769696 1.264938 -4.267131 2.478238 -3.372684 3.372684
C -2.478238 4.267131 -1.264938 4.769696 0 4.769696
z
" style="stroke: #ffffff"/>
    </defs>
    <g clip-path="url(#p3cfdd654dc)">
     <use xlink:href="#m4cc6692195" x="118.663504" y="128.647763" style="fill: #d4dfda; stroke: #ffffff"/>
    </g>
   </g>
   <g id="PathCollection_78">
    <g clip-path="url(#p3cfdd654dc)">
     <use xlink:href="#m4cc6692195" x="123.676981" y="128.647763" style="fill: #d4dfda; stroke: #ffffff"/>
    </g>
   </g>
   <g id="PathCollection_79">
    <g clip-path="url(#p3cfdd654dc)">
     <use xlink:href="#m4cc6692195" x="48.474825" y="128.647763" style="fill: #d4dfda; stroke: #ffffff"/>
    </g>
   </g>
   <g id="PathCollection_80">
    <g clip-path="url(#p3cfdd654dc)">
     <use xlink:href="#m4cc6692195" x="53.488302" y="128.647763" style="fill: #d4dfda; stroke: #ffffff"/>
    </g>
   </g>
   <g id="PathCollection_81">
    <defs>
     <path id="m3a80ac375d" d="M 0 4.949747
C 1.312688 4.949747 2.571789 4.428211 3.5 3.5
C 4.428211 2.571789 4.949747 1.312688 4.949747 0
C 4.949747 -1.312688 4.428211 -2.571789 3.5 -3.5
C 2.571789 -4.428211 1.312688 -4.949747 0 -4.949747
C -1.312688 -4.949747 -2.571789 -4.428211 -3.5 -3.5
C -4.428211 -2.571789 -4.949747 -1.312688 -4.949747 0
C -4.949747 1.312688 -4.428211 2.571789 -3.5 3.5
C -2.571789 4.428211 -1.312688 4.949747 0 4.949747
z
" style="stroke: #ffffff"/>
    </defs>
    <g clip-path="url(#p3cfdd654dc)">
     <use xlink:href="#m3a80ac375d" x="98.609596" y="121.427531" style="fill: #91aaa6; stroke: #ffffff"/>
    </g>
   </g>
   <g id="PathCollection_82">
    <g clip-path="url(#p3cfdd654dc)">
     <use xlink:href="#m3a80ac375d" x="93.596119" y="121.427531" style="fill: #91aaa6; stroke: #ffffff"/>
    </g>
   </g>
   <g id="PathCollection_83">
    <g clip-path="url(#p3cfdd654dc)">
     <use xlink:href="#m3a80ac375d" x="28.420916" y="121.427531" style="fill: #91aaa6; stroke: #ffffff"/>
    </g>
   </g>
   <g id="PathCollection_84">
    <g clip-path="url(#p3cfdd654dc)">
     <use xlink:href="#m3a80ac375d" x="23.407439" y="121.427531" style="fill: #91aaa6; stroke: #ffffff"/>
    </g>
   </g>
   <g id="PathCollection_85">
    <defs>
     <path id="m7c2367620f" d="M 0 5.700877
C 1.51189 5.700877 2.962061 5.100197 4.031129 4.031129
C 5.100197 2.962061 5.700877 1.51189 5.700877 0
C 5.700877 -1.51189 5.100197 -2.962061 4.031129 -4.031129
C 2.962061 -5.100197 1.51189 -5.700877 0 -5.700877
C -1.51189 -5.700877 -2.962061 -5.100197 -4.031129 -4.031129
C -5.100197 -2.962061 -5.700877 -1.51189 -5.700877 0
C -5.700877 1.51189 -5.100197 2.962061 -4.031129 4.031129
C -2.962061 5.100197 -1.51189 5.700877 0 5.700877
z
" style="stroke: #ffffff"/>
    </defs>
    <g clip-path="url(#p3cfdd654dc)">
     <use xlink:href="#m7c2367620f" x="68.528733" y="114.207299" style="fill: #176b72; stroke: #ffffff"/>
    </g>
   </g>
   <g id="PathCollection_86">
    <g clip-path="url(#p3cfdd654dc)">
     <use xlink:href="#m7c2367620f" x="73.54221" y="114.207299" style="fill: #176b72; stroke: #ffffff"/>
    </g>
   </g>
   <g id="PathCollection_87">
    <g clip-path="url(#p3cfdd654dc)">
     <use xlink:href="#m7c2367620f" x="138.717412" y="114.207299" style="fill: #176b72; stroke: #ffffff"/>
    </g>
   </g>
   <g id="PathCollection_88">
    <g clip-path="url(#p3cfdd654dc)">
     <use xlink:href="#m7c2367620f" x="143.730889" y="114.207299" style="fill: #176b72; stroke: #ffffff"/>
    </g>
   </g>
   <g id="PathCollection_89">
    <g clip-path="url(#p3cfdd654dc)">
     <use xlink:href="#m1bed0caaba" x="289.121725" y="135.867995" style="fill: #e9efeb; stroke: #ffffff"/>
    </g>
   </g>
   <g id="PathCollection_90">
    <g clip-path="url(#p3cfdd654dc)">
     <use xlink:href="#m1bed0caaba" x="284.108248" y="135.867995" style="fill: #e9efeb; stroke: #ffffff"/>
    </g>
   </g>
   <g id="PathCollection_91">
    <g clip-path="url(#p3cfdd654dc)">
     <use xlink:href="#m1bed0caaba" x="218.933046" y="135.867995" style="fill: #e9efeb; stroke: #ffffff"/>
    </g>
   </g>
   <g id="PathCollection_92">
    <g clip-path="url(#p3cfdd654dc)">
     <use xlink:href="#m1bed0caaba" x="213.919569" y="135.867995" style="fill: #e9efeb; stroke: #ffffff"/>
    </g>
   </g>
   <g id="PathCollection_93">
    <g clip-path="url(#p3cfdd654dc)">
     <use xlink:href="#m4cc6692195" x="259.040863" y="128.647763" style="fill: #d4dfda; stroke: #ffffff"/>
    </g>
   </g>
   <g id="PathCollection_94">
    <g clip-path="url(#p3cfdd654dc)">
     <use xlink:href="#m4cc6692195" x="264.05434" y="128.647763" style="fill: #d4dfda; stroke: #ffffff"/>
    </g>
   </g>
   <g id="PathCollection_95">
    <g clip-path="url(#p3cfdd654dc)">
     <use xlink:href="#m4cc6692195" x="188.852183" y="128.647763" style="fill: #d4dfda; stroke: #ffffff"/>
    </g>
   </g>
   <g id="PathCollection_96">
    <g clip-path="url(#p3cfdd654dc)">
     <use xlink:href="#m4cc6692195" x="193.86566" y="128.647763" style="fill: #d4dfda; stroke: #ffffff"/>
    </g>
   </g>
   <g id="PathCollection_97">
    <g clip-path="url(#p3cfdd654dc)">
     <use xlink:href="#m3a80ac375d" x="238.986954" y="121.427531" style="fill: #91aaa6; stroke: #ffffff"/>
    </g>
   </g>
   <g id="PathCollection_98">
    <g clip-path="url(#p3cfdd654dc)">
     <use xlink:href="#m3a80ac375d" x="233.973477" y="121.427531" style="fill: #91aaa6; stroke: #ffffff"/>
    </g>
   </g>
   <g id="PathCollection_99">
    <g clip-path="url(#p3cfdd654dc)">
     <use xlink:href="#m3a80ac375d" x="168.798275" y="121.427531" style="fill: #91aaa6; stroke: #ffffff"/>
    </g>
   </g>
   <g id="PathCollection_100">
    <g clip-path="url(#p3cfdd654dc)">
     <use xlink:href="#m3a80ac375d" x="163.784798" y="121.427531" style="fill: #91aaa6; stroke: #ffffff"/>
    </g>
   </g>
   <g id="PathCollection_101">
    <g clip-path="url(#p3cfdd654dc)">
     <use xlink:href="#m7c2367620f" x="208.906092" y="114.207299" style="fill: #176b72; stroke: #ffffff"/>
    </g>
   </g>
   <g id="PathCollection_102">
    <g clip-path="url(#p3cfdd654dc)">
     <use xlink:href="#m7c2367620f" x="213.919569" y="114.207299" style="fill: #176b72; stroke: #ffffff"/>
    </g>
   </g>
   <g id="PathCollection_103">
    <g clip-path="url(#p3cfdd654dc)">
     <use xlink:href="#m7c2367620f" x="279.094771" y="114.207299" style="fill: #176b72; stroke: #ffffff"/>
    </g>
   </g>
   <g id="PathCollection_104">
    <g clip-path="url(#p3cfdd654dc)">
     <use xlink:href="#m7c2367620f" x="284.108248" y="114.207299" style="fill: #176b72; stroke: #ffffff"/>
    </g>
   </g>
   <g id="PathCollection_105">
    <g clip-path="url(#p3cfdd654dc)">
     <use xlink:href="#m1bed0caaba" x="429.499084" y="135.867995" style="fill: #e9efeb; stroke: #ffffff"/>
    </g>
   </g>
   <g id="PathCollection_106">
    <g clip-path="url(#p3cfdd654dc)">
     <use xlink:href="#m1bed0caaba" x="424.485606" y="135.867995" style="fill: #e9efeb; stroke: #ffffff"/>
    </g>
   </g>
   <g id="PathCollection_107">
    <g clip-path="url(#p3cfdd654dc)">
     <use xlink:href="#m1bed0caaba" x="359.310404" y="135.867995" style="fill: #e9efeb; stroke: #ffffff"/>
    </g>
   </g>
   <g id="PathCollection_108">
    <g clip-path="url(#p3cfdd654dc)">
     <use xlink:href="#m1bed0caaba" x="354.296927" y="135.867995" style="fill: #e9efeb; stroke: #ffffff"/>
    </g>
   </g>
   <g id="PathCollection_109">
    <g clip-path="url(#p3cfdd654dc)">
     <use xlink:href="#m4cc6692195" x="399.418221" y="128.647763" style="fill: #d4dfda; stroke: #ffffff"/>
    </g>
   </g>
   <g id="PathCollection_110">
    <g clip-path="url(#p3cfdd654dc)">
     <use xlink:href="#m4cc6692195" x="404.431698" y="128.647763" style="fill: #d4dfda; stroke: #ffffff"/>
    </g>
   </g>
   <g id="PathCollection_111">
    <g clip-path="url(#p3cfdd654dc)">
     <use xlink:href="#m4cc6692195" x="329.229542" y="128.647763" style="fill: #d4dfda; stroke: #ffffff"/>
    </g>
   </g>
   <g id="PathCollection_112">
    <g clip-path="url(#p3cfdd654dc)">
     <use xlink:href="#m4cc6692195" x="334.243019" y="128.647763" style="fill: #d4dfda; stroke: #ffffff"/>
    </g>
   </g>
   <g id="PathCollection_113">
    <g clip-path="url(#p3cfdd654dc)">
     <use xlink:href="#m3a80ac375d" x="379.364313" y="121.427531" style="fill: #91aaa6; stroke: #ffffff"/>
    </g>
   </g>
   <g id="PathCollection_114">
    <g clip-path="url(#p3cfdd654dc)">
     <use xlink:href="#m3a80ac375d" x="374.350836" y="121.427531" style="fill: #91aaa6; stroke: #ffffff"/>
    </g>
   </g>
   <g id="PathCollection_115">
    <g clip-path="url(#p3cfdd654dc)">
     <use xlink:href="#m3a80ac375d" x="309.175633" y="121.427531" style="fill: #91aaa6; stroke: #ffffff"/>
    </g>
   </g>
   <g id="PathCollection_116">
    <g clip-path="url(#p3cfdd654dc)">
     <use xlink:href="#m3a80ac375d" x="304.162156" y="121.427531" style="fill: #91aaa6; stroke: #ffffff"/>
    </g>
   </g>
   <g id="PathCollection_117">
    <g clip-path="url(#p3cfdd654dc)">
     <use xlink:href="#m7c2367620f" x="349.28345" y="114.207299" style="fill: #176b72; stroke: #ffffff"/>
    </g>
   </g>
   <g id="PathCollection_118">
    <g clip-path="url(#p3cfdd654dc)">
     <use xlink:href="#m7c2367620f" x="354.296927" y="114.207299" style="fill: #176b72; stroke: #ffffff"/>
    </g>
   </g>
   <g id="PathCollection_119">
    <g clip-path="url(#p3cfdd654dc)">
     <use xlink:href="#m7c2367620f" x="419.472129" y="114.207299" style="fill: #176b72; stroke: #ffffff"/>
    </g>
   </g>
   <g id="PathCollection_120">
    <g clip-path="url(#p3cfdd654dc)">
     <use xlink:href="#m7c2367620f" x="424.485606" y="114.207299" style="fill: #176b72; stroke: #ffffff"/>
    </g>
   </g>
  </g>
 </g>
 <defs>
  <clipPath id="p3cfdd654dc">
   <rect x="5.76" y="5.76" width="446.4" height="277.2"/>
  </clipPath>
 </defs>
</svg>
