<?xml version="1.0" encoding="utf-8" standalone="no"?>
<!DOCTYPE svg PUBLIC "-//W3C//DTD SVG 1.1//EN"
  "http://www.w3.org/Graphics/SVG/1.1/DTD/svg11.dtd">
<svg xmlns:xlink="http://www.w3.org/1999/xlink" width="457.92pt" height="288.72pt" viewBox="0 0 457.92 288.72" xmlns="http://www.w3.org/2000/svg" version="1.1">
 <metadata>
  <rdf:RDF xmlns:dc="http://purl.org/dc/elements/1.1/" xmlns:cc="http://creativecommons.org/ns#" xmlns:rdf="http://www.w3.org/1999/02/22-rdf-syntax-ns#">
   <cc:Work>
    <dc:type rdf:resource="http://purl.org/dc/dcmitype/StillImage"/>
    <dc:format>image/svg+xml</dc:format>
    <dc:creator>
     <cc:Agent>
      <dc:title>tools/generate_surface_figures.py</dc:title>
     </cc:Agent>
    </dc:creator>
   </cc:Work>
  </rdf:RDF>
 </metadata>
 <defs>
  <style type="text/css">*{stroke-linejoin: round; stroke-linecap: butt}</style>
 </defs>
 <g id="figure_1">
  <g id="patch_1">
   <path d="M 0 288.72
L 457.92 288.72
L 457.92 0
L 0 0
z
" style="fill: #ffffff"/>
  </g>
  <g id="axes_1">
   <g id="line2d_1">
    <path d="M 5.76 65.229527
L 452.16 65.229527
" clip-path="url(#p3cfdd654dc)" style="fill: none; stroke-dasharray: 6,6; stroke-dashoffset: 0; stroke: #d85f45; stroke-width: 1.5"/>
   </g>
   <g id="PathCollection_1">
    <defs>
     <path id="m8b2a0f466a" d="M 0 3.464102
C 0.91869 3.464102 1.799877 3.099102 2.44949 2.44949
C 3.099102 1.799877 3.464102 0.91869 3.464102 0
C 3.464102 -0.91869 3.099102 -1.799877 2.44949 -2.44949
C 1.799877 -3.099102 0.91869 -3.464102 0 -3.464102
C -0.91869 -3.464102 -1.799877 -3.099102 -2.44949 -2.44949
C -3.099102 -1.799877 -3.464102 -0.91869 -3.464102 0
C -3.464102 0.91869 -3.099102 1.799877 -2.44949 2.44949
C -1.799877 3.099102 -0.91869 3.464102 0 3.464102
z
" style="stroke: #ffffff"/>
    </defs>
    <g clip-path="url(#p3cfdd654dc)">
     <use xlink:href="#m8b2a0f466a" x="18.393962" y="223.490473" style="fill: #eef2ef; stroke: #ffffff"/>
    </g>
   </g>
   <g id="PathCollection_2">
    <g clip-path="url(#p3cfdd654dc)">
     <use xlink:href="#m8b2a0f466a" x="29.77591" y="223.490473" style="fill: #eef2ef; stroke: #ffffff"/>
    </g>
   </g>
   <g id="PathCollection_3">
    <g clip-path="url(#p3cfdd654dc)">
     <use xlink:href="#m8b2a0f466a" x="98.067598" y="223.490473" style="fill: #eef2ef; stroke: #ffffff"/>
    </g>
   </g>
   <g id="PathCollection_4">
    <g clip-path="url(#p3cfdd654dc)">
     <use xlink:href="#m8b2a0f466a" x="86.68565" y="223.490473" style="fill: #eef2ef; stroke: #ffffff"/>
    </g>
   </g>
   <g id="PathCollection_5">
    <defs>
     <path id="m0f1d1328e9" d="M 0 3.5
C 0.928211 3.5 1.81853 3.131218 2.474874 2.474874
C 3.131218 1.81853 3.5 0.928211 3.5 0
C 3.5 -0.928211 3.131218 -1.81853 2.474874 -2.474874
C 1.81853 -3.131218 0.928211 -3.5 0 -3.5
C -0.928211 -3.5 -1.81853 -3.131218 -2.474874 -2.474874
C -3.131218 -1.81853 -3.5 -0.928211 -3.5 0
C -3.5 0.928211 -3.131218 1.81853 -2.474874 2.474874
C -1.81853 3.131218 -0.928211 3.5 0 3.5
z
" style="stroke: #ffffff"/>
    </defs>
    <g clip-path="url(#p3cfdd654dc)">
     <use xlink:href="#m0f1d1328e9" x="132.213442" y="206.678222" style="fill: #eef2ef; stroke: #ffffff"/>
    </g>
   </g>
   <g id="PathCollection_6">
    <g clip-path="url(#p3cfdd654dc)">
     <use xlink:href="#m0f1d1328e9" x="120.831494" y="206.678222" style="fill: #eef2ef; stroke: #ffffff"/>
    </g>
   </g>
   <g id="PathCollection_7">
    <g clip-path="url(#p3cfdd654dc)">
     <use xlink:href="#m0f1d1328e9" x="52.539806" y="206.678222" style="fill: #eef2ef; stroke: #ffffff"/>
    </g>
   </g>
   <g id="PathCollection_8">
    <g clip-path="url(#p3cfdd654dc)">
     <use xlink:href="#m0f1d1328e9" x="63.921754" y="206.678222" style="fill: #eef2ef; stroke: #ffffff"/>
    </g>
   </g>
   <g id="PathCollection_9">
    <defs>
     <path id="m9e9536ca1d" d="M 0 3.741657
C 0.992299 3.741657 1.94409 3.347413 2.645751 2.645751
C 3.347413 1.94409 3.741657 0.992299 3.741657 0
C 3.741657 -0.992299 3.347413 -1.94409 2.645751 -2.645751
C 1.94409 -3.347413 0.992299 -3.741657 0 -3.741657
C -0.992299 -3.741657 -1.94409 -3.347413 -2.645751 -2.645751
C -3.347413 -1.94409 -3.741657 -0.992299 -3.741657 0
C -3.741657 0.992299 -3.347413 1.94409 -2.645751 2.645751
C -1.94409 3.347413 -0.992299 3.741657 0 3.741657
z
" style="stroke: #ffffff"/>
    </defs>
    <g clip-path="url(#p3cfdd654dc)">
     <use xlink:href="#m9e9536ca1d" x="86.68565" y="189.86597" style="fill: #eef2ef; stroke: #ffffff"/>
    </g>
   </g>
   <g id="PathCollection_10">
    <g clip-path="url(#p3cfdd654dc)">
     <use xlink:href="#m9e9536ca1d" x="98.067598" y="189.86597" style="fill: #eef2ef; stroke: #ffffff"/>
    </g>
   </g>
   <g id="PathCollection_11">
    <g clip-path="url(#p3cfdd654dc)">
     <use xlink:href="#m9e9536ca1d" x="166.359286" y="189.86597" style="fill: #eef2ef; stroke: #ffffff"/>
    </g>
   </g>
   <g id="PathCollection_12">
    <g clip-path="url(#p3cfdd654dc)">
     <use xlink:href="#m9e9536ca1d" x="154.977338" y="189.86597" style="fill: #eef2ef; stroke: #ffffff"/>
    </g>
   </g>
   <g id="PathCollection_13">
    <defs>
     <path id="m1adc591644" d="M 0 3.968627
C 1.052492 3.968627 2.062019 3.550467 2.806243 2.806243
C 3.550467 2.062019 3.968627 1.052492 3.968627 0
C 3.968627 -1.052492 3.550467 -2.062019 2.806243 -2.806243
C 2.062019 -3.550467 1.052492 -3.968627 0 -3.968627
C -1.052492 -3.968627 -2.062019 -3.550467 -2.806243 -2.806243
C -3.550467 -2.062019 -3.968627 -1.052492 -3.968627 0
C -3.968627 1.052492 -3.550467 2.062019 -2.806243 2.806243
C -2.062019 3.550467 -1.052492 3.968627 0 3.968627
z
" style="stroke: #ffffff"/>
    </defs>
    <g clip-path="url(#p3cfdd654dc)">
     <use xlink:href="#m1adc591644" x="63.921754" y="173.053719" style="fill: #eef2ef; stroke: #ffffff"/>
    </g>
   </g>
   <g id="PathCollection_14">
    <g clip-path="url(#p3cfdd654dc)">
     <use xlink:href="#m1adc591644" x="52.539806" y="173.053719" style="fill: #eef2ef; stroke: #ffffff"/>
    </g>
   </g>
   <g id="PathCollection_15">
    <g clip-path="url(#p3cfdd654dc)">
     <use xlink:href="#m1adc591644" x="120.831494" y="173.053719" style="fill: #eef2ef; stroke: #ffffff"/>
    </g>
   </g>
   <g id="PathCollection_16">
    <g clip-path="url(#p3cfdd654dc)">
     <use xlink:href="#m1adc591644" x="132.213442" y="173.053719" style="fill: #eef2ef; stroke: #ffffff"/>
    </g>
   </g>
   <g id="PathCollection_17">
    <defs>
     <path id="m11b0ace33b" d="M 0 4.1833
C 1.109424 4.1833 2.173559 3.742521 2.95804 2.95804
C 3.742521 2.173559 4.1833 1.109424 4.1833 0
C 4.1833 -1.109424 3.742521 -2.173559 2.95804 -2.95804
C 2.173559 -3.742521 1.109424 -4.1833 0 -4.1833
C -1.109424 -4.1833 -2.173559 -3.742521 -2.95804 -2.95804
C -3.742521 -2.173559 -4.1833 -1.109424 -4.1833 0
C -4.1833 1.109424 -3.742521 2.173559 -2.95804 2.95804
C -2.173559 3.742521 -1.109424 4.1833 0 4.1833
z
" style="stroke: #ffffff"/>
    </defs>
    <g clip-path="url(#p3cfdd654dc)">
     <use xlink:href="#m11b0ace33b" x="154.977338" y="156.241468" style="fill: #eef2ef; stroke: #ffffff"/>
    </g>
   </g>
   <g id="PathCollection_18">
    <g clip-path="url(#p3cfdd654dc)">
     <use xlink:href="#m11b0ace33b" x="143.59539" y="156.241468" style="fill: #eef2ef; stroke: #ffffff"/>
    </g>
   </g>
   <g id="PathCollection_19">
    <g clip-path="url(#p3cfdd654dc)">
     <use xlink:href="#m11b0ace33b" x="75.303702" y="156.241468" style="fill: #eef2ef; stroke: #ffffff"/>
    </g>
   </g>
   <g id="PathCollection_20">
    <g clip-path="url(#p3cfdd654dc)">
     <use xlink:href="#m11b0ace33b" x="86.68565" y="156.241468" style="fill: #eef2ef; stroke: #ffffff"/>
    </g>
   </g>
   <g id="PathCollection_21">
    <defs>
     <path id="m9e57a95250" d="M 0 4.387482
C 1.163574 4.387482 2.279647 3.925189 3.102418 3.102418
C 3.925189 2.279647 4.387482 1.163574 4.387482 0
C 4.387482 -1.163574 3.925189 -2.279647 3.102418 -3.102418
C 2.279647 -3.925189 1.163574 -4.387482 0 -4.387482
C -1.163574 -4.387482 -2.279647 -3.925189 -3.102418 -3.102418
C -3.925189 -2.279647 -4.387482 -1.163574 -4.387482 0
C -4.387482 1.163574 -3.925189 2.279647 -3.102418 3.102418
C -2.279647 3.925189 -1.163574 4.387482 0 4.387482
z
" style="stroke: #ffffff"/>
    </defs>
    <g clip-path="url(#p3cfdd654dc)">
     <use xlink:href="#m9e57a95250" x="109.449546" y="139.429216" style="fill: #eef2ef; stroke: #ffffff"/>
    </g>
   </g>
   <g id="PathCollection_22">
    <g clip-path="url(#p3cfdd654dc)">
     <use xlink:href="#m9e57a95250" x="120.831494" y="139.429216" style="fill: #eef2ef; stroke: #ffffff"/>
    </g>
   </g>
   <g id="PathCollection_23">
    <g clip-path="url(#p3cfdd654dc)">
     <use xlink:href="#m9e57a95250" x="52.539806" y="139.429216" style="fill: #eef2ef; stroke: #ffffff"/>
    </g>
   </g>
   <g id="PathCollection_24">
    <g clip-path="url(#p3cfdd654dc)">
     <use xlink:href="#m9e57a95250" x="41.157858" y="139.429216" style="fill: #eef2ef; stroke: #ffffff"/>
    </g>
   </g>
   <g id="PathCollection_25">
    <g clip-path="url(#p3cfdd654dc)">
     <use xlink:href="#m8b2a0f466a" x="154.977338" y="223.490473" style="fill: #eef2ef; stroke: #ffffff"/>
    </g>
   </g>
   <g id="PathCollection_26">
    <g clip-path="url(#p3cfdd654dc)">
     <use xlink:href="#m8b2a0f466a" x="166.359286" y="223.490473" style="fill: #eef2ef; stroke: #ffffff"/>
    </g>
   </g>
   <g id="PathCollection_27">
    <g clip-path="url(#p3cfdd654dc)">
     <use xlink:href="#m8b2a0f466a" x="234.650974" y="223.490473" style="fill: #eef2ef; stroke: #ffffff"/>
    </g>
   </g>
   <g id="PathCollection_28">
    <g clip-path="url(#p3cfdd654dc)">
     <use xlink:href="#m8b2a0f466a" x="223.269026" y="223.490473" style="fill: #eef2ef; stroke: #ffffff"/>
    </g>
   </g>
   <g id="PathCollection_29">
    <g clip-path="url(#p3cfdd654dc)">
     <use xlink:href="#m0f1d1328e9" x="268.796818" y="206.678222" style="fill: #eef2ef; stroke: #ffffff"/>
    </g>
   </g>
   <g id="PathCollection_30">
    <g clip-path="url(#p3cfdd654dc)">
     <use xlink:href="#m0f1d1328e9" x="257.41487" y="206.678222" style="fill: #eef2ef; stroke: #ffffff"/>
    </g>
   </g>
   <g id="PathCollection_31">
    <g clip-path="url(#p3cfdd654dc)">
     <use xlink:href="#m0f1d1328e9" x="189.123182" y="206.678222" style="fill: #eef2ef; stroke: #ffffff"/>
    </g>
   </g>
   <g id="PathCollection_32">
    <g clip-path="url(#p3cfdd654dc)">
     <use xlink:href="#m0f1d1328e9" x="200.50513" y="206.678222" style="fill: #eef2ef; stroke: #ffffff"/>
    </g>
   </g>
   <g id="PathCollection_33">
    <g clip-path="url(#p3cfdd654dc)">
     <use xlink:href="#m9e9536ca1d" x="223.269026" y="189.86597" style="fill: #eef2ef; stroke: #ffffff"/>
    </g>
   </g>
   <g id="PathCollection_34">
    <g clip-path="url(#p3cfdd654dc)">
     <use xlink:href="#m9e9536ca1d" x="234.650974" y="189.86597" style="fill: #eef2ef; stroke: #ffffff"/>
    </g>
   </g>
   <g id="PathCollection_35">
    <g clip-path="url(#p3cfdd654dc)">
     <use xlink:href="#m9e9536ca1d" x="302.942662" y="189.86597" style="fill: #eef2ef; stroke: #ffffff"/>
    </g>
   </g>
   <g id="PathCollection_36">
    <g clip-path="url(#p3cfdd654dc)">
     <use xlink:href="#m9e9536ca1d" x="291.560714" y="189.86597" style="fill: #eef2ef; stroke: #ffffff"/>
    </g>
   </g>
   <g id="PathCollection_37">
    <g clip-path="url(#p3cfdd654dc)">
     <use xlink:href="#m1adc591644" x="200.50513" y="173.053719" style="fill: #eef2ef; stroke: #ffffff"/>
    </g>
   </g>
   <g id="PathCollection_38">
    <g clip-path="url(#p3cfdd654dc)">
     <use xlink:href="#m1adc591644" x="189.123182" y="173.053719" style="fill: #eef2ef; stroke: #ffffff"/>
    </g>
   </g>
   <g id="PathCollection_39">
    <g clip-path="url(#p3cfdd654dc)">
     <use xlink:href="#m1adc591644" x="257.41487" y="173.053719" style="fill: #eef2ef; stroke: #ffffff"/>
    </g>
   </g>
   <g id="PathCollection_40">
    <g clip-path="url(#p3cfdd654dc)">
     <use xlink:href="#m1adc591644" x="268.796818" y="173.053719" style="fill: #eef2ef; stroke: #ffffff"/>
    </g>
   </g>
   <g id="PathCollection_41">
    <g clip-path="url(#p3cfdd654dc)">
     <use xlink:href="#m11b0ace33b" x="291.560714" y="156.241468" style="fill: #eef2ef; stroke: #ffffff"/>
    </g>
   </g>
   <g id="PathCollection_42">
    <g clip-path="url(#p3cfdd654dc)">
     <use xlink:href="#m11b0ace33b" x="280.178766" y="156.241468" style="fill: #eef2ef; stroke: #ffffff"/>
    </g>
   </g>
   <g id="PathCollection_43">
    <g clip-path="url(#p3cfdd654dc)">
     <use xlink:href="#m11b0ace33b" x="211.887078" y="156.241468" style="fill: #eef2ef; stroke: #ffffff"/>
    </g>
   </g>
   <g id="PathCollection_44">
    <g clip-path="url(#p3cfdd654dc)">
     <use xlink:href="#m11b0ace33b" x="223.269026" y="156.241468" style="fill: #eef2ef; stroke: #ffffff"/>
    </g>
   </g>
   <g id="PathCollection_45">
    <g clip-path="url(#p3cfdd654dc)">
     <use xlink:href="#m9e57a95250" x="246.032922" y="139.429216" style="fill: #eef2ef; stroke: #ffffff"/>
    </g>
   </g>
   <g id="PathCollection_46">
    <g clip-path="url(#p3cfdd654dc)">
     <use xlink:href="#m9e57a95250" x="257.41487" y="139.429216" style="fill: #eef2ef; stroke: #ffffff"/>
    </g>
   </g>
   <g id="PathCollection_47">
    <g clip-path="url(#p3cfdd654dc)">
     <use xlink:href="#m9e57a95250" x="189.123182" y="139.429216" style="fill: #eef2ef; stroke: #ffffff"/>
    </g>
   </g>
   <g id="PathCollection_48">
    <g clip-path="url(#p3cfdd654dc)">
     <use xlink:href="#m9e57a95250" x="177.741234" y="139.429216" style="fill: #eef2ef; stroke: #ffffff"/>
    </g>
   </g>
   <g id="PathCollection_49">
    <g clip-path="url(#p3cfdd654dc)">
     <use xlink:href="#m8b2a0f466a" x="291.560714" y="223.490473" style="fill: #eef2ef; stroke: #ffffff"/>
    </g>
   </g>
   <g id="PathCollection_50">
    <g clip-path="url(#p3cfdd654dc)">
     <use xlink:href="#m8b2a0f466a" x="302.942662" y="223.490473" style="fill: #eef2ef; stroke: #ffffff"/>
    </g>
   </g>
   <g id="PathCollection_51">
    <g clip-path="url(#p3cfdd654dc)">
     <use xlink:href="#m8b2a0f466a" x="371.23435" y="223.490473" style="fill: #eef2ef; stroke: #ffffff"/>
    </g>
   </g>
   <g id="PathCollection_52">
    <g clip-path="url(#p3cfdd654dc)">
     <use xlink:href="#m8b2a0f466a" x="359.852402" y="223.490473" style="fill: #eef2ef; stroke: #ffffff"/>
    </g>
   </g>
   <g id="PathCollection_53">
    <g clip-path="url(#p3cfdd654dc)">
     <use xlink:href="#m0f1d1328e9" x="405.380194" y="206.678222" style="fill: #eef2ef; stroke: #ffffff"/>
    </g>
   </g>
   <g id="PathCollection_54">
    <g clip-path="url(#p3cfdd654dc)">
     <use xlink:href="#m0f1d1328e9" x="393.998246" y="206.678222" style="fill: #eef2ef; stroke: #ffffff"/>
    </g>
   </g>
   <g id="PathCollection_55">
    <g clip-path="url(#p3cfdd654dc)">
     <use xlink:href="#m0f1d1328e9" x="325.706558" y="206.678222" style="fill: #eef2ef; stroke: #ffffff"/>
    </g>
   </g>
   <g id="PathCollection_56">
    <g clip-path="url(#p3cfdd654dc)">
     <use xlink:href="#m0f1d1328e9" x="337.088506" y="206.678222" style="fill: #eef2ef; stroke: #ffffff"/>
    </g>
   </g>
   <g id="PathCollection_57">
    <g clip-path="url(#p3cfdd654dc)">
     <use xlink:href="#m9e9536ca1d" x="359.852402" y="189.86597" style="fill: #eef2ef; stroke: #ffffff"/>
    </g>
   </g>
   <g id="PathCollection_58">
    <g clip-path="url(#p3cfdd654dc)">
     <use xlink:href="#m9e9536ca1d" x="371.23435" y="189.86597" style="fill: #eef2ef; stroke: #ffffff"/>
    </g>
   </g>
   <g id="PathCollection_59">
    <g clip-path="url(#p3cfdd654dc)">
     <use xlink:href="#m9e9536ca1d" x="439.526038" y="189.86597" style="fill: #eef2ef; stroke: #ffffff"/>
    </g>
   </g>
   <g id="PathCollection_60">
    <g clip-path="url(#p3cfdd654dc)">
     <use xlink:href="#m9e9536ca1d" x="428.14409" y="189.86597" style="fill: #eef2ef; stroke: #ffffff"/>
    </g>
   </g>
   <g id="PathCollection_61">
    <g clip-path="url(#p3cfdd654dc)">
     <use xlink:href="#m1adc591644" x="337.088506" y="173.053719" style="fill: #eef2ef; stroke: #ffffff"/>
    </g>
   </g>
   <g id="PathCollection_62">
    <g clip-path="url(#p3cfdd654dc)">
     <use xlink:href="#m1adc591644" x="325.706558" y="173.053719" style="fill: #eef2ef; stroke: #ffffff"/>
    </g>
   </g>
   <g id="PathCollection_63">
    <g clip-path="url(#p3cfdd654dc)">
     <use xlink:href="#m1adc591644" x="393.998246" y="173.053719" style="fill: #eef2ef; stroke: #ffffff"/>
    </g>
   </g>
   <g id="PathCollection_64">
    <g clip-path="url(#p3cfdd654dc)">
     <use xlink:href="#m1adc591644" x="405.380194" y="173.053719" style="fill: #eef2ef; stroke: #ffffff"/>
    </g>
   </g>
   <g id="PathCollection_65">
    <g clip-path="url(#p3cfdd654dc)">
     <use xlink:href="#m11b0ace33b" x="428.14409" y="156.241468" style="fill: #eef2ef; stroke: #ffffff"/>
    </g>
   </g>
   <g id="PathCollection_66">
    <g clip-path="url(#p3cfdd654dc)">
     <use xlink:href="#m11b0ace33b" x="416.762142" y="156.241468" style="fill: #eef2ef; stroke: #ffffff"/>
    </g>
   </g>
   <g id="PathCollection_67">
    <g clip-path="url(#p3cfdd654dc)">
     <use xlink:href="#m11b0ace33b" x="348.470454" y="156.241468" style="fill: #eef2ef; stroke: #ffffff"/>
    </g>
   </g>
   <g id="PathCollection_68">
    <g clip-path="url(#p3cfdd654dc)">
     <use xlink:href="#m11b0ace33b" x="359.852402" y="156.241468" style="fill: #eef2ef; stroke: #ffffff"/>
    </g>
   </g>
   <g id="PathCollection_69">
    <g clip-path="url(#p3cfdd654dc)">
     <use xlink:href="#m9e57a95250" x="382.616298" y="139.429216" style="fill: #eef2ef; stroke: #ffffff"/>
    </g>
   </g>
   <g id="PathCollection_70">
    <g clip-path="url(#p3cfdd654dc)">
     <use xlink:href="#m9e57a95250" x="393.998246" y="139.429216" style="fill: #eef2ef; stroke: #ffffff"/>
    </g>
   </g>
   <g id="PathCollection_71">
    <g clip-path="url(#p3cfdd654dc)">
     <use xlink:href="#m9e57a95250" x="325.706558" y="139.429216" style="fill: #eef2ef; stroke: #ffffff"/>
    </g>
   </g>
   <g id="PathCollection_72">
    <g clip-path="url(#p3cfdd654dc)">
     <use xlink:href="#m9e57a95250" x="314.32461" y="139.429216" style="fill: #eef2ef; stroke: #ffffff"/>
    </g>
   </g>
   <g id="text_1">
    <text style="font-size: 8px; font-family: 'DejaVu Sans'; text-anchor: start; fill: #d85f45" x="18.393962" y="60.681838" transform="rotate(-0 18.393962 60.681838)">macroscopic surface plane</text>
   </g>
   <g id="PathCollection_73">
    <defs>
     <path id="m1bed0caaba" d="M 0 4.582576
C 1.215313 4.582576 2.381014 4.099727 3.24037 3.24037
C 4.099727 2.381014 4.582576 1.215313 4.582576 0
C 4.582576 -1.215313 4.099727 -2.381014 3.24037 -3.24037
C 2.381014 -4.099727 1.215313 -4.582576 0 -4.582576
C -1.215313 -4.582576 -2.381014 -4.099727 -3.24037 -3.24037
C -4.099727 -2.381014 -4.582576 -1.215313 -4.582576 0
C -4.582576 1.215313 -4.099727 2.381014 -3.24037 3.24037
C -2.381014 4.099727 -1.215313 4.582576 0 4.582576
z
" style="stroke: #ffffff"/>
    </defs>
    <g clip-path="url(#p3cfdd654dc)">
     <use xlink:href="#m1bed0caaba" x="86.68565" y="122.616965" style="fill: #e9efeb; stroke: #ffffff"/>
    </g>
   </g>
   <g id="PathCollection_74">
    <g clip-path="url(#p3cfdd654dc)">
     <use xlink:href="#m1bed0caaba" x="75.303702" y="122.616965" style="fill: #e9efeb; stroke: #ffffff"/>
    </g>
   </g>
   <g id="PathCollection_75">
    <g clip-path="url(#p3cfdd654dc)">
     <use xlink:href="#m1bed0caaba" x="143.59539" y="122.616965" style="fill: #e9efeb; stroke: #ffffff"/>
    </g>
   </g>
   <g id="PathCollection_76">
    <g clip-path="url(#p3cfdd654dc)">
     <use xlink:href="#m1bed0caaba" x="154.977338" y="122.616965" style="fill: #e9efeb; stroke: #ffffff"/>
    </g>
   </g>
   <g id="PathCollection_77">
    <defs>
     <path id="m4cc6692195" d="M 0 4.769696
C 1.264938 4.769696 2.478238 4.267131 3.372684 3.372684
C 4.267131 2.478238 4.769696 1.264938 4.769696 0
C 4.769696 -1.264938 4.267131 -2.478238 3.372684 -3.372684
C 2.478238 -4.267131 1.264938 -4.769696 0 -4.769696
C -1.264938 -4.769696 -2.478238 -4.267131 -3.372684 -3.372684
C -4.267131 -2.478238 -4.769696 -1.264938 -4.769696 0
C -4.769696 1.264938 -4.267131 2.478238 -3.372684 3.372684
C -2.478238 4.267131 -1.264938 4.769696 0 4.769696
z
" style="stroke: #ffffff"/>
    </defs>
    <g clip-path="url(#p3cfdd654dc)">
     <use xlink:href="#m4cc6692195" x="41.157858" y="105.804713" style="fill: #d4dfda; stroke: #ffffff"/>
    </g>
   </g>
   <g id="PathCollection_78">
    <g clip-path="url(#p3cfdd654dc)">
     <use xlink:href="#m4cc6692195" x="52.539806" y="105.804713" style="fill: #d4dfda; stroke: #ffffff"/>
    </g>
   </g>
   <g id="PathCollection_79">
    <g clip-path="url(#p3cfdd654dc)">
     <use xlink:href="#m4cc6692195" x="120.831494" y="105.804713" style="fill: #d4dfda; stroke: #ffffff"/>
    </g>
   </g>
   <g id="PathCollection_80">
    <g clip-path="url(#p3cfdd654dc)">
     <use xlink:href="#m4cc6692195" x="109.449546" y="105.804713" style="fill: #d4dfda; stroke: #ffffff"/>
    </g>
   </g>
   <g id="PathCollection_81">
    <defs>
     <path id="m3a80ac375d" d="M 0 4.949747
C 1.312688 4.949747 2.571789 4.428211 3.5 3.5
C 4.428211 2.571789 4.949747 1.312688 4.949747 0
C 4.949747 -1.312688 4.428211 -2.571789 3.5 -3.5
C 2.571789 -4.428211 1.312688 -4.949747 0 -4.949747
C -1.312688 -4.949747 -2.571789 -4.428211 -3.5 -3.5
C -4.428211 -2.571789 -4.949747 -1.312688 -4.949747 0
C -4.949747 1.312688 -4.428211 2.571789 -3.5 3.5
C -2.571789 4.428211 -1.312688 4.949747 0 4.949747
z
" style="stroke: #ffffff"/>
    </defs>
    <g clip-path="url(#p3cfdd654dc)">
     <use xlink:href="#m3a80ac375d" x="132.213442" y="88.992462" style="fill: #91aaa6; stroke: #ffffff"/>
    </g>
   </g>
   <g id="PathCollection_82">
    <g clip-path="url(#p3cfdd654dc)">
     <use xlink:href="#m3a80ac375d" x="143.59539" y="88.992462" style="fill: #91aaa6; stroke: #ffffff"/>
    </g>
   </g>
   <g id="PathCollection_83">
    <g clip-path="url(#p3cfdd654dc)">
     <use xlink:href="#m3a80ac375d" x="75.303702" y="88.992462" style="fill: #91aaa6; stroke: #ffffff"/>
    </g>
   </g>
   <g id="PathCollection_84">
    <g clip-path="url(#p3cfdd654dc)">
     <use xlink:href="#m3a80ac375d" x="63.921754" y="88.992462" style="fill: #91aaa6; stroke: #ffffff"/>
    </g>
   </g>
   <g id="PathCollection_85">
    <defs>
     <path id="m7c2367620f" d="M 0 5.700877
C 1.51189 5.700877 2.962061 5.100197 4.031129 4.031129
C 5.100197 2.962061 5.700877 1.51189 5.700877 0
C 5.700877 -1.51189 5.100197 -2.962061 4.031129 -4.031129
C 2.962061 -5.100197 1.51189 -5.700877 0 -5.700877
C -1.51189 -5.700877 -2.962061 -5.100197 -4.031129 -4.031129
C -5.100197 -2.962061 -5.700877 -1.51189 -5.700877 0
C -5.700877 1.51189 -5.100197 2.962061 -4.031129 4.031129
C -2.962061 5.100197 -1.51189 5.700877 0 5.700877
z
" style="stroke: #ffffff"/>
    </defs>
    <g clip-path="url(#p3cfdd654dc)">
     <use xlink:href="#m7c2367620f" x="109.449546" y="72.180211" style="fill: #176b72; stroke: #ffffff"/>
    </g>
   </g>
   <g id="PathCollection_86">
    <g clip-path="url(#p3cfdd654dc)">
     <use xlink:href="#m7c2367620f" x="98.067598" y="72.180211" style="fill: #176b72; stroke: #ffffff"/>
    </g>
   </g>
   <g id="PathCollection_87">
    <g clip-path="url(#p3cfdd654dc)">
     <use xlink:href="#m7c2367620f" x="29.77591" y="72.180211" style="fill: #176b72; stroke: #ffffff"/>
    </g>
   </g>
   <g id="PathCollection_88">
    <g clip-path="url(#p3cfdd654dc)">
     <use xlink:href="#m7c2367620f" x="41.157858" y="72.180211" style="fill: #176b72; stroke: #ffffff"/>
    </g>
   </g>
   <g id="PathCollection_89">
    <g clip-path="url(#p3cfdd654dc)">
     <use xlink:href="#m1bed0caaba" x="223.269026" y="122.616965" style="fill: #e9efeb; stroke: #ffffff"/>
    </g>
   </g>
   <g id="PathCollection_90">
    <g clip-path="url(#p3cfdd654dc)">
     <use xlink:href="#m1bed0caaba" x="211.887078" y="122.616965" style="fill: #e9efeb; stroke: #ffffff"/>
    </g>
   </g>
   <g id="PathCollection_91">
    <g clip-path="url(#p3cfdd654dc)">
     <use xlink:href="#m1bed0caaba" x="280.178766" y="122.616965" style="fill: #e9efeb; stroke: #ffffff"/>
    </g>
   </g>
   <g id="PathCollection_92">
    <g clip-path="url(#p3cfdd654dc)">
     <use xlink:href="#m1bed0caaba" x="291.560714" y="122.616965" style="fill: #e9efeb; stroke: #ffffff"/>
    </g>
   </g>
   <g id="PathCollection_93">
    <g clip-path="url(#p3cfdd654dc)">
     <use xlink:href="#m4cc6692195" x="177.741234" y="105.804713" style="fill: #d4dfda; stroke: #ffffff"/>
    </g>
   </g>
   <g id="PathCollection_94">
    <g clip-path="url(#p3cfdd654dc)">
     <use xlink:href="#m4cc6692195" x="189.123182" y="105.804713" style="fill: #d4dfda; stroke: #ffffff"/>
    </g>
   </g>
   <g id="PathCollection_95">
    <g clip-path="url(#p3cfdd654dc)">
     <use xlink:href="#m4cc6692195" x="257.41487" y="105.804713" style="fill: #d4dfda; stroke: #ffffff"/>
    </g>
   </g>
   <g id="PathCollection_96">
    <g clip-path="url(#p3cfdd654dc)">
     <use xlink:href="#m4cc6692195" x="246.032922" y="105.804713" style="fill: #d4dfda; stroke: #ffffff"/>
    </g>
   </g>
   <g id="PathCollection_97">
    <g clip-path="url(#p3cfdd654dc)">
     <use xlink:href="#m3a80ac375d" x="268.796818" y="88.992462" style="fill: #91aaa6; stroke: #ffffff"/>
    </g>
   </g>
   <g id="PathCollection_98">
    <g clip-path="url(#p3cfdd654dc)">
     <use xlink:href="#m3a80ac375d" x="280.178766" y="88.992462" style="fill: #91aaa6; stroke: #ffffff"/>
    </g>
   </g>
   <g id="PathCollection_99">
    <g clip-path="url(#p3cfdd654dc)">
     <use xlink:href="#m3a80ac375d" x="211.887078" y="88.992462" style="fill: #91aaa6; stroke: #ffffff"/>
    </g>
   </g>
   <g id="PathCollection_100">
    <g clip-path="url(#p3cfdd654dc)">
     <use xlink:href="#m3a80ac375d" x="200.50513" y="88.992462" style="fill: #91aaa6; stroke: #ffffff"/>
    </g>
   </g>
   <g id="PathCollection_101">
    <g clip-path="url(#p3cfdd654dc)">
     <use xlink:href="#m7c2367620f" x="246.032922" y="72.180211" style="fill: #176b72; stroke: #ffffff"/>
    </g>
   </g>
   <g id="PathCollection_102">
    <g clip-path="url(#p3cfdd654dc)">
     <use xlink:href="#m7c2367620f" x="234.650974" y="72.180211" style="fill: #176b72; stroke: #ffffff"/>
    </g>
   </g>
   <g id="PathCollection_103">
    <g clip-path="url(#p3cfdd654dc)">
     <use xlink:href="#m7c2367620f" x="166.359286" y="72.180211" style="fill: #176b72; stroke: #ffffff"/>
    </g>
   </g>
   <g id="PathCollection_104">
    <g clip-path="url(#p3cfdd654dc)">
     <use xlink:href="#m7c2367620f" x="177.741234" y="72.180211" style="fill: #176b72; stroke: #ffffff"/>
    </g>
   </g>
   <g id="PathCollection_105">
    <g clip-path="url(#p3cfdd654dc)">
     <use xlink:href="#m1bed0caaba" x="359.852402" y="122.616965" style="fill: #e9efeb; stroke: #ffffff"/>
    </g>
   </g>
   <g id="PathCollection_106">
    <g clip-path="url(#p3cfdd654dc)">
     <use xlink:href="#m1bed0caaba" x="348.470454" y="122.616965" style="fill: #e9efeb; stroke: #ffffff"/>
    </g>
   </g>
   <g id="PathCollection_107">
    <g clip-path="url(#p3cfdd654dc)">
     <use xlink:href="#m1bed0caaba" x="416.762142" y="122.616965" style="fill: #e9efeb; stroke: #ffffff"/>
    </g>
   </g>
   <g id="PathCollection_108">
    <g clip-path="url(#p3cfdd654dc)">
     <use xlink:href="#m1bed0caaba" x="428.14409" y="122.616965" style="fill: #e9efeb; stroke: #ffffff"/>
    </g>
   </g>
   <g id="PathCollection_109">
    <g clip-path="url(#p3cfdd654dc)">
     <use xlink:href="#m4cc6692195" x="314.32461" y="105.804713" style="fill: #d4dfda; stroke: #ffffff"/>
    </g>
   </g>
   <g id="PathCollection_110">
    <g clip-path="url(#p3cfdd654dc)">
     <use xlink:href="#m4cc6692195" x="325.706558" y="105.804713" style="fill: #d4dfda; stroke: #ffffff"/>
    </g>
   </g>
   <g id="PathCollection_111">
    <g clip-path="url(#p3cfdd654dc)">
     <use xlink:href="#m4cc6692195" x="393.998246" y="105.804713" style="fill: #d4dfda; stroke: #ffffff"/>
    </g>
   </g>
   <g id="PathCollection_112">
    <g clip-path="url(#p3cfdd654dc)">
     <use xlink:href="#m4cc6692195" x="382.616298" y="105.804713" style="fill: #d4dfda; stroke: #ffffff"/>
    </g>
   </g>
   <g id="PathCollection_113">
    <g clip-path="url(#p3cfdd654dc)">
     <use xlink:href="#m3a80ac375d" x="405.380194" y="88.992462" style="fill: #91aaa6; stroke: #ffffff"/>
    </g>
   </g>
   <g id="PathCollection_114">
    <g clip-path="url(#p3cfdd654dc)">
     <use xlink:href="#m3a80ac375d" x="416.762142" y="88.992462" style="fill: #91aaa6; stroke: #ffffff"/>
    </g>
   </g>
   <g id="PathCollection_115">
    <g clip-path="url(#p3cfdd654dc)">
     <use xlink:href="#m3a80ac375d" x="348.470454" y="88.992462" style="fill: #91aaa6; stroke: #ffffff"/>
    </g>
   </g>
   <g id="PathCollection_116">
    <g clip-path="url(#p3cfdd654dc)">
     <use xlink:href="#m3a80ac375d" x="337.088506" y="88.992462" style="fill: #91aaa6; stroke: #ffffff"/>
    </g>
   </g>
   <g id="PathCollection_117">
    <g clip-path="url(#p3cfdd654dc)">
     <use xlink:href="#m7c2367620f" x="382.616298" y="72.180211" style="fill: #176b72; stroke: #ffffff"/>
    </g>
   </g>
   <g id="PathCollection_118">
    <g clip-path="url(#p3cfdd654dc)">
     <use xlink:href="#m7c2367620f" x="371.23435" y="72.180211" style="fill: #176b72; stroke: #ffffff"/>
    </g>
   </g>
   <g id="PathCollection_119">
    <g clip-path="url(#p3cfdd654dc)">
     <use xlink:href="#m7c2367620f" x="302.942662" y="72.180211" style="fill: #176b72; stroke: #ffffff"/>
    </g>
   </g>
   <g id="PathCollection_120">
    <g clip-path="url(#p3cfdd654dc)">
     <use xlink:href="#m7c2367620f" x="314.32461" y="72.180211" style="fill: #176b72; stroke: #ffffff"/>
    </g>
   </g>
  </g>
 </g>
 <defs>
  <clipPath id="p3cfdd654dc">
   <rect x="5.76" y="5.76" width="446.4" height="277.2"/>
  </clipPath>
 </defs>
</svg>
