<?xml version="1.0" encoding="utf-8" standalone="no"?>
<!DOCTYPE svg PUBLIC "-//W3C//DTD SVG 1.1//EN"
  "http://www.w3.org/Graphics/SVG/1.1/DTD/svg11.dtd">
<svg xmlns:xlink="http://www.w3.org/1999/xlink" width="457.92pt" height="288.72pt" viewBox="0 0 457.92 288.72" xmlns="http://www.w3.org/2000/svg" version="1.1">
 <metadata>
  <rdf:RDF xmlns:dc="http://purl.org/dc/elements/1.1/" xmlns:cc="http://creativecommons.org/ns#" xmlns:rdf="http://www.w3.org/1999/02/22-rdf-syntax-ns#">
   <cc:Work>
    <dc:type rdf:resource="http://purl.org/dc/dcmitype/StillImage"/>
    <dc:format>image/svg+xml</dc:format>
    <dc:creator>
     <cc:Agent>
      <dc:title>tools/generate_surface_figures.py</dc:title>
     </cc:Agent>
    </dc:creator>
   </cc:Work>
  </rdf:RDF>
 </metadata>
 <defs>
  <style type="text/css">*{stroke-linejoin: round; stroke-linecap: butt}</style>
 </defs>
 <g id="figure_1">
  <g id="patch_1">
   <path d="M 0 288.72
L 457.92 288.72
L 457.92 0
L 0 0
z
" style="fill: #ffffff"/>
  </g>
  <g id="axes_1">
   <g id="line2d_1">
    <path d="M 5.76 24.877241
L 452.16 24.877241
" clip-path="url(#p3cfdd654dc)" style="fill: none; stroke-dasharray: 6,6; stroke-dashoffset: 0; stroke: #d85f45; stroke-width: 1.5"/>
   </g>
   <g id="PathCollection_1">
    <defs>
     <path id="m8b2a0f466a" d="M 0 3.464102
C 0.91869 3.464102 1.799877 3.099102 2.44949 2.44949
C 3.099102 1.799877 3.464102 0.91869 3.464102 0
C 3.464102 -0.91869 3.099102 -1.799877 2.44949 -2.44949
C 1.799877 -3.099102 0.91869 -3.464102 0 -3.464102
C -0.91869 -3.464102 -1.799877 -3.099102 -2.44949 -2.44949
C -3.099102 -1.799877 -3.464102 -0.91869 -3.464102 0
C -3.464102 0.91869 -3.099102 1.799877 -2.44949 2.44949
C -1.799877 3.099102 -0.91869 3.464102 0 3.464102
z
" style="stroke: #ffffff"/>
    </defs>
    <g clip-path="url(#p3cfdd654dc)">
     <use xlink:href="#m8b2a0f466a" x="51.789831" y="263.842759" style="fill: #eef2ef; stroke: #ffffff"/>
    </g>
   </g>
   <g id="PathCollection_2">
    <g clip-path="url(#p3cfdd654dc)">
     <use xlink:href="#m8b2a0f466a" x="149.53889" y="251.624126" style="fill: #eef2ef; stroke: #ffffff"/>
    </g>
   </g>
   <g id="PathCollection_3">
    <g clip-path="url(#p3cfdd654dc)">
     <use xlink:href="#m8b2a0f466a" x="112.882993" y="263.842759" style="fill: #eef2ef; stroke: #ffffff"/>
    </g>
   </g>
   <g id="PathCollection_4">
    <g clip-path="url(#p3cfdd654dc)">
     <use xlink:href="#m8b2a0f466a" x="88.445728" y="251.624126" style="fill: #eef2ef; stroke: #ffffff"/>
    </g>
   </g>
   <g id="PathCollection_5">
    <g clip-path="url(#p3cfdd654dc)">
     <use xlink:href="#m8b2a0f466a" x="125.101625" y="239.405494" style="fill: #eef2ef; stroke: #ffffff"/>
    </g>
   </g>
   <g id="PathCollection_6">
    <g clip-path="url(#p3cfdd654dc)">
     <use xlink:href="#m8b2a0f466a" x="100.66436" y="227.186862" style="fill: #eef2ef; stroke: #ffffff"/>
    </g>
   </g>
   <g id="PathCollection_7">
    <g clip-path="url(#p3cfdd654dc)">
     <use xlink:href="#m8b2a0f466a" x="64.008463" y="239.405494" style="fill: #eef2ef; stroke: #ffffff"/>
    </g>
   </g>
   <g id="PathCollection_8">
    <g clip-path="url(#p3cfdd654dc)">
     <use xlink:href="#m8b2a0f466a" x="161.757522" y="227.186862" style="fill: #eef2ef; stroke: #ffffff"/>
    </g>
   </g>
   <g id="PathCollection_9">
    <g clip-path="url(#p3cfdd654dc)">
     <use xlink:href="#m8b2a0f466a" x="76.227095" y="214.968229" style="fill: #eef2ef; stroke: #ffffff"/>
    </g>
   </g>
   <g id="PathCollection_10">
    <g clip-path="url(#p3cfdd654dc)">
     <use xlink:href="#m8b2a0f466a" x="51.789831" y="202.749597" style="fill: #eef2ef; stroke: #ffffff"/>
    </g>
   </g>
   <g id="PathCollection_11">
    <g clip-path="url(#p3cfdd654dc)">
     <use xlink:href="#m8b2a0f466a" x="137.320257" y="214.968229" style="fill: #eef2ef; stroke: #ffffff"/>
    </g>
   </g>
   <g id="PathCollection_12">
    <g clip-path="url(#p3cfdd654dc)">
     <use xlink:href="#m8b2a0f466a" x="112.882993" y="202.749597" style="fill: #eef2ef; stroke: #ffffff"/>
    </g>
   </g>
   <g id="PathCollection_13">
    <g clip-path="url(#p3cfdd654dc)">
     <use xlink:href="#m8b2a0f466a" x="149.53889" y="190.530964" style="fill: #eef2ef; stroke: #ffffff"/>
    </g>
   </g>
   <g id="PathCollection_14">
    <g clip-path="url(#p3cfdd654dc)">
     <use xlink:href="#m8b2a0f466a" x="125.101625" y="178.312332" style="fill: #eef2ef; stroke: #ffffff"/>
    </g>
   </g>
   <g id="PathCollection_15">
    <g clip-path="url(#p3cfdd654dc)">
     <use xlink:href="#m8b2a0f466a" x="88.445728" y="190.530964" style="fill: #eef2ef; stroke: #ffffff"/>
    </g>
   </g>
   <g id="PathCollection_16">
    <g clip-path="url(#p3cfdd654dc)">
     <use xlink:href="#m8b2a0f466a" x="64.008463" y="178.312332" style="fill: #eef2ef; stroke: #ffffff"/>
    </g>
   </g>
   <g id="PathCollection_17">
    <g clip-path="url(#p3cfdd654dc)">
     <use xlink:href="#m8b2a0f466a" x="100.66436" y="166.0937" style="fill: #eef2ef; stroke: #ffffff"/>
    </g>
   </g>
   <g id="PathCollection_18">
    <g clip-path="url(#p3cfdd654dc)">
     <use xlink:href="#m8b2a0f466a" x="76.227095" y="153.875067" style="fill: #eef2ef; stroke: #ffffff"/>
    </g>
   </g>
   <g id="PathCollection_19">
    <g clip-path="url(#p3cfdd654dc)">
     <use xlink:href="#m8b2a0f466a" x="161.757522" y="166.0937" style="fill: #eef2ef; stroke: #ffffff"/>
    </g>
   </g>
   <g id="PathCollection_20">
    <g clip-path="url(#p3cfdd654dc)">
     <use xlink:href="#m8b2a0f466a" x="137.320257" y="153.875067" style="fill: #eef2ef; stroke: #ffffff"/>
    </g>
   </g>
   <g id="PathCollection_21">
    <g clip-path="url(#p3cfdd654dc)">
     <use xlink:href="#m8b2a0f466a" x="51.789831" y="141.656435" style="fill: #eef2ef; stroke: #ffffff"/>
    </g>
   </g>
   <g id="PathCollection_22">
    <defs>
     <path id="m0f1d1328e9" d="M 0 3.5
C 0.928211 3.5 1.81853 3.131218 2.474874 2.474874
C 3.131218 1.81853 3.5 0.928211 3.5 0
C 3.5 -0.928211 3.131218 -1.81853 2.474874 -2.474874
C 1.81853 -3.131218 0.928211 -3.5 0 -3.5
C -0.928211 -3.5 -1.81853 -3.131218 -2.474874 -2.474874
C -3.131218 -1.81853 -3.5 -0.928211 -3.5 0
C -3.5 0.928211 -3.131218 1.81853 -2.474874 2.474874
C -1.81853 3.131218 -0.928211 3.5 0 3.5
z
" style="stroke: #ffffff"/>
    </defs>
    <g clip-path="url(#p3cfdd654dc)">
     <use xlink:href="#m0f1d1328e9" x="149.53889" y="129.437803" style="fill: #eef2ef; stroke: #ffffff"/>
    </g>
   </g>
   <g id="PathCollection_23">
    <g clip-path="url(#p3cfdd654dc)">
     <use xlink:href="#m8b2a0f466a" x="112.882993" y="141.656435" style="fill: #eef2ef; stroke: #ffffff"/>
    </g>
   </g>
   <g id="PathCollection_24">
    <g clip-path="url(#p3cfdd654dc)">
     <use xlink:href="#m0f1d1328e9" x="88.445728" y="129.437803" style="fill: #eef2ef; stroke: #ffffff"/>
    </g>
   </g>
   <g id="PathCollection_25">
    <defs>
     <path id="m9e9536ca1d" d="M 0 3.741657
C 0.992299 3.741657 1.94409 3.347413 2.645751 2.645751
C 3.347413 1.94409 3.741657 0.992299 3.741657 0
C 3.741657 -0.992299 3.347413 -1.94409 2.645751 -2.645751
C 1.94409 -3.347413 0.992299 -3.741657 0 -3.741657
C -0.992299 -3.741657 -1.94409 -3.347413 -2.645751 -2.645751
C -3.347413 -1.94409 -3.741657 -0.992299 -3.741657 0
C -3.741657 0.992299 -3.347413 1.94409 -2.645751 2.645751
C -1.94409 3.347413 -0.992299 3.741657 0 3.741657
z
" style="stroke: #ffffff"/>
    </defs>
    <g clip-path="url(#p3cfdd654dc)">
     <use xlink:href="#m9e9536ca1d" x="125.101625" y="117.21917" style="fill: #eef2ef; stroke: #ffffff"/>
    </g>
   </g>
   <g id="PathCollection_26">
    <defs>
     <path id="m1adc591644" d="M 0 3.968627
C 1.052492 3.968627 2.062019 3.550467 2.806243 2.806243
C 3.550467 2.062019 3.968627 1.052492 3.968627 0
C 3.968627 -1.052492 3.550467 -2.062019 2.806243 -2.806243
C 2.062019 -3.550467 1.052492 -3.968627 0 -3.968627
C -1.052492 -3.968627 -2.062019 -3.550467 -2.806243 -2.806243
C -3.550467 -2.062019 -3.968627 -1.052492 -3.968627 0
C -3.968627 1.052492 -3.550467 2.062019 -2.806243 2.806243
C -2.062019 3.550467 -1.052492 3.968627 0 3.968627
z
" style="stroke: #ffffff"/>
    </defs>
    <g clip-path="url(#p3cfdd654dc)">
     <use xlink:href="#m1adc591644" x="100.66436" y="105.000538" style="fill: #eef2ef; stroke: #ffffff"/>
    </g>
   </g>
   <g id="PathCollection_27">
    <g clip-path="url(#p3cfdd654dc)">
     <use xlink:href="#m9e9536ca1d" x="64.008463" y="117.21917" style="fill: #eef2ef; stroke: #ffffff"/>
    </g>
   </g>
   <g id="PathCollection_28">
    <g clip-path="url(#p3cfdd654dc)">
     <use xlink:href="#m1adc591644" x="161.757522" y="105.000538" style="fill: #eef2ef; stroke: #ffffff"/>
    </g>
   </g>
   <g id="PathCollection_29">
    <defs>
     <path id="m11b0ace33b" d="M 0 4.1833
C 1.109424 4.1833 2.173559 3.742521 2.95804 2.95804
C 3.742521 2.173559 4.1833 1.109424 4.1833 0
C 4.1833 -1.109424 3.742521 -2.173559 2.95804 -2.95804
C 2.173559 -3.742521 1.109424 -4.1833 0 -4.1833
C -1.109424 -4.1833 -2.173559 -3.742521 -2.95804 -2.95804
C -3.742521 -2.173559 -4.1833 -1.109424 -4.1833 0
C -4.1833 1.109424 -3.742521 2.173559 -2.95804 2.95804
C -2.173559 3.742521 -1.109424 4.1833 0 4.1833
z
" style="stroke: #ffffff"/>
    </defs>
    <g clip-path="url(#p3cfdd654dc)">
     <use xlink:href="#m11b0ace33b" x="76.227095" y="92.781906" style="fill: #eef2ef; stroke: #ffffff"/>
    </g>
   </g>
   <g id="PathCollection_30">
    <defs>
     <path id="m9e57a95250" d="M 0 4.387482
C 1.163574 4.387482 2.279647 3.925189 3.102418 3.102418
C 3.925189 2.279647 4.387482 1.163574 4.387482 0
C 4.387482 -1.163574 3.925189 -2.279647 3.102418 -3.102418
C 2.279647 -3.925189 1.163574 -4.387482 0 -4.387482
C -1.163574 -4.387482 -2.279647 -3.925189 -3.102418 -3.102418
C -3.925189 -2.279647 -4.387482 -1.163574 -4.387482 0
C -4.387482 1.163574 -3.925189 2.279647 -3.102418 3.102418
C -2.279647 3.925189 -1.163574 4.387482 0 4.387482
z
" style="stroke: #ffffff"/>
    </defs>
    <g clip-path="url(#p3cfdd654dc)">
     <use xlink:href="#m9e57a95250" x="51.789831" y="80.563273" style="fill: #eef2ef; stroke: #ffffff"/>
    </g>
   </g>
   <g id="PathCollection_31">
    <g clip-path="url(#p3cfdd654dc)">
     <use xlink:href="#m11b0ace33b" x="137.320257" y="92.781906" style="fill: #eef2ef; stroke: #ffffff"/>
    </g>
   </g>
   <g id="PathCollection_32">
    <g clip-path="url(#p3cfdd654dc)">
     <use xlink:href="#m9e57a95250" x="112.882993" y="80.563273" style="fill: #eef2ef; stroke: #ffffff"/>
    </g>
   </g>
   <g id="PathCollection_33">
    <g clip-path="url(#p3cfdd654dc)">
     <use xlink:href="#m8b2a0f466a" x="173.976154" y="263.842759" style="fill: #eef2ef; stroke: #ffffff"/>
    </g>
   </g>
   <g id="PathCollection_34">
    <g clip-path="url(#p3cfdd654dc)">
     <use xlink:href="#m8b2a0f466a" x="271.725213" y="251.624126" style="fill: #eef2ef; stroke: #ffffff"/>
    </g>
   </g>
   <g id="PathCollection_35">
    <g clip-path="url(#p3cfdd654dc)">
     <use xlink:href="#m8b2a0f466a" x="235.069316" y="263.842759" style="fill: #eef2ef; stroke: #ffffff"/>
    </g>
   </g>
   <g id="PathCollection_36">
    <g clip-path="url(#p3cfdd654dc)">
     <use xlink:href="#m8b2a0f466a" x="210.632051" y="251.624126" style="fill: #eef2ef; stroke: #ffffff"/>
    </g>
   </g>
   <g id="PathCollection_37">
    <g clip-path="url(#p3cfdd654dc)">
     <use xlink:href="#m8b2a0f466a" x="247.287949" y="239.405494" style="fill: #eef2ef; stroke: #ffffff"/>
    </g>
   </g>
   <g id="PathCollection_38">
    <g clip-path="url(#p3cfdd654dc)">
     <use xlink:href="#m8b2a0f466a" x="222.850684" y="227.186862" style="fill: #eef2ef; stroke: #ffffff"/>
    </g>
   </g>
   <g id="PathCollection_39">
    <g clip-path="url(#p3cfdd654dc)">
     <use xlink:href="#m8b2a0f466a" x="186.194787" y="239.405494" style="fill: #eef2ef; stroke: #ffffff"/>
    </g>
   </g>
   <g id="PathCollection_40">
    <g clip-path="url(#p3cfdd654dc)">
     <use xlink:href="#m8b2a0f466a" x="283.943846" y="227.186862" style="fill: #eef2ef; stroke: #ffffff"/>
    </g>
   </g>
   <g id="PathCollection_41">
    <g clip-path="url(#p3cfdd654dc)">
     <use xlink:href="#m8b2a0f466a" x="198.413419" y="214.968229" style="fill: #eef2ef; stroke: #ffffff"/>
    </g>
   </g>
   <g id="PathCollection_42">
    <g clip-path="url(#p3cfdd654dc)">
     <use xlink:href="#m8b2a0f466a" x="173.976154" y="202.749597" style="fill: #eef2ef; stroke: #ffffff"/>
    </g>
   </g>
   <g id="PathCollection_43">
    <g clip-path="url(#p3cfdd654dc)">
     <use xlink:href="#m8b2a0f466a" x="259.506581" y="214.968229" style="fill: #eef2ef; stroke: #ffffff"/>
    </g>
   </g>
   <g id="PathCollection_44">
    <g clip-path="url(#p3cfdd654dc)">
     <use xlink:href="#m8b2a0f466a" x="235.069316" y="202.749597" style="fill: #eef2ef; stroke: #ffffff"/>
    </g>
   </g>
   <g id="PathCollection_45">
    <g clip-path="url(#p3cfdd654dc)">
     <use xlink:href="#m8b2a0f466a" x="271.725213" y="190.530964" style="fill: #eef2ef; stroke: #ffffff"/>
    </g>
   </g>
   <g id="PathCollection_46">
    <g clip-path="url(#p3cfdd654dc)">
     <use xlink:href="#m8b2a0f466a" x="247.287949" y="178.312332" style="fill: #eef2ef; stroke: #ffffff"/>
    </g>
   </g>
   <g id="PathCollection_47">
    <g clip-path="url(#p3cfdd654dc)">
     <use xlink:href="#m8b2a0f466a" x="210.632051" y="190.530964" style="fill: #eef2ef; stroke: #ffffff"/>
    </g>
   </g>
   <g id="PathCollection_48">
    <g clip-path="url(#p3cfdd654dc)">
     <use xlink:href="#m8b2a0f466a" x="186.194787" y="178.312332" style="fill: #eef2ef; stroke: #ffffff"/>
    </g>
   </g>
   <g id="PathCollection_49">
    <g clip-path="url(#p3cfdd654dc)">
     <use xlink:href="#m8b2a0f466a" x="222.850684" y="166.0937" style="fill: #eef2ef; stroke: #ffffff"/>
    </g>
   </g>
   <g id="PathCollection_50">
    <g clip-path="url(#p3cfdd654dc)">
     <use xlink:href="#m8b2a0f466a" x="198.413419" y="153.875067" style="fill: #eef2ef; stroke: #ffffff"/>
    </g>
   </g>
   <g id="PathCollection_51">
    <g clip-path="url(#p3cfdd654dc)">
     <use xlink:href="#m8b2a0f466a" x="283.943846" y="166.0937" style="fill: #eef2ef; stroke: #ffffff"/>
    </g>
   </g>
   <g id="PathCollection_52">
    <g clip-path="url(#p3cfdd654dc)">
     <use xlink:href="#m8b2a0f466a" x="259.506581" y="153.875067" style="fill: #eef2ef; stroke: #ffffff"/>
    </g>
   </g>
   <g id="PathCollection_53">
    <g clip-path="url(#p3cfdd654dc)">
     <use xlink:href="#m8b2a0f466a" x="173.976154" y="141.656435" style="fill: #eef2ef; stroke: #ffffff"/>
    </g>
   </g>
   <g id="PathCollection_54">
    <g clip-path="url(#p3cfdd654dc)">
     <use xlink:href="#m0f1d1328e9" x="271.725213" y="129.437803" style="fill: #eef2ef; stroke: #ffffff"/>
    </g>
   </g>
   <g id="PathCollection_55">
    <g clip-path="url(#p3cfdd654dc)">
     <use xlink:href="#m8b2a0f466a" x="235.069316" y="141.656435" style="fill: #eef2ef; stroke: #ffffff"/>
    </g>
   </g>
   <g id="PathCollection_56">
    <g clip-path="url(#p3cfdd654dc)">
     <use xlink:href="#m0f1d1328e9" x="210.632051" y="129.437803" style="fill: #eef2ef; stroke: #ffffff"/>
    </g>
   </g>
   <g id="PathCollection_57">
    <g clip-path="url(#p3cfdd654dc)">
     <use xlink:href="#m9e9536ca1d" x="247.287949" y="117.21917" style="fill: #eef2ef; stroke: #ffffff"/>
    </g>
   </g>
   <g id="PathCollection_58">
    <g clip-path="url(#p3cfdd654dc)">
     <use xlink:href="#m1adc591644" x="222.850684" y="105.000538" style="fill: #eef2ef; stroke: #ffffff"/>
    </g>
   </g>
   <g id="PathCollection_59">
    <g clip-path="url(#p3cfdd654dc)">
     <use xlink:href="#m9e9536ca1d" x="186.194787" y="117.21917" style="fill: #eef2ef; stroke: #ffffff"/>
    </g>
   </g>
   <g id="PathCollection_60">
    <g clip-path="url(#p3cfdd654dc)">
     <use xlink:href="#m1adc591644" x="283.943846" y="105.000538" style="fill: #eef2ef; stroke: #ffffff"/>
    </g>
   </g>
   <g id="PathCollection_61">
    <g clip-path="url(#p3cfdd654dc)">
     <use xlink:href="#m11b0ace33b" x="198.413419" y="92.781906" style="fill: #eef2ef; stroke: #ffffff"/>
    </g>
   </g>
   <g id="PathCollection_62">
    <g clip-path="url(#p3cfdd654dc)">
     <use xlink:href="#m9e57a95250" x="173.976154" y="80.563273" style="fill: #eef2ef; stroke: #ffffff"/>
    </g>
   </g>
   <g id="PathCollection_63">
    <g clip-path="url(#p3cfdd654dc)">
     <use xlink:href="#m11b0ace33b" x="259.506581" y="92.781906" style="fill: #eef2ef; stroke: #ffffff"/>
    </g>
   </g>
   <g id="PathCollection_64">
    <g clip-path="url(#p3cfdd654dc)">
     <use xlink:href="#m9e57a95250" x="235.069316" y="80.563273" style="fill: #eef2ef; stroke: #ffffff"/>
    </g>
   </g>
   <g id="PathCollection_65">
    <g clip-path="url(#p3cfdd654dc)">
     <use xlink:href="#m8b2a0f466a" x="296.162478" y="263.842759" style="fill: #eef2ef; stroke: #ffffff"/>
    </g>
   </g>
   <g id="PathCollection_66">
    <g clip-path="url(#p3cfdd654dc)">
     <use xlink:href="#m8b2a0f466a" x="393.911537" y="251.624126" style="fill: #eef2ef; stroke: #ffffff"/>
    </g>
   </g>
   <g id="PathCollection_67">
    <g clip-path="url(#p3cfdd654dc)">
     <use xlink:href="#m8b2a0f466a" x="357.25564" y="263.842759" style="fill: #eef2ef; stroke: #ffffff"/>
    </g>
   </g>
   <g id="PathCollection_68">
    <g clip-path="url(#p3cfdd654dc)">
     <use xlink:href="#m8b2a0f466a" x="332.818375" y="251.624126" style="fill: #eef2ef; stroke: #ffffff"/>
    </g>
   </g>
   <g id="PathCollection_69">
    <g clip-path="url(#p3cfdd654dc)">
     <use xlink:href="#m8b2a0f466a" x="369.474272" y="239.405494" style="fill: #eef2ef; stroke: #ffffff"/>
    </g>
   </g>
   <g id="PathCollection_70">
    <g clip-path="url(#p3cfdd654dc)">
     <use xlink:href="#m8b2a0f466a" x="345.037007" y="227.186862" style="fill: #eef2ef; stroke: #ffffff"/>
    </g>
   </g>
   <g id="PathCollection_71">
    <g clip-path="url(#p3cfdd654dc)">
     <use xlink:href="#m8b2a0f466a" x="308.38111" y="239.405494" style="fill: #eef2ef; stroke: #ffffff"/>
    </g>
   </g>
   <g id="PathCollection_72">
    <g clip-path="url(#p3cfdd654dc)">
     <use xlink:href="#m8b2a0f466a" x="406.130169" y="227.186862" style="fill: #eef2ef; stroke: #ffffff"/>
    </g>
   </g>
   <g id="PathCollection_73">
    <g clip-path="url(#p3cfdd654dc)">
     <use xlink:href="#m8b2a0f466a" x="320.599743" y="214.968229" style="fill: #eef2ef; stroke: #ffffff"/>
    </g>
   </g>
   <g id="PathCollection_74">
    <g clip-path="url(#p3cfdd654dc)">
     <use xlink:href="#m8b2a0f466a" x="296.162478" y="202.749597" style="fill: #eef2ef; stroke: #ffffff"/>
    </g>
   </g>
   <g id="PathCollection_75">
    <g clip-path="url(#p3cfdd654dc)">
     <use xlink:href="#m8b2a0f466a" x="381.692905" y="214.968229" style="fill: #eef2ef; stroke: #ffffff"/>
    </g>
   </g>
   <g id="PathCollection_76">
    <g clip-path="url(#p3cfdd654dc)">
     <use xlink:href="#m8b2a0f466a" x="357.25564" y="202.749597" style="fill: #eef2ef; stroke: #ffffff"/>
    </g>
   </g>
   <g id="PathCollection_77">
    <g clip-path="url(#p3cfdd654dc)">
     <use xlink:href="#m8b2a0f466a" x="393.911537" y="190.530964" style="fill: #eef2ef; stroke: #ffffff"/>
    </g>
   </g>
   <g id="PathCollection_78">
    <g clip-path="url(#p3cfdd654dc)">
     <use xlink:href="#m8b2a0f466a" x="369.474272" y="178.312332" style="fill: #eef2ef; stroke: #ffffff"/>
    </g>
   </g>
   <g id="PathCollection_79">
    <g clip-path="url(#p3cfdd654dc)">
     <use xlink:href="#m8b2a0f466a" x="332.818375" y="190.530964" style="fill: #eef2ef; stroke: #ffffff"/>
    </g>
   </g>
   <g id="PathCollection_80">
    <g clip-path="url(#p3cfdd654dc)">
     <use xlink:href="#m8b2a0f466a" x="308.38111" y="178.312332" style="fill: #eef2ef; stroke: #ffffff"/>
    </g>
   </g>
   <g id="PathCollection_81">
    <g clip-path="url(#p3cfdd654dc)">
     <use xlink:href="#m8b2a0f466a" x="345.037007" y="166.0937" style="fill: #eef2ef; stroke: #ffffff"/>
    </g>
   </g>
   <g id="PathCollection_82">
    <g clip-path="url(#p3cfdd654dc)">
     <use xlink:href="#m8b2a0f466a" x="320.599743" y="153.875067" style="fill: #eef2ef; stroke: #ffffff"/>
    </g>
   </g>
   <g id="PathCollection_83">
    <g clip-path="url(#p3cfdd654dc)">
     <use xlink:href="#m8b2a0f466a" x="406.130169" y="166.0937" style="fill: #eef2ef; stroke: #ffffff"/>
    </g>
   </g>
   <g id="PathCollection_84">
    <g clip-path="url(#p3cfdd654dc)">
     <use xlink:href="#m8b2a0f466a" x="381.692905" y="153.875067" style="fill: #eef2ef; stroke: #ffffff"/>
    </g>
   </g>
   <g id="PathCollection_85">
    <g clip-path="url(#p3cfdd654dc)">
     <use xlink:href="#m8b2a0f466a" x="296.162478" y="141.656435" style="fill: #eef2ef; stroke: #ffffff"/>
    </g>
   </g>
   <g id="PathCollection_86">
    <g clip-path="url(#p3cfdd654dc)">
     <use xlink:href="#m0f1d1328e9" x="393.911537" y="129.437803" style="fill: #eef2ef; stroke: #ffffff"/>
    </g>
   </g>
   <g id="PathCollection_87">
    <g clip-path="url(#p3cfdd654dc)">
     <use xlink:href="#m8b2a0f466a" x="357.25564" y="141.656435" style="fill: #eef2ef; stroke: #ffffff"/>
    </g>
   </g>
   <g id="PathCollection_88">
    <g clip-path="url(#p3cfdd654dc)">
     <use xlink:href="#m0f1d1328e9" x="332.818375" y="129.437803" style="fill: #eef2ef; stroke: #ffffff"/>
    </g>
   </g>
   <g id="PathCollection_89">
    <g clip-path="url(#p3cfdd654dc)">
     <use xlink:href="#m9e9536ca1d" x="369.474272" y="117.21917" style="fill: #eef2ef; stroke: #ffffff"/>
    </g>
   </g>
   <g id="PathCollection_90">
    <g clip-path="url(#p3cfdd654dc)">
     <use xlink:href="#m1adc591644" x="345.037007" y="105.000538" style="fill: #eef2ef; stroke: #ffffff"/>
    </g>
   </g>
   <g id="PathCollection_91">
    <g clip-path="url(#p3cfdd654dc)">
     <use xlink:href="#m9e9536ca1d" x="308.38111" y="117.21917" style="fill: #eef2ef; stroke: #ffffff"/>
    </g>
   </g>
   <g id="PathCollection_92">
    <g clip-path="url(#p3cfdd654dc)">
     <use xlink:href="#m1adc591644" x="406.130169" y="105.000538" style="fill: #eef2ef; stroke: #ffffff"/>
    </g>
   </g>
   <g id="PathCollection_93">
    <g clip-path="url(#p3cfdd654dc)">
     <use xlink:href="#m11b0ace33b" x="320.599743" y="92.781906" style="fill: #eef2ef; stroke: #ffffff"/>
    </g>
   </g>
   <g id="PathCollection_94">
    <g clip-path="url(#p3cfdd654dc)">
     <use xlink:href="#m9e57a95250" x="296.162478" y="80.563273" style="fill: #eef2ef; stroke: #ffffff"/>
    </g>
   </g>
   <g id="PathCollection_95">
    <g clip-path="url(#p3cfdd654dc)">
     <use xlink:href="#m11b0ace33b" x="381.692905" y="92.781906" style="fill: #eef2ef; stroke: #ffffff"/>
    </g>
   </g>
   <g id="PathCollection_96">
    <g clip-path="url(#p3cfdd654dc)">
     <use xlink:href="#m9e57a95250" x="357.25564" y="80.563273" style="fill: #eef2ef; stroke: #ffffff"/>
    </g>
   </g>
   <g id="text_1">
    <text style="font-size: 8px; font-family: 'DejaVu Sans'; text-anchor: start; fill: #d85f45" x="51.789831" y="20.382132" transform="rotate(-0 51.789831 20.382132)">macroscopic surface plane</text>
   </g>
   <g id="PathCollection_97">
    <defs>
     <path id="m1bed0caaba" d="M 0 4.582576
C 1.215313 4.582576 2.381014 4.099727 3.24037 3.24037
C 4.099727 2.381014 4.582576 1.215313 4.582576 0
C 4.582576 -1.215313 4.099727 -2.381014 3.24037 -3.24037
C 2.381014 -4.099727 1.215313 -4.582576 0 -4.582576
C -1.215313 -4.582576 -2.381014 -4.099727 -3.24037 -3.24037
C -4.099727 -2.381014 -4.582576 -1.215313 -4.582576 0
C -4.582576 1.215313 -4.099727 2.381014 -3.24037 3.24037
C -2.381014 4.099727 -1.215313 4.582576 0 4.582576
z
" style="stroke: #ffffff"/>
    </defs>
    <g clip-path="url(#p3cfdd654dc)">
     <use xlink:href="#m1bed0caaba" x="149.53889" y="68.344641" style="fill: #e9efeb; stroke: #ffffff"/>
    </g>
   </g>
   <g id="PathCollection_98">
    <defs>
     <path id="m4cc6692195" d="M 0 4.769696
C 1.264938 4.769696 2.478238 4.267131 3.372684 3.372684
C 4.267131 2.478238 4.769696 1.264938 4.769696 0
C 4.769696 -1.264938 4.267131 -2.478238 3.372684 -3.372684
C 2.478238 -4.267131 1.264938 -4.769696 0 -4.769696
C -1.264938 -4.769696 -2.478238 -4.267131 -3.372684 -3.372684
C -4.267131 -2.478238 -4.769696 -1.264938 -4.769696 0
C -4.769696 1.264938 -4.267131 2.478238 -3.372684 3.372684
C -2.478238 4.267131 -1.264938 4.769696 0 4.769696
z
" style="stroke: #ffffff"/>
    </defs>
    <g clip-path="url(#p3cfdd654dc)">
     <use xlink:href="#m4cc6692195" x="125.101625" y="56.126008" style="fill: #d4dfda; stroke: #ffffff"/>
    </g>
   </g>
   <g id="PathCollection_99">
    <g clip-path="url(#p3cfdd654dc)">
     <use xlink:href="#m1bed0caaba" x="88.445728" y="68.344641" style="fill: #e9efeb; stroke: #ffffff"/>
    </g>
   </g>
   <g id="PathCollection_100">
    <g clip-path="url(#p3cfdd654dc)">
     <use xlink:href="#m4cc6692195" x="64.008463" y="56.126008" style="fill: #d4dfda; stroke: #ffffff"/>
    </g>
   </g>
   <g id="PathCollection_101">
    <defs>
     <path id="m3a80ac375d" d="M 0 4.949747
C 1.312688 4.949747 2.571789 4.428211 3.5 3.5
C 4.428211 2.571789 4.949747 1.312688 4.949747 0
C 4.949747 -1.312688 4.428211 -2.571789 3.5 -3.5
C 2.571789 -4.428211 1.312688 -4.949747 0 -4.949747
C -1.312688 -4.949747 -2.571789 -4.428211 -3.5 -3.5
C -4.428211 -2.571789 -4.949747 -1.312688 -4.949747 0
C -4.949747 1.312688 -4.428211 2.571789 -3.5 3.5
C -2.571789 4.428211 -1.312688 4.949747 0 4.949747
z
" style="stroke: #ffffff"/>
    </defs>
    <g clip-path="url(#p3cfdd654dc)">
     <use xlink:href="#m3a80ac375d" x="100.66436" y="43.907376" style="fill: #91aaa6; stroke: #ffffff"/>
    </g>
   </g>
   <g id="PathCollection_102">
    <defs>
     <path id="m7c2367620f" d="M 0 5.700877
C 1.51189 5.700877 2.962061 5.100197 4.031129 4.031129
C 5.100197 2.962061 5.700877 1.51189 5.700877 0
C 5.700877 -1.51189 5.100197 -2.962061 4.031129 -4.031129
C 2.962061 -5.100197 1.51189 -5.700877 0 -5.700877
C -1.51189 -5.700877 -2.962061 -5.100197 -4.031129 -4.031129
C -5.100197 -2.962061 -5.700877 -1.51189 -5.700877 0
C -5.700877 1.51189 -5.100197 2.962061 -4.031129 4.031129
C -2.962061 5.100197 -1.51189 5.700877 0 5.700877
z
" style="stroke: #ffffff"/>
    </defs>
    <g clip-path="url(#p3cfdd654dc)">
     <use xlink:href="#m7c2367620f" x="76.227095" y="31.688744" style="fill: #176b72; stroke: #ffffff"/>
    </g>
   </g>
   <g id="PathCollection_103">
    <g clip-path="url(#p3cfdd654dc)">
     <use xlink:href="#m3a80ac375d" x="161.757522" y="43.907376" style="fill: #91aaa6; stroke: #ffffff"/>
    </g>
   </g>
   <g id="PathCollection_104">
    <g clip-path="url(#p3cfdd654dc)">
     <use xlink:href="#m7c2367620f" x="137.320257" y="31.688744" style="fill: #176b72; stroke: #ffffff"/>
    </g>
   </g>
   <g id="PathCollection_105">
    <g clip-path="url(#p3cfdd654dc)">
     <use xlink:href="#m1bed0caaba" x="271.725213" y="68.344641" style="fill: #e9efeb; stroke: #ffffff"/>
    </g>
   </g>
   <g id="PathCollection_106">
    <g clip-path="url(#p3cfdd654dc)">
     <use xlink:href="#m4cc6692195" x="247.287949" y="56.126008" style="fill: #d4dfda; stroke: #ffffff"/>
    </g>
   </g>
   <g id="PathCollection_107">
    <g clip-path="url(#p3cfdd654dc)">
     <use xlink:href="#m1bed0caaba" x="210.632051" y="68.344641" style="fill: #e9efeb; stroke: #ffffff"/>
    </g>
   </g>
   <g id="PathCollection_108">
    <g clip-path="url(#p3cfdd654dc)">
     <use xlink:href="#m4cc6692195" x="186.194787" y="56.126008" style="fill: #d4dfda; stroke: #ffffff"/>
    </g>
   </g>
   <g id="PathCollection_109">
    <g clip-path="url(#p3cfdd654dc)">
     <use xlink:href="#m3a80ac375d" x="222.850684" y="43.907376" style="fill: #91aaa6; stroke: #ffffff"/>
    </g>
   </g>
   <g id="PathCollection_110">
    <g clip-path="url(#p3cfdd654dc)">
     <use xlink:href="#m7c2367620f" x="198.413419" y="31.688744" style="fill: #176b72; stroke: #ffffff"/>
    </g>
   </g>
   <g id="PathCollection_111">
    <g clip-path="url(#p3cfdd654dc)">
     <use xlink:href="#m3a80ac375d" x="283.943846" y="43.907376" style="fill: #91aaa6; stroke: #ffffff"/>
    </g>
   </g>
   <g id="PathCollection_112">
    <g clip-path="url(#p3cfdd654dc)">
     <use xlink:href="#m7c2367620f" x="259.506581" y="31.688744" style="fill: #176b72; stroke: #ffffff"/>
    </g>
   </g>
   <g id="PathCollection_113">
    <g clip-path="url(#p3cfdd654dc)">
     <use xlink:href="#m1bed0caaba" x="393.911537" y="68.344641" style="fill: #e9efeb; stroke: #ffffff"/>
    </g>
   </g>
   <g id="PathCollection_114">
    <g clip-path="url(#p3cfdd654dc)">
     <use xlink:href="#m4cc6692195" x="369.474272" y="56.126008" style="fill: #d4dfda; stroke: #ffffff"/>
    </g>
   </g>
   <g id="PathCollection_115">
    <g clip-path="url(#p3cfdd654dc)">
     <use xlink:href="#m1bed0caaba" x="332.818375" y="68.344641" style="fill: #e9efeb; stroke: #ffffff"/>
    </g>
   </g>
   <g id="PathCollection_116">
    <g clip-path="url(#p3cfdd654dc)">
     <use xlink:href="#m4cc6692195" x="308.38111" y="56.126008" style="fill: #d4dfda; stroke: #ffffff"/>
    </g>
   </g>
   <g id="PathCollection_117">
    <g clip-path="url(#p3cfdd654dc)">
     <use xlink:href="#m3a80ac375d" x="345.037007" y="43.907376" style="fill: #91aaa6; stroke: #ffffff"/>
    </g>
   </g>
   <g id="PathCollection_118">
    <g clip-path="url(#p3cfdd654dc)">
     <use xlink:href="#m7c2367620f" x="320.599743" y="31.688744" style="fill: #176b72; stroke: #ffffff"/>
    </g>
   </g>
   <g id="PathCollection_119">
    <g clip-path="url(#p3cfdd654dc)">
     <use xlink:href="#m3a80ac375d" x="406.130169" y="43.907376" style="fill: #91aaa6; stroke: #ffffff"/>
    </g>
   </g>
   <g id="PathCollection_120">
    <g clip-path="url(#p3cfdd654dc)">
     <use xlink:href="#m7c2367620f" x="381.692905" y="31.688744" style="fill: #176b72; stroke: #ffffff"/>
    </g>
   </g>
  </g>
 </g>
 <defs>
  <clipPath id="p3cfdd654dc">
   <rect x="5.76" y="5.76" width="446.4" height="277.2"/>
  </clipPath>
 </defs>
</svg>
