<?xml version="1.0" encoding="utf-8" standalone="no"?>
<!DOCTYPE svg PUBLIC "-//W3C//DTD SVG 1.1//EN"
  "http://www.w3.org/Graphics/SVG/1.1/DTD/svg11.dtd">
<svg xmlns:xlink="http://www.w3.org/1999/xlink" width="457.92pt" height="288.72pt" viewBox="0 0 457.92 288.72" xmlns="http://www.w3.org/2000/svg" version="1.1">
 <metadata>
  <rdf:RDF xmlns:dc="http://purl.org/dc/elements/1.1/" xmlns:cc="http://creativecommons.org/ns#" xmlns:rdf="http://www.w3.org/1999/02/22-rdf-syntax-ns#">
   <cc:Work>
    <dc:type rdf:resource="http://purl.org/dc/dcmitype/StillImage"/>
    <dc:format>image/svg+xml</dc:format>
    <dc:creator>
     <cc:Agent>
      <dc:title>tools/generate_surface_figures.py</dc:title>
     </cc:Agent>
    </dc:creator>
   </cc:Work>
  </rdf:RDF>
 </metadata>
 <defs>
  <style type="text/css">*{stroke-linejoin: round; stroke-linecap: butt}</style>
 </defs>
 <g id="figure_1">
  <g id="patch_1">
   <path d="M 0 288.72
L 457.92 288.72
L 457.92 0
L 0 0
z
" style="fill: #ffffff"/>
  </g>
  <g id="axes_1">
   <g id="line2d_1">
    <path d="M 5.76 41.047652
L 452.16 41.047652
" clip-path="url(#p3cfdd654dc)" style="fill: none; stroke-dasharray: 6,6; stroke-dashoffset: 0; stroke: #d85f45; stroke-width: 1.5"/>
   </g>
   <g id="PathCollection_1">
    <defs>
     <path id="m8b2a0f466a" d="M 0 3.464102
C 0.91869 3.464102 1.799877 3.099102 2.44949 2.44949
C 3.099102 1.799877 3.464102 0.91869 3.464102 0
C 3.464102 -0.91869 3.099102 -1.799877 2.44949 -2.44949
C 1.799877 -3.099102 0.91869 -3.464102 0 -3.464102
C -0.91869 -3.464102 -1.799877 -3.099102 -2.44949 -2.44949
C -3.099102 -1.799877 -3.464102 -0.91869 -3.464102 0
C -3.464102 0.91869 -3.099102 1.799877 -2.44949 2.44949
C -1.799877 3.099102 -0.91869 3.464102 0 3.464102
z
" style="stroke: #ffffff"/>
    </defs>
    <g clip-path="url(#p3cfdd654dc)">
     <use xlink:href="#m8b2a0f466a" x="32.431698" y="247.672348" style="fill: #eef2ef; stroke: #ffffff"/>
    </g>
   </g>
   <g id="PathCollection_2">
    <g clip-path="url(#p3cfdd654dc)">
     <use xlink:href="#m8b2a0f466a" x="46.469434" y="237.209237" style="fill: #eef2ef; stroke: #ffffff"/>
    </g>
   </g>
   <g id="PathCollection_3">
    <g clip-path="url(#p3cfdd654dc)">
     <use xlink:href="#m8b2a0f466a" x="60.50717" y="237.209237" style="fill: #eef2ef; stroke: #ffffff"/>
    </g>
   </g>
   <g id="PathCollection_4">
    <g clip-path="url(#p3cfdd654dc)">
     <use xlink:href="#m8b2a0f466a" x="18.393962" y="247.672348" style="fill: #eef2ef; stroke: #ffffff"/>
    </g>
   </g>
   <g id="PathCollection_5">
    <g clip-path="url(#p3cfdd654dc)">
     <use xlink:href="#m8b2a0f466a" x="88.582642" y="226.746127" style="fill: #eef2ef; stroke: #ffffff"/>
    </g>
   </g>
   <g id="PathCollection_6">
    <g clip-path="url(#p3cfdd654dc)">
     <use xlink:href="#m8b2a0f466a" x="130.695849" y="216.283016" style="fill: #eef2ef; stroke: #ffffff"/>
    </g>
   </g>
   <g id="PathCollection_7">
    <g clip-path="url(#p3cfdd654dc)">
     <use xlink:href="#m8b2a0f466a" x="144.733585" y="216.283016" style="fill: #eef2ef; stroke: #ffffff"/>
    </g>
   </g>
   <g id="PathCollection_8">
    <g clip-path="url(#p3cfdd654dc)">
     <use xlink:href="#m8b2a0f466a" x="102.620377" y="226.746127" style="fill: #eef2ef; stroke: #ffffff"/>
    </g>
   </g>
   <g id="PathCollection_9">
    <g clip-path="url(#p3cfdd654dc)">
     <use xlink:href="#m8b2a0f466a" x="32.431698" y="205.819906" style="fill: #eef2ef; stroke: #ffffff"/>
    </g>
   </g>
   <g id="PathCollection_10">
    <g clip-path="url(#p3cfdd654dc)">
     <use xlink:href="#m8b2a0f466a" x="74.544906" y="195.356795" style="fill: #eef2ef; stroke: #ffffff"/>
    </g>
   </g>
   <g id="PathCollection_11">
    <g clip-path="url(#p3cfdd654dc)">
     <use xlink:href="#m8b2a0f466a" x="60.50717" y="195.356795" style="fill: #eef2ef; stroke: #ffffff"/>
    </g>
   </g>
   <g id="PathCollection_12">
    <g clip-path="url(#p3cfdd654dc)">
     <use xlink:href="#m8b2a0f466a" x="46.469434" y="205.819906" style="fill: #eef2ef; stroke: #ffffff"/>
    </g>
   </g>
   <g id="PathCollection_13">
    <g clip-path="url(#p3cfdd654dc)">
     <use xlink:href="#m8b2a0f466a" x="116.658113" y="184.893684" style="fill: #eef2ef; stroke: #ffffff"/>
    </g>
   </g>
   <g id="PathCollection_14">
    <g clip-path="url(#p3cfdd654dc)">
     <use xlink:href="#m8b2a0f466a" x="158.771321" y="174.430574" style="fill: #eef2ef; stroke: #ffffff"/>
    </g>
   </g>
   <g id="PathCollection_15">
    <g clip-path="url(#p3cfdd654dc)">
     <use xlink:href="#m8b2a0f466a" x="144.733585" y="174.430574" style="fill: #eef2ef; stroke: #ffffff"/>
    </g>
   </g>
   <g id="PathCollection_16">
    <g clip-path="url(#p3cfdd654dc)">
     <use xlink:href="#m8b2a0f466a" x="102.620377" y="184.893684" style="fill: #eef2ef; stroke: #ffffff"/>
    </g>
   </g>
   <g id="PathCollection_17">
    <g clip-path="url(#p3cfdd654dc)">
     <use xlink:href="#m8b2a0f466a" x="60.50717" y="163.967463" style="fill: #eef2ef; stroke: #ffffff"/>
    </g>
   </g>
   <g id="PathCollection_18">
    <g clip-path="url(#p3cfdd654dc)">
     <use xlink:href="#m8b2a0f466a" x="102.620377" y="153.504353" style="fill: #eef2ef; stroke: #ffffff"/>
    </g>
   </g>
   <g id="PathCollection_19">
    <g clip-path="url(#p3cfdd654dc)">
     <use xlink:href="#m8b2a0f466a" x="88.582642" y="153.504353" style="fill: #eef2ef; stroke: #ffffff"/>
    </g>
   </g>
   <g id="PathCollection_20">
    <g clip-path="url(#p3cfdd654dc)">
     <use xlink:href="#m8b2a0f466a" x="46.469434" y="163.967463" style="fill: #eef2ef; stroke: #ffffff"/>
    </g>
   </g>
   <g id="PathCollection_21">
    <g clip-path="url(#p3cfdd654dc)">
     <use xlink:href="#m8b2a0f466a" x="116.658113" y="143.041242" style="fill: #eef2ef; stroke: #ffffff"/>
    </g>
   </g>
   <g id="PathCollection_22">
    <defs>
     <path id="m0f1d1328e9" d="M 0 3.5
C 0.928211 3.5 1.81853 3.131218 2.474874 2.474874
C 3.131218 1.81853 3.5 0.928211 3.5 0
C 3.5 -0.928211 3.131218 -1.81853 2.474874 -2.474874
C 1.81853 -3.131218 0.928211 -3.5 0 -3.5
C -0.928211 -3.5 -1.81853 -3.131218 -2.474874 -2.474874
C -3.131218 -1.81853 -3.5 -0.928211 -3.5 0
C -3.5 0.928211 -3.131218 1.81853 -2.474874 2.474874
C -1.81853 3.131218 -0.928211 3.5 0 3.5
z
" style="stroke: #ffffff"/>
    </defs>
    <g clip-path="url(#p3cfdd654dc)">
     <use xlink:href="#m0f1d1328e9" x="18.393962" y="132.578132" style="fill: #eef2ef; stroke: #ffffff"/>
    </g>
   </g>
   <g id="PathCollection_23">
    <g clip-path="url(#p3cfdd654dc)">
     <use xlink:href="#m0f1d1328e9" x="32.431698" y="132.578132" style="fill: #eef2ef; stroke: #ffffff"/>
    </g>
   </g>
   <g id="PathCollection_24">
    <g clip-path="url(#p3cfdd654dc)">
     <use xlink:href="#m8b2a0f466a" x="130.695849" y="143.041242" style="fill: #eef2ef; stroke: #ffffff"/>
    </g>
   </g>
   <g id="PathCollection_25">
    <defs>
     <path id="m9e9536ca1d" d="M 0 3.741657
C 0.992299 3.741657 1.94409 3.347413 2.645751 2.645751
C 3.347413 1.94409 3.741657 0.992299 3.741657 0
C 3.741657 -0.992299 3.347413 -1.94409 2.645751 -2.645751
C 1.94409 -3.347413 0.992299 -3.741657 0 -3.741657
C -0.992299 -3.741657 -1.94409 -3.347413 -2.645751 -2.645751
C -3.347413 -1.94409 -3.741657 -0.992299 -3.741657 0
C -3.741657 0.992299 -3.347413 1.94409 -2.645751 2.645751
C -1.94409 3.347413 -0.992299 3.741657 0 3.741657
z
" style="stroke: #ffffff"/>
    </defs>
    <g clip-path="url(#p3cfdd654dc)">
     <use xlink:href="#m9e9536ca1d" x="60.50717" y="122.115021" style="fill: #eef2ef; stroke: #ffffff"/>
    </g>
   </g>
   <g id="PathCollection_26">
    <defs>
     <path id="m1adc591644" d="M 0 3.968627
C 1.052492 3.968627 2.062019 3.550467 2.806243 2.806243
C 3.550467 2.062019 3.968627 1.052492 3.968627 0
C 3.968627 -1.052492 3.550467 -2.062019 2.806243 -2.806243
C 2.062019 -3.550467 1.052492 -3.968627 0 -3.968627
C -1.052492 -3.968627 -2.062019 -3.550467 -2.806243 -2.806243
C -3.550467 -2.062019 -3.968627 -1.052492 -3.968627 0
C -3.968627 1.052492 -3.550467 2.062019 -2.806243 2.806243
C -2.062019 3.550467 -1.052492 3.968627 0 3.968627
z
" style="stroke: #ffffff"/>
    </defs>
    <g clip-path="url(#p3cfdd654dc)">
     <use xlink:href="#m1adc591644" x="102.620377" y="111.651911" style="fill: #eef2ef; stroke: #ffffff"/>
    </g>
   </g>
   <g id="PathCollection_27">
    <g clip-path="url(#p3cfdd654dc)">
     <use xlink:href="#m1adc591644" x="116.658113" y="111.651911" style="fill: #eef2ef; stroke: #ffffff"/>
    </g>
   </g>
   <g id="PathCollection_28">
    <g clip-path="url(#p3cfdd654dc)">
     <use xlink:href="#m9e9536ca1d" x="74.544906" y="122.115021" style="fill: #eef2ef; stroke: #ffffff"/>
    </g>
   </g>
   <g id="PathCollection_29">
    <defs>
     <path id="m11b0ace33b" d="M 0 4.1833
C 1.109424 4.1833 2.173559 3.742521 2.95804 2.95804
C 3.742521 2.173559 4.1833 1.109424 4.1833 0
C 4.1833 -1.109424 3.742521 -2.173559 2.95804 -2.95804
C 2.173559 -3.742521 1.109424 -4.1833 0 -4.1833
C -1.109424 -4.1833 -2.173559 -3.742521 -2.95804 -2.95804
C -3.742521 -2.173559 -4.1833 -1.109424 -4.1833 0
C -4.1833 1.109424 -3.742521 2.173559 -2.95804 2.95804
C -2.173559 3.742521 -1.109424 4.1833 0 4.1833
z
" style="stroke: #ffffff"/>
    </defs>
    <g clip-path="url(#p3cfdd654dc)">
     <use xlink:href="#m11b0ace33b" x="144.733585" y="101.1888" style="fill: #eef2ef; stroke: #ffffff"/>
    </g>
   </g>
   <g id="PathCollection_30">
    <defs>
     <path id="m9e57a95250" d="M 0 4.387482
C 1.163574 4.387482 2.279647 3.925189 3.102418 3.102418
C 3.925189 2.279647 4.387482 1.163574 4.387482 0
C 4.387482 -1.163574 3.925189 -2.279647 3.102418 -3.102418
C 2.279647 -3.925189 1.163574 -4.387482 0 -4.387482
C -1.163574 -4.387482 -2.279647 -3.925189 -3.102418 -3.102418
C -3.925189 -2.279647 -4.387482 -1.163574 -4.387482 0
C -4.387482 1.163574 -3.925189 2.279647 -3.102418 3.102418
C -2.279647 3.925189 -1.163574 4.387482 0 4.387482
z
" style="stroke: #ffffff"/>
    </defs>
    <g clip-path="url(#p3cfdd654dc)">
     <use xlink:href="#m9e57a95250" x="46.469434" y="90.72569" style="fill: #eef2ef; stroke: #ffffff"/>
    </g>
   </g>
   <g id="PathCollection_31">
    <g clip-path="url(#p3cfdd654dc)">
     <use xlink:href="#m9e57a95250" x="32.431698" y="90.72569" style="fill: #eef2ef; stroke: #ffffff"/>
    </g>
   </g>
   <g id="PathCollection_32">
    <g clip-path="url(#p3cfdd654dc)">
     <use xlink:href="#m11b0ace33b" x="130.695849" y="101.1888" style="fill: #eef2ef; stroke: #ffffff"/>
    </g>
   </g>
   <g id="PathCollection_33">
    <g clip-path="url(#p3cfdd654dc)">
     <use xlink:href="#m8b2a0f466a" x="172.809057" y="247.672348" style="fill: #eef2ef; stroke: #ffffff"/>
    </g>
   </g>
   <g id="PathCollection_34">
    <g clip-path="url(#p3cfdd654dc)">
     <use xlink:href="#m8b2a0f466a" x="186.846792" y="237.209237" style="fill: #eef2ef; stroke: #ffffff"/>
    </g>
   </g>
   <g id="PathCollection_35">
    <g clip-path="url(#p3cfdd654dc)">
     <use xlink:href="#m8b2a0f466a" x="200.884528" y="237.209237" style="fill: #eef2ef; stroke: #ffffff"/>
    </g>
   </g>
   <g id="PathCollection_36">
    <g clip-path="url(#p3cfdd654dc)">
     <use xlink:href="#m8b2a0f466a" x="158.771321" y="247.672348" style="fill: #eef2ef; stroke: #ffffff"/>
    </g>
   </g>
   <g id="PathCollection_37">
    <g clip-path="url(#p3cfdd654dc)">
     <use xlink:href="#m8b2a0f466a" x="228.96" y="226.746127" style="fill: #eef2ef; stroke: #ffffff"/>
    </g>
   </g>
   <g id="PathCollection_38">
    <g clip-path="url(#p3cfdd654dc)">
     <use xlink:href="#m8b2a0f466a" x="271.073208" y="216.283016" style="fill: #eef2ef; stroke: #ffffff"/>
    </g>
   </g>
   <g id="PathCollection_39">
    <g clip-path="url(#p3cfdd654dc)">
     <use xlink:href="#m8b2a0f466a" x="285.110943" y="216.283016" style="fill: #eef2ef; stroke: #ffffff"/>
    </g>
   </g>
   <g id="PathCollection_40">
    <g clip-path="url(#p3cfdd654dc)">
     <use xlink:href="#m8b2a0f466a" x="242.997736" y="226.746127" style="fill: #eef2ef; stroke: #ffffff"/>
    </g>
   </g>
   <g id="PathCollection_41">
    <g clip-path="url(#p3cfdd654dc)">
     <use xlink:href="#m8b2a0f466a" x="172.809057" y="205.819906" style="fill: #eef2ef; stroke: #ffffff"/>
    </g>
   </g>
   <g id="PathCollection_42">
    <g clip-path="url(#p3cfdd654dc)">
     <use xlink:href="#m8b2a0f466a" x="214.922264" y="195.356795" style="fill: #eef2ef; stroke: #ffffff"/>
    </g>
   </g>
   <g id="PathCollection_43">
    <g clip-path="url(#p3cfdd654dc)">
     <use xlink:href="#m8b2a0f466a" x="200.884528" y="195.356795" style="fill: #eef2ef; stroke: #ffffff"/>
    </g>
   </g>
   <g id="PathCollection_44">
    <g clip-path="url(#p3cfdd654dc)">
     <use xlink:href="#m8b2a0f466a" x="186.846792" y="205.819906" style="fill: #eef2ef; stroke: #ffffff"/>
    </g>
   </g>
   <g id="PathCollection_45">
    <g clip-path="url(#p3cfdd654dc)">
     <use xlink:href="#m8b2a0f466a" x="257.035472" y="184.893684" style="fill: #eef2ef; stroke: #ffffff"/>
    </g>
   </g>
   <g id="PathCollection_46">
    <g clip-path="url(#p3cfdd654dc)">
     <use xlink:href="#m8b2a0f466a" x="299.148679" y="174.430574" style="fill: #eef2ef; stroke: #ffffff"/>
    </g>
   </g>
   <g id="PathCollection_47">
    <g clip-path="url(#p3cfdd654dc)">
     <use xlink:href="#m8b2a0f466a" x="285.110943" y="174.430574" style="fill: #eef2ef; stroke: #ffffff"/>
    </g>
   </g>
   <g id="PathCollection_48">
    <g clip-path="url(#p3cfdd654dc)">
     <use xlink:href="#m8b2a0f466a" x="242.997736" y="184.893684" style="fill: #eef2ef; stroke: #ffffff"/>
    </g>
   </g>
   <g id="PathCollection_49">
    <g clip-path="url(#p3cfdd654dc)">
     <use xlink:href="#m8b2a0f466a" x="200.884528" y="163.967463" style="fill: #eef2ef; stroke: #ffffff"/>
    </g>
   </g>
   <g id="PathCollection_50">
    <g clip-path="url(#p3cfdd654dc)">
     <use xlink:href="#m8b2a0f466a" x="242.997736" y="153.504353" style="fill: #eef2ef; stroke: #ffffff"/>
    </g>
   </g>
   <g id="PathCollection_51">
    <g clip-path="url(#p3cfdd654dc)">
     <use xlink:href="#m8b2a0f466a" x="228.96" y="153.504353" style="fill: #eef2ef; stroke: #ffffff"/>
    </g>
   </g>
   <g id="PathCollection_52">
    <g clip-path="url(#p3cfdd654dc)">
     <use xlink:href="#m8b2a0f466a" x="186.846792" y="163.967463" style="fill: #eef2ef; stroke: #ffffff"/>
    </g>
   </g>
   <g id="PathCollection_53">
    <g clip-path="url(#p3cfdd654dc)">
     <use xlink:href="#m8b2a0f466a" x="257.035472" y="143.041242" style="fill: #eef2ef; stroke: #ffffff"/>
    </g>
   </g>
   <g id="PathCollection_54">
    <g clip-path="url(#p3cfdd654dc)">
     <use xlink:href="#m0f1d1328e9" x="158.771321" y="132.578132" style="fill: #eef2ef; stroke: #ffffff"/>
    </g>
   </g>
   <g id="PathCollection_55">
    <g clip-path="url(#p3cfdd654dc)">
     <use xlink:href="#m0f1d1328e9" x="172.809057" y="132.578132" style="fill: #eef2ef; stroke: #ffffff"/>
    </g>
   </g>
   <g id="PathCollection_56">
    <g clip-path="url(#p3cfdd654dc)">
     <use xlink:href="#m8b2a0f466a" x="271.073208" y="143.041242" style="fill: #eef2ef; stroke: #ffffff"/>
    </g>
   </g>
   <g id="PathCollection_57">
    <g clip-path="url(#p3cfdd654dc)">
     <use xlink:href="#m9e9536ca1d" x="200.884528" y="122.115021" style="fill: #eef2ef; stroke: #ffffff"/>
    </g>
   </g>
   <g id="PathCollection_58">
    <g clip-path="url(#p3cfdd654dc)">
     <use xlink:href="#m1adc591644" x="242.997736" y="111.651911" style="fill: #eef2ef; stroke: #ffffff"/>
    </g>
   </g>
   <g id="PathCollection_59">
    <g clip-path="url(#p3cfdd654dc)">
     <use xlink:href="#m1adc591644" x="257.035472" y="111.651911" style="fill: #eef2ef; stroke: #ffffff"/>
    </g>
   </g>
   <g id="PathCollection_60">
    <g clip-path="url(#p3cfdd654dc)">
     <use xlink:href="#m9e9536ca1d" x="214.922264" y="122.115021" style="fill: #eef2ef; stroke: #ffffff"/>
    </g>
   </g>
   <g id="PathCollection_61">
    <g clip-path="url(#p3cfdd654dc)">
     <use xlink:href="#m11b0ace33b" x="285.110943" y="101.1888" style="fill: #eef2ef; stroke: #ffffff"/>
    </g>
   </g>
   <g id="PathCollection_62">
    <g clip-path="url(#p3cfdd654dc)">
     <use xlink:href="#m9e57a95250" x="186.846792" y="90.72569" style="fill: #eef2ef; stroke: #ffffff"/>
    </g>
   </g>
   <g id="PathCollection_63">
    <g clip-path="url(#p3cfdd654dc)">
     <use xlink:href="#m9e57a95250" x="172.809057" y="90.72569" style="fill: #eef2ef; stroke: #ffffff"/>
    </g>
   </g>
   <g id="PathCollection_64">
    <g clip-path="url(#p3cfdd654dc)">
     <use xlink:href="#m11b0ace33b" x="271.073208" y="101.1888" style="fill: #eef2ef; stroke: #ffffff"/>
    </g>
   </g>
   <g id="PathCollection_65">
    <g clip-path="url(#p3cfdd654dc)">
     <use xlink:href="#m8b2a0f466a" x="313.186415" y="247.672348" style="fill: #eef2ef; stroke: #ffffff"/>
    </g>
   </g>
   <g id="PathCollection_66">
    <g clip-path="url(#p3cfdd654dc)">
     <use xlink:href="#m8b2a0f466a" x="327.224151" y="237.209237" style="fill: #eef2ef; stroke: #ffffff"/>
    </g>
   </g>
   <g id="PathCollection_67">
    <g clip-path="url(#p3cfdd654dc)">
     <use xlink:href="#m8b2a0f466a" x="341.261887" y="237.209237" style="fill: #eef2ef; stroke: #ffffff"/>
    </g>
   </g>
   <g id="PathCollection_68">
    <g clip-path="url(#p3cfdd654dc)">
     <use xlink:href="#m8b2a0f466a" x="299.148679" y="247.672348" style="fill: #eef2ef; stroke: #ffffff"/>
    </g>
   </g>
   <g id="PathCollection_69">
    <g clip-path="url(#p3cfdd654dc)">
     <use xlink:href="#m8b2a0f466a" x="369.337358" y="226.746127" style="fill: #eef2ef; stroke: #ffffff"/>
    </g>
   </g>
   <g id="PathCollection_70">
    <g clip-path="url(#p3cfdd654dc)">
     <use xlink:href="#m8b2a0f466a" x="411.450566" y="216.283016" style="fill: #eef2ef; stroke: #ffffff"/>
    </g>
   </g>
   <g id="PathCollection_71">
    <g clip-path="url(#p3cfdd654dc)">
     <use xlink:href="#m8b2a0f466a" x="425.488302" y="216.283016" style="fill: #eef2ef; stroke: #ffffff"/>
    </g>
   </g>
   <g id="PathCollection_72">
    <g clip-path="url(#p3cfdd654dc)">
     <use xlink:href="#m8b2a0f466a" x="383.375094" y="226.746127" style="fill: #eef2ef; stroke: #ffffff"/>
    </g>
   </g>
   <g id="PathCollection_73">
    <g clip-path="url(#p3cfdd654dc)">
     <use xlink:href="#m8b2a0f466a" x="313.186415" y="205.819906" style="fill: #eef2ef; stroke: #ffffff"/>
    </g>
   </g>
   <g id="PathCollection_74">
    <g clip-path="url(#p3cfdd654dc)">
     <use xlink:href="#m8b2a0f466a" x="355.299623" y="195.356795" style="fill: #eef2ef; stroke: #ffffff"/>
    </g>
   </g>
   <g id="PathCollection_75">
    <g clip-path="url(#p3cfdd654dc)">
     <use xlink:href="#m8b2a0f466a" x="341.261887" y="195.356795" style="fill: #eef2ef; stroke: #ffffff"/>
    </g>
   </g>
   <g id="PathCollection_76">
    <g clip-path="url(#p3cfdd654dc)">
     <use xlink:href="#m8b2a0f466a" x="327.224151" y="205.819906" style="fill: #eef2ef; stroke: #ffffff"/>
    </g>
   </g>
   <g id="PathCollection_77">
    <g clip-path="url(#p3cfdd654dc)">
     <use xlink:href="#m8b2a0f466a" x="397.41283" y="184.893684" style="fill: #eef2ef; stroke: #ffffff"/>
    </g>
   </g>
   <g id="PathCollection_78">
    <g clip-path="url(#p3cfdd654dc)">
     <use xlink:href="#m8b2a0f466a" x="439.526038" y="174.430574" style="fill: #eef2ef; stroke: #ffffff"/>
    </g>
   </g>
   <g id="PathCollection_79">
    <g clip-path="url(#p3cfdd654dc)">
     <use xlink:href="#m8b2a0f466a" x="425.488302" y="174.430574" style="fill: #eef2ef; stroke: #ffffff"/>
    </g>
   </g>
   <g id="PathCollection_80">
    <g clip-path="url(#p3cfdd654dc)">
     <use xlink:href="#m8b2a0f466a" x="383.375094" y="184.893684" style="fill: #eef2ef; stroke: #ffffff"/>
    </g>
   </g>
   <g id="PathCollection_81">
    <g clip-path="url(#p3cfdd654dc)">
     <use xlink:href="#m8b2a0f466a" x="341.261887" y="163.967463" style="fill: #eef2ef; stroke: #ffffff"/>
    </g>
   </g>
   <g id="PathCollection_82">
    <g clip-path="url(#p3cfdd654dc)">
     <use xlink:href="#m8b2a0f466a" x="383.375094" y="153.504353" style="fill: #eef2ef; stroke: #ffffff"/>
    </g>
   </g>
   <g id="PathCollection_83">
    <g clip-path="url(#p3cfdd654dc)">
     <use xlink:href="#m8b2a0f466a" x="369.337358" y="153.504353" style="fill: #eef2ef; stroke: #ffffff"/>
    </g>
   </g>
   <g id="PathCollection_84">
    <g clip-path="url(#p3cfdd654dc)">
     <use xlink:href="#m8b2a0f466a" x="327.224151" y="163.967463" style="fill: #eef2ef; stroke: #ffffff"/>
    </g>
   </g>
   <g id="PathCollection_85">
    <g clip-path="url(#p3cfdd654dc)">
     <use xlink:href="#m8b2a0f466a" x="397.41283" y="143.041242" style="fill: #eef2ef; stroke: #ffffff"/>
    </g>
   </g>
   <g id="PathCollection_86">
    <g clip-path="url(#p3cfdd654dc)">
     <use xlink:href="#m0f1d1328e9" x="299.148679" y="132.578132" style="fill: #eef2ef; stroke: #ffffff"/>
    </g>
   </g>
   <g id="PathCollection_87">
    <g clip-path="url(#p3cfdd654dc)">
     <use xlink:href="#m0f1d1328e9" x="313.186415" y="132.578132" style="fill: #eef2ef; stroke: #ffffff"/>
    </g>
   </g>
   <g id="PathCollection_88">
    <g clip-path="url(#p3cfdd654dc)">
     <use xlink:href="#m8b2a0f466a" x="411.450566" y="143.041242" style="fill: #eef2ef; stroke: #ffffff"/>
    </g>
   </g>
   <g id="PathCollection_89">
    <g clip-path="url(#p3cfdd654dc)">
     <use xlink:href="#m9e9536ca1d" x="341.261887" y="122.115021" style="fill: #eef2ef; stroke: #ffffff"/>
    </g>
   </g>
   <g id="PathCollection_90">
    <g clip-path="url(#p3cfdd654dc)">
     <use xlink:href="#m1adc591644" x="383.375094" y="111.651911" style="fill: #eef2ef; stroke: #ffffff"/>
    </g>
   </g>
   <g id="PathCollection_91">
    <g clip-path="url(#p3cfdd654dc)">
     <use xlink:href="#m1adc591644" x="397.41283" y="111.651911" style="fill: #eef2ef; stroke: #ffffff"/>
    </g>
   </g>
   <g id="PathCollection_92">
    <g clip-path="url(#p3cfdd654dc)">
     <use xlink:href="#m9e9536ca1d" x="355.299623" y="122.115021" style="fill: #eef2ef; stroke: #ffffff"/>
    </g>
   </g>
   <g id="PathCollection_93">
    <g clip-path="url(#p3cfdd654dc)">
     <use xlink:href="#m11b0ace33b" x="425.488302" y="101.1888" style="fill: #eef2ef; stroke: #ffffff"/>
    </g>
   </g>
   <g id="PathCollection_94">
    <g clip-path="url(#p3cfdd654dc)">
     <use xlink:href="#m9e57a95250" x="327.224151" y="90.72569" style="fill: #eef2ef; stroke: #ffffff"/>
    </g>
   </g>
   <g id="PathCollection_95">
    <g clip-path="url(#p3cfdd654dc)">
     <use xlink:href="#m9e57a95250" x="313.186415" y="90.72569" style="fill: #eef2ef; stroke: #ffffff"/>
    </g>
   </g>
   <g id="PathCollection_96">
    <g clip-path="url(#p3cfdd654dc)">
     <use xlink:href="#m11b0ace33b" x="411.450566" y="101.1888" style="fill: #eef2ef; stroke: #ffffff"/>
    </g>
   </g>
   <g id="text_1">
    <text style="font-size: 8px; font-family: 'DejaVu Sans'; text-anchor: start; fill: #d85f45" x="18.393962" y="36.169441" transform="rotate(-0 18.393962 36.169441)">macroscopic surface plane</text>
   </g>
   <g id="PathCollection_97">
    <defs>
     <path id="m1bed0caaba" d="M 0 4.582576
C 1.215313 4.582576 2.381014 4.099727 3.24037 3.24037
C 4.099727 2.381014 4.582576 1.215313 4.582576 0
C 4.582576 -1.215313 4.099727 -2.381014 3.24037 -3.24037
C 2.381014 -4.099727 1.215313 -4.582576 0 -4.582576
C -1.215313 -4.582576 -2.381014 -4.099727 -3.24037 -3.24037
C -4.099727 -2.381014 -4.582576 -1.215313 -4.582576 0
C -4.582576 1.215313 -4.099727 2.381014 -3.24037 3.24037
C -2.381014 4.099727 -1.215313 4.582576 0 4.582576
z
" style="stroke: #ffffff"/>
    </defs>
    <g clip-path="url(#p3cfdd654dc)">
     <use xlink:href="#m1bed0caaba" x="88.582642" y="80.262579" style="fill: #e9efeb; stroke: #ffffff"/>
    </g>
   </g>
   <g id="PathCollection_98">
    <defs>
     <path id="m4cc6692195" d="M 0 4.769696
C 1.264938 4.769696 2.478238 4.267131 3.372684 3.372684
C 4.267131 2.478238 4.769696 1.264938 4.769696 0
C 4.769696 -1.264938 4.267131 -2.478238 3.372684 -3.372684
C 2.478238 -4.267131 1.264938 -4.769696 0 -4.769696
C -1.264938 -4.769696 -2.478238 -4.267131 -3.372684 -3.372684
C -4.267131 -2.478238 -4.769696 -1.264938 -4.769696 0
C -4.769696 1.264938 -4.267131 2.478238 -3.372684 3.372684
C -2.478238 4.267131 -1.264938 4.769696 0 4.769696
z
" style="stroke: #ffffff"/>
    </defs>
    <g clip-path="url(#p3cfdd654dc)">
     <use xlink:href="#m4cc6692195" x="130.695849" y="69.799469" style="fill: #d4dfda; stroke: #ffffff"/>
    </g>
   </g>
   <g id="PathCollection_99">
    <g clip-path="url(#p3cfdd654dc)">
     <use xlink:href="#m4cc6692195" x="116.658113" y="69.799469" style="fill: #d4dfda; stroke: #ffffff"/>
    </g>
   </g>
   <g id="PathCollection_100">
    <g clip-path="url(#p3cfdd654dc)">
     <use xlink:href="#m1bed0caaba" x="74.544906" y="80.262579" style="fill: #e9efeb; stroke: #ffffff"/>
    </g>
   </g>
   <g id="PathCollection_101">
    <defs>
     <path id="m3a80ac375d" d="M 0 4.949747
C 1.312688 4.949747 2.571789 4.428211 3.5 3.5
C 4.428211 2.571789 4.949747 1.312688 4.949747 0
C 4.949747 -1.312688 4.428211 -2.571789 3.5 -3.5
C 2.571789 -4.428211 1.312688 -4.949747 0 -4.949747
C -1.312688 -4.949747 -2.571789 -4.428211 -3.5 -3.5
C -4.428211 -2.571789 -4.949747 -1.312688 -4.949747 0
C -4.949747 1.312688 -4.428211 2.571789 -3.5 3.5
C -2.571789 4.428211 -1.312688 4.949747 0 4.949747
z
" style="stroke: #ffffff"/>
    </defs>
    <g clip-path="url(#p3cfdd654dc)">
     <use xlink:href="#m3a80ac375d" x="32.431698" y="59.336358" style="fill: #91aaa6; stroke: #ffffff"/>
    </g>
   </g>
   <g id="PathCollection_102">
    <defs>
     <path id="m7c2367620f" d="M 0 5.700877
C 1.51189 5.700877 2.962061 5.100197 4.031129 4.031129
C 5.100197 2.962061 5.700877 1.51189 5.700877 0
C 5.700877 -1.51189 5.100197 -2.962061 4.031129 -4.031129
C 2.962061 -5.100197 1.51189 -5.700877 0 -5.700877
C -1.51189 -5.700877 -2.962061 -5.100197 -4.031129 -4.031129
C -5.100197 -2.962061 -5.700877 -1.51189 -5.700877 0
C -5.700877 1.51189 -5.100197 2.962061 -4.031129 4.031129
C -2.962061 5.100197 -1.51189 5.700877 0 5.700877
z
" style="stroke: #ffffff"/>
    </defs>
    <g clip-path="url(#p3cfdd654dc)">
     <use xlink:href="#m7c2367620f" x="46.469434" y="48.873247" style="fill: #176b72; stroke: #ffffff"/>
    </g>
   </g>
   <g id="PathCollection_103">
    <g clip-path="url(#p3cfdd654dc)">
     <use xlink:href="#m7c2367620f" x="60.50717" y="48.873247" style="fill: #176b72; stroke: #ffffff"/>
    </g>
   </g>
   <g id="PathCollection_104">
    <g clip-path="url(#p3cfdd654dc)">
     <use xlink:href="#m3a80ac375d" x="18.393962" y="59.336358" style="fill: #91aaa6; stroke: #ffffff"/>
    </g>
   </g>
   <g id="PathCollection_105">
    <g clip-path="url(#p3cfdd654dc)">
     <use xlink:href="#m1bed0caaba" x="228.96" y="80.262579" style="fill: #e9efeb; stroke: #ffffff"/>
    </g>
   </g>
   <g id="PathCollection_106">
    <g clip-path="url(#p3cfdd654dc)">
     <use xlink:href="#m4cc6692195" x="271.073208" y="69.799469" style="fill: #d4dfda; stroke: #ffffff"/>
    </g>
   </g>
   <g id="PathCollection_107">
    <g clip-path="url(#p3cfdd654dc)">
     <use xlink:href="#m4cc6692195" x="257.035472" y="69.799469" style="fill: #d4dfda; stroke: #ffffff"/>
    </g>
   </g>
   <g id="PathCollection_108">
    <g clip-path="url(#p3cfdd654dc)">
     <use xlink:href="#m1bed0caaba" x="214.922264" y="80.262579" style="fill: #e9efeb; stroke: #ffffff"/>
    </g>
   </g>
   <g id="PathCollection_109">
    <g clip-path="url(#p3cfdd654dc)">
     <use xlink:href="#m3a80ac375d" x="172.809057" y="59.336358" style="fill: #91aaa6; stroke: #ffffff"/>
    </g>
   </g>
   <g id="PathCollection_110">
    <g clip-path="url(#p3cfdd654dc)">
     <use xlink:href="#m7c2367620f" x="186.846792" y="48.873247" style="fill: #176b72; stroke: #ffffff"/>
    </g>
   </g>
   <g id="PathCollection_111">
    <g clip-path="url(#p3cfdd654dc)">
     <use xlink:href="#m7c2367620f" x="200.884528" y="48.873247" style="fill: #176b72; stroke: #ffffff"/>
    </g>
   </g>
   <g id="PathCollection_112">
    <g clip-path="url(#p3cfdd654dc)">
     <use xlink:href="#m3a80ac375d" x="158.771321" y="59.336358" style="fill: #91aaa6; stroke: #ffffff"/>
    </g>
   </g>
   <g id="PathCollection_113">
    <g clip-path="url(#p3cfdd654dc)">
     <use xlink:href="#m1bed0caaba" x="369.337358" y="80.262579" style="fill: #e9efeb; stroke: #ffffff"/>
    </g>
   </g>
   <g id="PathCollection_114">
    <g clip-path="url(#p3cfdd654dc)">
     <use xlink:href="#m4cc6692195" x="411.450566" y="69.799469" style="fill: #d4dfda; stroke: #ffffff"/>
    </g>
   </g>
   <g id="PathCollection_115">
    <g clip-path="url(#p3cfdd654dc)">
     <use xlink:href="#m4cc6692195" x="397.41283" y="69.799469" style="fill: #d4dfda; stroke: #ffffff"/>
    </g>
   </g>
   <g id="PathCollection_116">
    <g clip-path="url(#p3cfdd654dc)">
     <use xlink:href="#m1bed0caaba" x="355.299623" y="80.262579" style="fill: #e9efeb; stroke: #ffffff"/>
    </g>
   </g>
   <g id="PathCollection_117">
    <g clip-path="url(#p3cfdd654dc)">
     <use xlink:href="#m3a80ac375d" x="313.186415" y="59.336358" style="fill: #91aaa6; stroke: #ffffff"/>
    </g>
   </g>
   <g id="PathCollection_118">
    <g clip-path="url(#p3cfdd654dc)">
     <use xlink:href="#m7c2367620f" x="327.224151" y="48.873247" style="fill: #176b72; stroke: #ffffff"/>
    </g>
   </g>
   <g id="PathCollection_119">
    <g clip-path="url(#p3cfdd654dc)">
     <use xlink:href="#m7c2367620f" x="341.261887" y="48.873247" style="fill: #176b72; stroke: #ffffff"/>
    </g>
   </g>
   <g id="PathCollection_120">
    <g clip-path="url(#p3cfdd654dc)">
     <use xlink:href="#m3a80ac375d" x="299.148679" y="59.336358" style="fill: #91aaa6; stroke: #ffffff"/>
    </g>
   </g>
  </g>
 </g>
 <defs>
  <clipPath id="p3cfdd654dc">
   <rect x="5.76" y="5.76" width="446.4" height="277.2"/>
  </clipPath>
 </defs>
</svg>
