<?xml version="1.0" encoding="utf-8" standalone="no"?>
<!DOCTYPE svg PUBLIC "-//W3C//DTD SVG 1.1//EN"
  "http://www.w3.org/Graphics/SVG/1.1/DTD/svg11.dtd">
<svg xmlns:xlink="http://www.w3.org/1999/xlink" width="457.92pt" height="288.72pt" viewBox="0 0 457.92 288.72" xmlns="http://www.w3.org/2000/svg" version="1.1">
 <metadata>
  <rdf:RDF xmlns:dc="http://purl.org/dc/elements/1.1/" xmlns:cc="http://creativecommons.org/ns#" xmlns:rdf="http://www.w3.org/1999/02/22-rdf-syntax-ns#">
   <cc:Work>
    <dc:type rdf:resource="http://purl.org/dc/dcmitype/StillImage"/>
    <dc:format>image/svg+xml</dc:format>
    <dc:creator>
     <cc:Agent>
      <dc:title>tools/generate_surface_figures.py</dc:title>
     </cc:Agent>
    </dc:creator>
   </cc:Work>
  </rdf:RDF>
 </metadata>
 <defs>
  <style type="text/css">*{stroke-linejoin: round; stroke-linecap: butt}</style>
 </defs>
 <g id="figure_1">
  <g id="patch_1">
   <path d="M 0 288.72
L 457.92 288.72
L 457.92 0
L 0 0
z
" style="fill: #ffffff"/>
  </g>
  <g id="axes_1">
   <g id="PathCollection_1">
    <defs>
     <path id="m1189fbd6f3" d="M 0 4.301163
C 1.140682 4.301163 2.234798 3.847965 3.041381 3.041381
C 3.847965 2.234798 4.301163 1.140682 4.301163 0
C 4.301163 -1.140682 3.847965 -2.234798 3.041381 -3.041381
C 2.234798 -3.847965 1.140682 -4.301163 0 -4.301163
C -1.140682 -4.301163 -2.234798 -3.847965 -3.041381 -3.041381
C -3.847965 -2.234798 -4.301163 -1.140682 -4.301163 0
C -4.301163 1.140682 -3.847965 2.234798 -3.041381 3.041381
C -2.234798 3.847965 -1.140682 4.301163 0 4.301163
z
" style="stroke: #ffffff; stroke-opacity: 0.48; stroke-width: 1.2"/>
    </defs>
    <g clip-path="url(#p3cfdd654dc)">
     <use xlink:href="#m1189fbd6f3" x="69.531429" y="144.36" style="fill: #d4dfda; fill-opacity: 0.48; stroke: #ffffff; stroke-opacity: 0.48; stroke-width: 1.2"/>
     <use xlink:href="#m1189fbd6f3" x="129.317143" y="109.842702" style="fill: #d4dfda; fill-opacity: 0.48; stroke: #ffffff; stroke-opacity: 0.48; stroke-width: 1.2"/>
     <use xlink:href="#m1189fbd6f3" x="189.102857" y="75.325404" style="fill: #d4dfda; fill-opacity: 0.48; stroke: #ffffff; stroke-opacity: 0.48; stroke-width: 1.2"/>
     <use xlink:href="#m1189fbd6f3" x="248.888571" y="40.808105" style="fill: #d4dfda; fill-opacity: 0.48; stroke: #ffffff; stroke-opacity: 0.48; stroke-width: 1.2"/>
     <use xlink:href="#m1189fbd6f3" x="129.317143" y="178.877298" style="fill: #d4dfda; fill-opacity: 0.48; stroke: #ffffff; stroke-opacity: 0.48; stroke-width: 1.2"/>
     <use xlink:href="#m1189fbd6f3" x="189.102857" y="144.36" style="fill: #d4dfda; fill-opacity: 0.48; stroke: #ffffff; stroke-opacity: 0.48; stroke-width: 1.2"/>
     <use xlink:href="#m1189fbd6f3" x="248.888571" y="109.842702" style="fill: #d4dfda; fill-opacity: 0.48; stroke: #ffffff; stroke-opacity: 0.48; stroke-width: 1.2"/>
     <use xlink:href="#m1189fbd6f3" x="308.674286" y="75.325404" style="fill: #d4dfda; fill-opacity: 0.48; stroke: #ffffff; stroke-opacity: 0.48; stroke-width: 1.2"/>
     <use xlink:href="#m1189fbd6f3" x="189.102857" y="213.394596" style="fill: #d4dfda; fill-opacity: 0.48; stroke: #ffffff; stroke-opacity: 0.48; stroke-width: 1.2"/>
     <use xlink:href="#m1189fbd6f3" x="248.888571" y="178.877298" style="fill: #d4dfda; fill-opacity: 0.48; stroke: #ffffff; stroke-opacity: 0.48; stroke-width: 1.2"/>
     <use xlink:href="#m1189fbd6f3" x="308.674286" y="144.36" style="fill: #d4dfda; fill-opacity: 0.48; stroke: #ffffff; stroke-opacity: 0.48; stroke-width: 1.2"/>
     <use xlink:href="#m1189fbd6f3" x="368.46" y="109.842702" style="fill: #d4dfda; fill-opacity: 0.48; stroke: #ffffff; stroke-opacity: 0.48; stroke-width: 1.2"/>
     <use xlink:href="#m1189fbd6f3" x="248.888571" y="247.911895" style="fill: #d4dfda; fill-opacity: 0.48; stroke: #ffffff; stroke-opacity: 0.48; stroke-width: 1.2"/>
     <use xlink:href="#m1189fbd6f3" x="308.674286" y="213.394596" style="fill: #d4dfda; fill-opacity: 0.48; stroke: #ffffff; stroke-opacity: 0.48; stroke-width: 1.2"/>
     <use xlink:href="#m1189fbd6f3" x="368.46" y="178.877298" style="fill: #d4dfda; fill-opacity: 0.48; stroke: #ffffff; stroke-opacity: 0.48; stroke-width: 1.2"/>
     <use xlink:href="#m1189fbd6f3" x="428.245714" y="144.36" style="fill: #d4dfda; fill-opacity: 0.48; stroke: #ffffff; stroke-opacity: 0.48; stroke-width: 1.2"/>
    </g>
   </g>
   <g id="PathCollection_2">
    <defs>
     <path id="m985bd5b4cf" d="M 0 4.949747
C 1.312688 4.949747 2.571789 4.428211 3.5 3.5
C 4.428211 2.571789 4.949747 1.312688 4.949747 0
C 4.949747 -1.312688 4.428211 -2.571789 3.5 -3.5
C 2.571789 -4.428211 1.312688 -4.949747 0 -4.949747
C -1.312688 -4.949747 -2.571789 -4.428211 -3.5 -3.5
C -4.428211 -2.571789 -4.949747 -1.312688 -4.949747 0
C -4.949747 1.312688 -4.428211 2.571789 -3.5 3.5
C -2.571789 4.428211 -1.312688 4.949747 0 4.949747
z
" style="stroke: #ffffff; stroke-opacity: 0.72; stroke-width: 1.2"/>
    </defs>
    <g clip-path="url(#p3cfdd654dc)">
     <use xlink:href="#m985bd5b4cf" x="29.674286" y="144.36" style="fill: #91aaa6; fill-opacity: 0.72; stroke: #ffffff; stroke-opacity: 0.72; stroke-width: 1.2"/>
     <use xlink:href="#m985bd5b4cf" x="89.46" y="109.842702" style="fill: #91aaa6; fill-opacity: 0.72; stroke: #ffffff; stroke-opacity: 0.72; stroke-width: 1.2"/>
     <use xlink:href="#m985bd5b4cf" x="149.245714" y="75.325404" style="fill: #91aaa6; fill-opacity: 0.72; stroke: #ffffff; stroke-opacity: 0.72; stroke-width: 1.2"/>
     <use xlink:href="#m985bd5b4cf" x="209.031429" y="40.808105" style="fill: #91aaa6; fill-opacity: 0.72; stroke: #ffffff; stroke-opacity: 0.72; stroke-width: 1.2"/>
     <use xlink:href="#m985bd5b4cf" x="89.46" y="178.877298" style="fill: #91aaa6; fill-opacity: 0.72; stroke: #ffffff; stroke-opacity: 0.72; stroke-width: 1.2"/>
     <use xlink:href="#m985bd5b4cf" x="149.245714" y="144.36" style="fill: #91aaa6; fill-opacity: 0.72; stroke: #ffffff; stroke-opacity: 0.72; stroke-width: 1.2"/>
     <use xlink:href="#m985bd5b4cf" x="209.031429" y="109.842702" style="fill: #91aaa6; fill-opacity: 0.72; stroke: #ffffff; stroke-opacity: 0.72; stroke-width: 1.2"/>
     <use xlink:href="#m985bd5b4cf" x="268.817143" y="75.325404" style="fill: #91aaa6; fill-opacity: 0.72; stroke: #ffffff; stroke-opacity: 0.72; stroke-width: 1.2"/>
     <use xlink:href="#m985bd5b4cf" x="149.245714" y="213.394596" style="fill: #91aaa6; fill-opacity: 0.72; stroke: #ffffff; stroke-opacity: 0.72; stroke-width: 1.2"/>
     <use xlink:href="#m985bd5b4cf" x="209.031429" y="178.877298" style="fill: #91aaa6; fill-opacity: 0.72; stroke: #ffffff; stroke-opacity: 0.72; stroke-width: 1.2"/>
     <use xlink:href="#m985bd5b4cf" x="268.817143" y="144.36" style="fill: #91aaa6; fill-opacity: 0.72; stroke: #ffffff; stroke-opacity: 0.72; stroke-width: 1.2"/>
     <use xlink:href="#m985bd5b4cf" x="328.602857" y="109.842702" style="fill: #91aaa6; fill-opacity: 0.72; stroke: #ffffff; stroke-opacity: 0.72; stroke-width: 1.2"/>
     <use xlink:href="#m985bd5b4cf" x="209.031429" y="247.911895" style="fill: #91aaa6; fill-opacity: 0.72; stroke: #ffffff; stroke-opacity: 0.72; stroke-width: 1.2"/>
     <use xlink:href="#m985bd5b4cf" x="268.817143" y="213.394596" style="fill: #91aaa6; fill-opacity: 0.72; stroke: #ffffff; stroke-opacity: 0.72; stroke-width: 1.2"/>
     <use xlink:href="#m985bd5b4cf" x="328.602857" y="178.877298" style="fill: #91aaa6; fill-opacity: 0.72; stroke: #ffffff; stroke-opacity: 0.72; stroke-width: 1.2"/>
     <use xlink:href="#m985bd5b4cf" x="388.388571" y="144.36" style="fill: #91aaa6; fill-opacity: 0.72; stroke: #ffffff; stroke-opacity: 0.72; stroke-width: 1.2"/>
    </g>
   </g>
   <g id="PathCollection_3">
    <defs>
     <path id="mf336546cbd" d="M 0 5.700877
C 1.51189 5.700877 2.962061 5.100197 4.031129 4.031129
C 5.100197 2.962061 5.700877 1.51189 5.700877 0
C 5.700877 -1.51189 5.100197 -2.962061 4.031129 -4.031129
C 2.962061 -5.100197 1.51189 -5.700877 0 -5.700877
C -1.51189 -5.700877 -2.962061 -5.100197 -4.031129 -4.031129
C -5.100197 -2.962061 -5.700877 -1.51189 -5.700877 0
C -5.700877 1.51189 -5.100197 2.962061 -4.031129 4.031129
C -2.962061 5.100197 -1.51189 5.700877 0 5.700877
z
" style="stroke: #ffffff; stroke-width: 1.2"/>
    </defs>
    <g clip-path="url(#p3cfdd654dc)">
     <use xlink:href="#mf336546cbd" x="69.531429" y="144.36" style="fill: #176b72; stroke: #ffffff; stroke-width: 1.2"/>
     <use xlink:href="#mf336546cbd" x="129.317143" y="109.842702" style="fill: #176b72; stroke: #ffffff; stroke-width: 1.2"/>
     <use xlink:href="#mf336546cbd" x="189.102857" y="75.325404" style="fill: #176b72; stroke: #ffffff; stroke-width: 1.2"/>
     <use xlink:href="#mf336546cbd" x="248.888571" y="40.808105" style="fill: #176b72; stroke: #ffffff; stroke-width: 1.2"/>
     <use xlink:href="#mf336546cbd" x="129.317143" y="178.877298" style="fill: #176b72; stroke: #ffffff; stroke-width: 1.2"/>
     <use xlink:href="#mf336546cbd" x="189.102857" y="144.36" style="fill: #176b72; stroke: #ffffff; stroke-width: 1.2"/>
     <use xlink:href="#mf336546cbd" x="248.888571" y="109.842702" style="fill: #176b72; stroke: #ffffff; stroke-width: 1.2"/>
     <use xlink:href="#mf336546cbd" x="308.674286" y="75.325404" style="fill: #176b72; stroke: #ffffff; stroke-width: 1.2"/>
     <use xlink:href="#mf336546cbd" x="189.102857" y="213.394596" style="fill: #176b72; stroke: #ffffff; stroke-width: 1.2"/>
     <use xlink:href="#mf336546cbd" x="248.888571" y="178.877298" style="fill: #176b72; stroke: #ffffff; stroke-width: 1.2"/>
     <use xlink:href="#mf336546cbd" x="308.674286" y="144.36" style="fill: #176b72; stroke: #ffffff; stroke-width: 1.2"/>
     <use xlink:href="#mf336546cbd" x="368.46" y="109.842702" style="fill: #176b72; stroke: #ffffff; stroke-width: 1.2"/>
     <use xlink:href="#mf336546cbd" x="248.888571" y="247.911895" style="fill: #176b72; stroke: #ffffff; stroke-width: 1.2"/>
     <use xlink:href="#mf336546cbd" x="308.674286" y="213.394596" style="fill: #176b72; stroke: #ffffff; stroke-width: 1.2"/>
     <use xlink:href="#mf336546cbd" x="368.46" y="178.877298" style="fill: #176b72; stroke: #ffffff; stroke-width: 1.2"/>
     <use xlink:href="#mf336546cbd" x="428.245714" y="144.36" style="fill: #176b72; stroke: #ffffff; stroke-width: 1.2"/>
    </g>
   </g>
   <g id="line2d_1">
    <path d="M 149.245714 144.36
L 209.031429 178.877298
L 268.817143 144.36
L 209.031429 109.842702
L 149.245714 144.36
" clip-path="url(#p3cfdd654dc)" style="fill: none; stroke: #173033; stroke-width: 1.6; stroke-linecap: square"/>
   </g>
  </g>
 </g>
 <defs>
  <clipPath id="p3cfdd654dc">
   <rect x="5.76" y="5.76" width="446.4" height="277.2"/>
  </clipPath>
 </defs>
</svg>
